<svg xmlns="http://www.w3.org/2000/svg" width="1120" height="520" fill="none"><g clip-path="url(#a)"><path fill="url(#b)" d="M1090 0H30C13.432 0 0 13.432 0 30v460c0 16.569 13.432 30 30 30h1060c16.57 0 30-13.431 30-30V30c0-16.568-13.43-30-30-30"/><path fill="#020617" stroke="#263247" d="M1028 62H92c-12.15 0-22 9.85-22 22v352c0 12.15 9.85 22 22 22h936c12.15 0 22-9.85 22-22V84c0-12.15-9.85-22-22-22Z"/><path fill="#f87171" d="M105 111a8 8 0 1 0 0-16 8 8 0 0 0 0 16"/><path fill="#fbbf24" d="M131 111a8 8 0 1 0 0-16 8 8 0 0 0 0 16"/><path fill="#34d399" d="M157 111a8 8 0 1 0 0-16 8 8 0 0 0 0 16"/><path fill="#cbd5e1" d="M448.31 112V98.91h1.943v2.045h.17a3.3 3.3 0 0 1 1.321-1.628q.912-.588 2.191-.588 1.295 0 2.156.588.869.58 1.355 1.628h.136a3.8 3.8 0 0 1 1.509-1.611q1.005-.605 2.412-.605 1.756 0 2.872 1.1 1.116 1.09 1.116 3.4V112h-2.011v-8.761q0-1.45-.792-2.071-.793-.623-1.867-.623-1.38 0-2.139.836-.759.827-.759 2.096V112h-2.045v-8.966q0-1.116-.725-1.798-.725-.69-1.866-.691-.784 0-1.466.418a3.16 3.16 0 0 0-1.091 1.159q-.41.733-.409 1.696V112zm26.177.273q-1.84 0-3.17-.87-1.33-.868-2.046-2.394t-.716-3.486q0-1.995.733-3.52.742-1.534 2.063-2.395 1.329-.87 3.102-.87 1.381 0 2.489.512 1.108.51 1.815 1.432.707.92.878 2.148h-2.011q-.231-.895-1.023-1.586-.784-.699-2.114-.699-1.176 0-2.062.614-.879.605-1.372 1.713-.486 1.1-.486 2.583 0 1.517.477 2.642.486 1.125 1.364 1.747.886.622 2.079.622.784 0 1.424-.273a2.94 2.94 0 0 0 1.082-.784q.443-.511.631-1.227h2.011a4.66 4.66 0 0 1-.844 2.088q-.664.92-1.764 1.466-1.09.537-2.54.537m8.088 4.636v-18h1.943v2.08h.239q.222-.341.614-.87.4-.537 1.142-.954.75-.426 2.028-.426 1.653 0 2.915.826 1.261.827 1.969 2.344.707 1.517.707 3.58 0 2.08-.707 3.605-.707 1.516-1.961 2.352-1.252.827-2.889.827-1.261 0-2.02-.418-.757-.426-1.167-.963a13 13 0 0 1-.631-.903h-.17v6.92zm1.978-11.454q0 1.482.434 2.616.435 1.125 1.27 1.764.835.631 2.046.631 1.26 0 2.105-.665.852-.673 1.278-1.807.435-1.142.435-2.539 0-1.381-.426-2.489-.418-1.116-1.27-1.764-.844-.657-2.122-.657-1.228 0-2.063.623-.835.614-1.261 1.721-.426 1.1-.426 2.566m20.147-1.875v1.875h-7.636v-1.875zm3.539 8.42V98.91h1.944v2.045h.17a3.3 3.3 0 0 1 1.321-1.628q.912-.588 2.19-.588 1.296 0 2.157.588.869.58 1.355 1.628h.136a3.8 3.8 0 0 1 1.509-1.611q1.005-.605 2.412-.605 1.755 0 2.872 1.1 1.116 1.09 1.116 3.4V112h-2.011v-8.761q0-1.45-.793-2.071-.792-.623-1.866-.623-1.381 0-2.139.836-.759.827-.759 2.096V112h-2.045v-8.966q0-1.116-.725-1.798-.725-.69-1.866-.691a2.76 2.76 0 0 0-1.466.418 3.15 3.15 0 0 0-1.091 1.159q-.41.733-.409 1.696V112zm26.178.273q-1.84 0-3.171-.87-1.33-.868-2.045-2.394-.716-1.526-.716-3.486 0-1.995.733-3.52.741-1.534 2.063-2.395 1.329-.87 3.102-.87 1.38 0 2.488.512 1.108.51 1.816 1.432a4.47 4.47 0 0 1 .878 2.148h-2.012q-.23-.895-1.022-1.586-.785-.699-2.114-.699-1.176 0-2.063.614-.877.605-1.372 1.713-.486 1.1-.486 2.583 0 1.517.478 2.642.486 1.125 1.363 1.747.886.622 2.08.622.784 0 1.423-.273a2.95 2.95 0 0 0 1.083-.784 3 3 0 0 0 .63-1.227h2.012a4.66 4.66 0 0 1-.844 2.088q-.664.92-1.764 1.466-1.091.537-2.54.537m8.088 4.636v-18h1.943v2.08h.239q.222-.341.613-.87.4-.537 1.142-.954.75-.426 2.029-.426 1.653 0 2.915.826 1.262.827 1.968 2.344.708 1.517.708 3.58 0 2.08-.708 3.605-.707 1.516-1.96 2.352-1.253.827-2.889.827-1.261 0-2.02-.418-.759-.426-1.168-.963a14 14 0 0 1-.63-.903h-.171v6.92zm1.977-11.454q0 1.482.435 2.616.435 1.125 1.27 1.764.835.631 2.045.631 1.262 0 2.105-.665.853-.673 1.279-1.807.434-1.142.434-2.539 0-1.381-.426-2.489-.417-1.116-1.27-1.764-.843-.657-2.122-.657-1.227 0-2.062.623-.836.614-1.262 1.721-.426 1.1-.426 2.566m14.659-1.33V112h-2.011V94.546h2.011v6.409h.171a3.7 3.7 0 0 1 1.38-1.611q.93-.605 2.472-.605 1.338 0 2.344.537 1.005.528 1.559 1.627.563 1.092.563 2.779V112h-2.011v-8.182q0-1.56-.81-2.412-.802-.861-2.224-.861-.99 0-1.773.418a3.05 3.05 0 0 0-1.227 1.219q-.444.801-.444 1.943m20.419 2.523v-7.739h2.011V112h-2.011v-2.216h-.137q-.46.997-1.432 1.696-.97.69-2.454.69-1.227 0-2.182-.536-.954-.546-1.5-1.637-.545-1.1-.545-2.77v-8.318h2.011v8.182q0 1.431.801 2.284.81.852 2.063.852.75 0 1.525-.383.784-.384 1.313-1.176.537-.793.537-2.02m5.968 5.352V94.546h2.011v6.443h.171q.221-.341.613-.87.4-.537 1.142-.954.75-.426 2.029-.426 1.653 0 2.914.826 1.262.827 1.969 2.344t.708 3.58q0 2.08-.708 3.605-.707 1.516-1.96 2.352-1.252.827-2.889.827-1.262 0-2.02-.418-.759-.426-1.168-.963a13 13 0 0 1-.63-.903h-.239V112zm1.977-6.545q0 1.482.435 2.616.434 1.125 1.27 1.764.834.631 2.045.631 1.262 0 2.105-.665.852-.673 1.278-1.807.435-1.142.435-2.539 0-1.381-.426-2.489-.418-1.116-1.27-1.764-.844-.657-2.122-.657-1.227 0-2.063.623-.835.614-1.261 1.721-.426 1.1-.426 2.566m24.349 6.818q-1.637 0-2.889-.827-1.252-.835-1.96-2.352-.707-1.526-.707-3.605 0-2.063.707-3.58.708-1.517 1.969-2.344 1.261-.826 2.914-.826 1.28 0 2.02.426.75.417 1.142.954.4.529.623.87h.17v-6.443h2.011V112h-1.943v-2.011h-.238q-.222.357-.631.903-.41.537-1.168.963-.758.418-2.02.418m.273-1.807q1.21 0 2.046-.631.835-.639 1.269-1.764.435-1.134.435-2.616 0-1.467-.426-2.566-.427-1.107-1.261-1.721-.836-.623-2.063-.623-1.278 0-2.131.657-.843.648-1.269 1.764-.418 1.108-.418 2.489 0 1.397.426 2.539.435 1.134 1.278 1.807.853.665 2.114.665m15.009 1.807q-1.773 0-3.111-.844-1.33-.844-2.08-2.361-.741-1.517-.741-3.545 0-2.046.741-3.571.75-1.525 2.08-2.37 1.338-.843 3.111-.843 1.772 0 3.102.843 1.338.844 2.079 2.37.75 1.525.75 3.571 0 2.028-.75 3.545-.741 1.517-2.079 2.361-1.33.843-3.102.844m0-1.807q1.346 0 2.216-.69.869-.691 1.286-1.816t.418-2.437q0-1.313-.418-2.446-.417-1.134-1.286-1.833-.87-.699-2.216-.699t-2.216.699-1.287 1.833a7 7 0 0 0-.418 2.446q0 1.312.418 2.437.417 1.125 1.287 1.816.869.69 2.216.69m14.32 1.807q-1.84 0-3.17-.87-1.33-.868-2.046-2.394t-.716-3.486q0-1.995.733-3.52.741-1.534 2.063-2.395 1.329-.87 3.102-.87 1.38 0 2.489.512a4.8 4.8 0 0 1 1.815 1.432 4.47 4.47 0 0 1 .878 2.148h-2.012q-.23-.895-1.022-1.586-.785-.699-2.114-.699-1.176 0-2.063.614-.877.605-1.372 1.713-.486 1.1-.485 2.583 0 1.517.477 2.642.486 1.125 1.363 1.747.887.622 2.08.622.784 0 1.423-.273a2.95 2.95 0 0 0 1.083-.784 3 3 0 0 0 .63-1.227h2.012a4.66 4.66 0 0 1-.844 2.088q-.664.92-1.764 1.466-1.091.537-2.54.537m13.781-13.364v1.705h-6.784v-1.705zm-4.807-3.136h2.012v12.477q0 .852.247 1.278.255.418.648.563.4.136.843.136.333 0 .546-.034l.341-.068.409 1.807a4 4 0 0 1-.571.153 4.2 4.2 0 0 1-.929.085 4.1 4.1 0 0 1-1.671-.366 3.3 3.3 0 0 1-1.346-1.116q-.528-.75-.529-1.893zm13.01 16.5q-1.772 0-3.11-.844-1.33-.844-2.08-2.361-.741-1.517-.741-3.545 0-2.046.741-3.571.75-1.525 2.08-2.37 1.338-.843 3.11-.843 1.773 0 3.103.843 1.338.844 2.079 2.37.75 1.525.75 3.571 0 2.028-.75 3.545-.741 1.517-2.079 2.361-1.33.843-3.103.844m0-1.807q1.347 0 2.216-.69.87-.691 1.287-1.816.418-1.125.418-2.437 0-1.313-.418-2.446-.417-1.134-1.287-1.833t-2.216-.699-2.216.699q-.869.699-1.286 1.833a7 7 0 0 0-.418 2.446q0 1.312.418 2.437.417 1.125 1.286 1.816.87.69 2.216.69m9.002 1.534V98.91h1.944v1.976h.136q.358-.971 1.295-1.576a3.8 3.8 0 0 1 2.114-.606q.221 0 .554.01.332.007.503.025v2.045a6 6 0 0 0-.469-.077 5 5 0 0 0-.758-.059q-.955 0-1.705.4a3.03 3.03 0 0 0-1.176 1.091 2.94 2.94 0 0 0-.426 1.577V112z"/><path fill="#94a3b8" d="M104.278 217.182v-21.818h1.398v21.818zm3.708-14.617q-.102-1.03-.878-1.602-.776-.571-2.105-.571-.903 0-1.526.256-.622.247-.954.69a1.66 1.66 0 0 0-.324 1.006 1.44 1.44 0 0 0 .196.818q.221.35.605.605.384.248.886.435.504.178 1.074.307l1.568.375q1.143.255 2.097.681a6.4 6.4 0 0 1 1.653 1.049 4.35 4.35 0 0 1 1.083 1.466q.392.843.4 1.934-.008 1.603-.818 2.779-.801 1.167-2.318 1.815-1.509.639-3.639.639-2.114 0-3.682-.648-1.56-.647-2.437-1.917-.87-1.278-.913-3.162h3.572q.059.878.502 1.466.452.58 1.202.878.759.29 1.713.289.938 0 1.628-.272.7-.273 1.082-.759a1.75 1.75 0 0 0 .384-1.116q0-.588-.349-.989-.342-.4-1.006-.682a10 10 0 0 0-1.611-.511l-1.901-.477q-2.207-.537-3.485-1.679-1.28-1.142-1.27-3.077-.009-1.585.843-2.77.861-1.185 2.361-1.849 1.5-.665 3.409-.665 1.944 0 3.392.665 1.458.664 2.268 1.849t.835 2.744z"/><path fill="#e2e8f0" d="M143.08 207.432V215h-3.631v-13.091h3.46v2.31h.153a3.65 3.65 0 0 1 1.458-1.807q1.023-.673 2.48-.673 1.364 0 2.378.596a4.06 4.06 0 0 1 1.577 1.705q.562 1.1.562 2.625V215h-3.631v-7.688q.01-1.202-.613-1.874-.622-.682-1.713-.682-.733 0-1.296.315-.554.315-.869.92-.308.597-.315 1.441m11.299 12.477v-18h3.579v2.199h.162q.238-.528.69-1.074a3.6 3.6 0 0 1 1.194-.92q.742-.375 1.84-.375 1.433 0 2.643.75 1.21.741 1.934 2.241.725 1.492.725 3.742 0 2.19-.708 3.698-.699 1.5-1.909 2.276-1.202.767-2.693.767-1.057 0-1.798-.349a3.7 3.7 0 0 1-1.202-.878 4.5 4.5 0 0 1-.716-1.083h-.111v7.006zm3.554-11.454q0 1.167.323 2.036.324.87.938 1.356.614.477 1.491.477.887 0 1.5-.486.614-.494.929-1.364.324-.878.324-2.019 0-1.134-.315-1.995t-.929-1.346q-.613-.486-1.509-.486-.887 0-1.5.469-.605.468-.929 1.329-.323.86-.323 2.029m14.198-6.546 2.404 4.577 2.463-4.577h3.724l-3.792 6.546 3.895 6.545h-3.708l-2.582-4.526-2.54 4.526h-3.75l3.886-6.545-3.75-6.546zm27.731 18.119q-2.718 0-4.841-.741-2.121-.733-3.588-2.156-1.465-1.415-2.233-3.461-.767-2.044-.767-4.653 0-2.574.767-4.67.776-2.097 2.259-3.597 1.483-1.508 3.622-2.318 2.148-.81 4.892-.81 2.54 0 4.534.742 2.003.74 3.392 2.113a9 9 0 0 1 2.122 3.247q.733 1.875.725 4.151a13.4 13.4 0 0 1-.273 2.881q-.281 1.313-.886 2.292a4.5 4.5 0 0 1-1.569 1.543q-.97.563-2.352.639-.988.077-1.602-.145t-.938-.656a2.4 2.4 0 0 1-.409-1.031h-.102q-.204.511-.801.929-.597.408-1.457.639a5.8 5.8 0 0 1-1.816.162 5.4 5.4 0 0 1-1.909-.469 4.9 4.9 0 0 1-1.594-1.185q-.69-.776-1.091-1.917-.391-1.142-.4-2.642.009-1.483.417-2.583.418-1.1 1.1-1.849.69-.75 1.534-1.176a5.4 5.4 0 0 1 1.696-.546 5.8 5.8 0 0 1 1.824 0q.861.145 1.449.469.596.324.741.699h.12v-.955h2.667v8.319q.009.588.264.912a.84.84 0 0 0 .691.323q.587 0 .98-.519.4-.52.596-1.594.205-1.074.205-2.736 0-1.602-.426-2.813-.418-1.218-1.176-2.071a6.2 6.2 0 0 0-1.747-1.397 8 8 0 0 0-2.165-.784 11.4 11.4 0 0 0-2.387-.248q-2.121 0-3.707.648-1.585.64-2.642 1.798a7.6 7.6 0 0 0-1.585 2.719q-.52 1.551-.529 3.384.01 2.02.563 3.579.563 1.551 1.653 2.608t2.693 1.603q1.603.545 3.682.545.98 0 1.918-.145.937-.136 1.696-.341.759-.195 1.219-.383l.843 2.471q-.537.307-1.457.571a14 14 0 0 1-2.063.435 16 16 0 0 1-2.352.17m-.392-7.704q1.04 0 1.654-.401.621-.4.886-1.184.273-.793.256-1.952-.009-1.023-.265-1.73a1.96 1.96 0 0 0-.86-1.083q-.605-.375-1.688-.375-.946 0-1.611.401a2.6 2.6 0 0 0-1.005 1.125q-.341.716-.35 1.687.009.904.29 1.714.28.8.929 1.304.648.494 1.764.494m19.588 7.858q-1.765 0-3.026-.486-1.253-.477-1.994-1.304a4 4 0 0 1-.963-1.858l3.358-.452q.153.393.485.733.333.341.878.546.553.213 1.347.213 1.185 0 1.951-.58.776-.57.776-1.917v-2.395h-.153a3.5 3.5 0 0 1-.716 1.031q-.478.486-1.228.793-.75.306-1.789.306-1.474 0-2.685-.681-1.201-.691-1.918-2.105-.707-1.423-.707-3.597 0-2.225.724-3.716t1.927-2.233a5 5 0 0 1 2.65-.741q1.1 0 1.841.375.741.366 1.193.92.46.546.708 1.074h.136v-2.199h3.605v13.219q0 1.67-.818 2.795t-2.267 1.688q-1.44.57-3.315.571m.076-8.097q.878 0 1.483-.434.614-.443.938-1.262.332-.826.332-1.977 0-1.15-.324-1.994-.324-.853-.937-1.321-.614-.47-1.492-.469-.894 0-1.508.486-.614.477-.929 1.329-.315.853-.316 1.969 0 1.134.316 1.96.324.819.929 1.27.614.443 1.508.443m12.946 3.162q-1.252 0-2.233-.435a3.6 3.6 0 0 1-1.551-1.303q-.562-.87-.562-2.165 0-1.091.4-1.833a3.25 3.25 0 0 1 1.091-1.193 5.3 5.3 0 0 1 1.568-.682 12 12 0 0 1 1.858-.324 46 46 0 0 0 1.841-.221q.699-.111 1.014-.324t.316-.631v-.051q0-.81-.512-1.253-.503-.443-1.431-.443-.981 0-1.56.435a2 2 0 0 0-.767 1.074l-3.358-.273a4.57 4.57 0 0 1 1.006-2.063q.75-.878 1.934-1.346 1.194-.477 2.762-.477a8.4 8.4 0 0 1 2.088.255q1.005.256 1.781.793.784.537 1.236 1.381.451.834.451 2.002V215h-3.443v-1.815h-.102a3.7 3.7 0 0 1-.844 1.082 3.9 3.9 0 0 1-1.27.724q-.741.256-1.713.256m1.04-2.506q.801 0 1.415-.315.614-.324.963-.869.35-.546.349-1.236v-1.389q-.17.111-.468.204a8 8 0 0 1-.657.162q-.366.068-.733.128l-.664.094a4.5 4.5 0 0 0-1.117.298 1.8 1.8 0 0 0-.741.554q-.265.341-.265.852 0 .743.537 1.134.546.384 1.381.383m9.149 2.259v-13.091h3.52v2.284h.136q.359-1.218 1.202-1.841.844-.63 1.943-.63a5.4 5.4 0 0 1 1.142.127v3.222a5 5 0 0 0-.707-.136 6 6 0 0 0-.827-.06q-.8 0-1.432.349a2.6 2.6 0 0 0-.988.955q-.358.614-.358 1.415V215zm22.423-13.091L260.116 215h-4.091l-4.577-13.091h3.835l2.719 9.367h.136l2.711-9.367zm5.24 13.338q-1.253 0-2.233-.435a3.6 3.6 0 0 1-1.551-1.303q-.563-.87-.563-2.165 0-1.091.401-1.833.4-.741 1.091-1.193a5.3 5.3 0 0 1 1.568-.682q.886-.23 1.858-.324a47 47 0 0 0 1.841-.221q.699-.111 1.014-.324t.315-.631v-.051q0-.81-.511-1.253-.503-.443-1.432-.443-.98 0-1.56.435a2 2 0 0 0-.767 1.074l-3.358-.273a4.6 4.6 0 0 1 1.006-2.063q.75-.878 1.935-1.346 1.193-.477 2.761-.477a8.4 8.4 0 0 1 2.088.255 5.5 5.5 0 0 1 1.781.793q.785.537 1.236 1.381.452.834.452 2.002V215h-3.443v-1.815h-.102q-.316.614-.844 1.082a3.9 3.9 0 0 1-1.27.724q-.741.256-1.713.256m1.04-2.506q.8 0 1.414-.315.613-.324.963-.869.35-.546.35-1.236v-1.389q-.17.111-.469.204a8 8 0 0 1-.656.162q-.367.068-.733.128l-.665.094a4.5 4.5 0 0 0-1.116.298 1.8 1.8 0 0 0-.742.554q-.264.341-.264.852 0 .743.537 1.134.546.384 1.381.383m15.115 2.515q-2.02 0-3.478-.818a5.6 5.6 0 0 1-2.233-2.336q-.784-1.516-.784-3.588 0-2.02.784-3.545a5.8 5.8 0 0 1 2.208-2.378q1.431-.852 3.358-.852 1.294 0 2.412.417 1.125.41 1.96 1.236.844.826 1.312 2.08.47 1.244.469 2.914v.998h-11.054v-2.25h7.637q0-.784-.341-1.39a2.46 2.46 0 0 0-.946-.946q-.597-.35-1.39-.349-.826 0-1.465.383-.631.375-.989 1.015-.358.63-.367 1.406v2.139q0 .971.358 1.679a2.6 2.6 0 0 0 1.032 1.091q.664.383 1.576.383a3.4 3.4 0 0 0 1.108-.17q.503-.17.861-.511t.546-.836l3.357.222a4.6 4.6 0 0 1-1.048 2.114q-.784.894-2.028 1.397-1.236.495-2.855.495m15.98-18.529-5.625 20.898h-3.128l5.625-20.898zM303.816 215v-13.091h3.46v2.31h.154q.408-1.15 1.363-1.816.955-.664 2.284-.664 1.347 0 2.293.673a3.17 3.17 0 0 1 1.261 1.807h.137q.4-1.125 1.449-1.799 1.057-.681 2.497-.681 1.832 0 2.974 1.167 1.15 1.16 1.151 3.29V215h-3.622v-8.088q0-1.091-.58-1.636-.579-.546-1.449-.546-.989 0-1.542.631-.555.622-.554 1.645V215h-3.52v-8.165q0-.963-.554-1.534-.546-.571-1.441-.571-.605 0-1.09.307-.478.298-.759.844-.281.537-.281 1.261V215zm27.805.256q-2.01 0-3.46-.853a5.76 5.76 0 0 1-2.216-2.386q-.767-1.525-.767-3.511 0-2.011.776-3.529a5.77 5.77 0 0 1 2.224-2.378q1.44-.86 3.426-.86 1.713 0 3 .622t2.037 1.747.827 2.642h-3.426q-.145-.98-.767-1.577-.614-.605-1.611-.605-.843 0-1.474.46-.623.453-.972 1.321-.35.87-.349 2.106 0 1.252.341 2.13.348.877.98 1.338.63.46 1.474.461.622 0 1.117-.256.502-.256.826-.742.333-.494.435-1.184h3.426q-.086 1.5-.818 2.642-.725 1.133-2.003 1.772-1.278.64-3.026.64m8.172 4.653v-18h3.579v2.199h.162q.239-.528.69-1.074a3.6 3.6 0 0 1 1.194-.92q.741-.375 1.841-.375 1.431 0 2.642.75 1.21.741 1.934 2.241.725 1.492.725 3.742 0 2.19-.708 3.698-.699 1.5-1.909 2.276-1.202.767-2.693.767-1.057 0-1.798-.349a3.7 3.7 0 0 1-1.202-.878 4.5 4.5 0 0 1-.716-1.083h-.111v7.006zm3.554-11.454q0 1.167.323 2.036.324.87.938 1.356.613.477 1.491.477.887 0 1.5-.486.615-.494.929-1.364.324-.878.324-2.019 0-1.134-.315-1.995t-.929-1.346q-.613-.486-1.509-.486-.885 0-1.5.469-.605.468-.929 1.329-.323.86-.323 2.029m19.789-2.063v2.881h-7.96v-2.881zM366.23 215v-13.091h3.46v2.31h.154q.408-1.15 1.363-1.816.955-.664 2.284-.664 1.347 0 2.293.673a3.17 3.17 0 0 1 1.261 1.807h.137q.4-1.125 1.449-1.799 1.057-.681 2.497-.681 1.832 0 2.974 1.167 1.15 1.16 1.151 3.29V215h-3.622v-8.088q0-1.091-.58-1.636-.579-.546-1.449-.546-.989 0-1.542.631-.555.622-.554 1.645V215h-3.52v-8.165q0-.963-.554-1.534-.546-.571-1.441-.571-.605 0-1.09.307-.478.298-.759.844-.28.537-.281 1.261V215zm27.806.256q-2.012 0-3.461-.853a5.76 5.76 0 0 1-2.216-2.386q-.767-1.525-.767-3.511 0-2.011.776-3.529a5.77 5.77 0 0 1 2.224-2.378q1.442-.86 3.426-.86 1.714 0 3 .622t2.037 1.747q.75 1.125.827 2.642h-3.426q-.145-.98-.767-1.577-.613-.605-1.611-.605-.844 0-1.474.46-.623.453-.972 1.321-.35.87-.349 2.106 0 1.252.341 2.13.349.877.98 1.338.63.46 1.474.461.622 0 1.117-.256.502-.256.826-.742.333-.494.435-1.184h3.426q-.085 1.5-.818 2.642-.725 1.133-2.003 1.772-1.279.64-3.025.64m8.171 4.653v-18h3.579v2.199h.162q.239-.528.69-1.074a3.6 3.6 0 0 1 1.194-.92q.741-.375 1.841-.375 1.431 0 2.642.75 1.21.741 1.934 2.241.725 1.492.725 3.742 0 2.19-.708 3.698-.699 1.5-1.909 2.276-1.202.767-2.693.767-1.057 0-1.798-.349a3.7 3.7 0 0 1-1.202-.878 4.5 4.5 0 0 1-.716-1.083h-.111v7.006zm3.554-11.454q0 1.167.324 2.036.323.87.937 1.356.614.477 1.491.477.887 0 1.5-.486.615-.494.929-1.364.324-.878.324-2.019 0-1.134-.315-1.995t-.929-1.346q-.613-.486-1.509-.486-.885 0-1.5.469-.605.468-.928 1.329-.324.86-.324 2.029m15.264-1.023V215h-3.631v-17.455h3.529v6.674h.153a3.7 3.7 0 0 1 1.432-1.816q.989-.664 2.48-.664 1.364 0 2.378.596 1.023.588 1.585 1.696.571 1.1.562 2.634V215h-3.63v-7.688q.008-1.21-.614-1.883-.614-.673-1.721-.673-.742 0-1.313.315-.562.315-.886.92-.316.597-.324 1.441m19.741 1.994v-7.517h3.63V215h-3.485v-2.378h-.137a3.87 3.87 0 0 1-1.474 1.85q-1.023.698-2.497.698-1.312 0-2.31-.596-.998-.597-1.56-1.696-.554-1.1-.562-2.634v-8.335h3.63v7.688q.008 1.158.623 1.832.613.673 1.644.673.657 0 1.228-.298.57-.307.92-.903.358-.597.35-1.475m6.603 5.574v-17.455h3.63v6.563h.111q.239-.528.69-1.074a3.6 3.6 0 0 1 1.194-.92q.741-.375 1.841-.375 1.431 0 2.642.75 1.21.741 1.934 2.241.725 1.492.725 3.742 0 2.19-.708 3.698-.699 1.5-1.909 2.276-1.202.767-2.693.767-1.057 0-1.798-.349a3.7 3.7 0 0 1-1.202-.878 4.5 4.5 0 0 1-.716-1.083h-.162V215zm3.554-6.545q0 1.167.323 2.036.324.87.938 1.356.613.477 1.491.477.887 0 1.5-.486.615-.494.929-1.364.324-.878.324-2.019 0-1.134-.315-1.995t-.929-1.346q-.613-.486-1.509-.486-.885 0-1.5.469-.605.468-.929 1.329-.323.86-.323 2.029m22.014 6.758a4.95 4.95 0 0 1-2.702-.767q-1.201-.776-1.909-2.276-.699-1.508-.699-3.698 0-2.25.725-3.742.725-1.5 1.926-2.241 1.21-.75 2.65-.75 1.1 0 1.833.375.741.366 1.193.92.46.546.699 1.074h.11v-6.563h3.623V215h-3.58v-2.097h-.153a4.7 4.7 0 0 1-.725 1.083 3.6 3.6 0 0 1-1.201.878q-.734.35-1.79.349m1.15-2.889q.879 0 1.483-.477.614-.486.938-1.356.332-.869.332-2.036t-.324-2.029q-.324-.861-.937-1.329-.613-.47-1.492-.469-.894 0-1.508.486-.614.485-.929 1.346t-.315 1.995q0 1.141.315 2.019.323.87.929 1.364.614.486 1.508.486m15.199 2.932q-1.986 0-3.435-.844a5.8 5.8 0 0 1-2.225-2.369q-.784-1.525-.784-3.537 0-2.029.784-3.546a5.7 5.7 0 0 1 2.225-2.369q1.449-.852 3.435-.852 1.984 0 3.426.852a5.7 5.7 0 0 1 2.233 2.369q.783 1.517.784 3.546 0 2.012-.784 3.537a5.76 5.76 0 0 1-2.233 2.369q-1.442.844-3.426.844m.017-2.813q.903 0 1.508-.511.605-.52.912-1.415.315-.896.315-2.037t-.315-2.037q-.307-.894-.912-1.415-.605-.519-1.508-.519-.912 0-1.535.519-.613.52-.929 1.415-.306.896-.306 2.037t.306 2.037q.316.895.929 1.415.623.511 1.535.511m14.701 2.813q-2.011 0-3.46-.853a5.76 5.76 0 0 1-2.216-2.386q-.767-1.525-.767-3.511 0-2.011.776-3.529a5.76 5.76 0 0 1 2.224-2.378q1.44-.86 3.426-.86 1.713 0 3 .622t2.037 1.747.827 2.642h-3.426q-.146-.98-.767-1.577-.614-.605-1.611-.605-.844 0-1.475.46-.621.453-.971 1.321-.35.87-.35 2.106 0 1.252.341 2.13.35.877.98 1.338.631.46 1.475.461.623 0 1.116-.256.504-.256.827-.742.333-.494.435-1.184h3.426q-.086 1.5-.818 2.642-.725 1.133-2.003 1.772-1.278.64-3.026.64m15.134-13.347v2.727h-7.883v-2.727zm-6.093-3.136h3.63v12.204q0 .503.154.784.153.273.426.384.28.111.648.111.255 0 .511-.043l.392-.077.571 2.702q-.273.085-.767.196-.494.12-1.202.145-1.312.051-2.301-.349-.98-.401-1.525-1.245-.546-.844-.537-2.13zm14.233 16.483q-1.986 0-3.435-.844a5.77 5.77 0 0 1-2.224-2.369q-.784-1.525-.784-3.537 0-2.029.784-3.546a5.7 5.7 0 0 1 2.224-2.369q1.449-.852 3.435-.852t3.426.852a5.7 5.7 0 0 1 2.233 2.369q.784 1.517.784 3.546 0 2.012-.784 3.537a5.76 5.76 0 0 1-2.233 2.369q-1.44.844-3.426.844m.017-2.813q.903 0 1.508-.511.606-.52.912-1.415.316-.896.316-2.037t-.316-2.037q-.306-.894-.912-1.415-.605-.519-1.508-.519-.913 0-1.534.519-.614.52-.929 1.415-.307.896-.307 2.037t.307 2.037q.315.895.929 1.415.621.511 1.534.511m8.787 2.557v-13.091h3.52v2.284h.136q.358-1.218 1.202-1.841a3.16 3.16 0 0 1 1.943-.63 5.4 5.4 0 0 1 1.142.127v3.222a5 5 0 0 0-.708-.136 6 6 0 0 0-.826-.06q-.801 0-1.432.349a2.6 2.6 0 0 0-.989.955q-.357.614-.358 1.415V215z"/><path fill="#86efac" d="m99.301 310.679 2.404-2.412 3.946 3.878 8.752-8.719 2.421 2.412-11.173 11.114z"/><path fill="#e2e8f0" d="M164.415 306.222h-2.659a4.1 4.1 0 0 0-.571-1.5 4.2 4.2 0 0 0-1.023-1.1 4.4 4.4 0 0 0-1.355-.682 5.3 5.3 0 0 0-1.577-.23q-1.508 0-2.702.759-1.184.758-1.875 2.224-.681 1.466-.681 3.58 0 2.13.681 3.596.69 1.466 1.884 2.216 1.192.75 2.685.75.826 0 1.568-.221.75-.23 1.355-.674a4.083 4.083 0 0 0 1.611-2.565l2.659.009a7.1 7.1 0 0 1-.827 2.369 6.5 6.5 0 0 1-1.56 1.858 7 7 0 0 1-2.164 1.201q-1.22.427-2.659.427-2.268 0-4.04-1.074-1.773-1.083-2.796-3.094-1.014-2.011-1.014-4.798 0-2.796 1.023-4.799 1.022-2.01 2.795-3.085 1.773-1.082 4.032-1.082a8.1 8.1 0 0 1 2.59.4 6.9 6.9 0 0 1 2.174 1.159 6.4 6.4 0 0 1 1.593 1.858q.631 1.092.853 2.498m8.461 12.042q-1.842 0-3.213-.844-1.372-.843-2.131-2.36-.759-1.518-.759-3.546 0-2.037.759-3.562t2.131-2.37q1.371-.843 3.213-.843 1.84 0 3.213.843 1.373.845 2.13 2.37.759 1.525.759 3.562 0 2.028-.759 3.546-.757 1.517-2.13 2.36-1.373.844-3.213.844m.008-2.139q1.194 0 1.978-.631.784-.63 1.159-1.679.383-1.048.383-2.309a6.7 6.7 0 0 0-.383-2.301q-.375-1.057-1.159-1.696-.784-.64-1.978-.64-1.202 0-1.994.64-.784.639-1.168 1.696a6.8 6.8 0 0 0-.375 2.301q0 1.261.375 2.309.384 1.049 1.168 1.679.792.631 1.994.631m11.487-5.898V318h-2.549v-13.091h2.446v2.131h.162a3.75 3.75 0 0 1 1.415-1.671q.972-.63 2.446-.63 1.338 0 2.344.562 1.005.554 1.56 1.654.554 1.099.554 2.718V318H190.2v-8.02q0-1.423-.741-2.224-.742-.81-2.037-.81-.887 0-1.577.384-.681.382-1.082 1.125-.392.732-.392 1.772m18.025-5.318v2.046h-7.397v-2.046zM197.027 318v-14.608q0-1.227.537-2.037a3.3 3.3 0 0 1 1.423-1.219 4.55 4.55 0 0 1 1.926-.409q.768 0 1.313.128.545.12.81.222l-.597 2.062a12 12 0 0 0-.46-.119 2.6 2.6 0 0 0-.682-.077q-.929 0-1.33.46-.392.46-.392 1.33V318zm7.999 0v-13.091h2.548V318zm1.286-15.111q-.664 0-1.142-.443a1.44 1.44 0 0 1-.468-1.074q0-.63.468-1.074a1.6 1.6 0 0 1 1.142-.451q.666 0 1.134.451.477.444.477 1.074 0 .623-.477 1.074a1.6 1.6 0 0 1-1.134.443m10.179 20.293q-1.56 0-2.685-.409-1.116-.41-1.824-1.083a4.6 4.6 0 0 1-1.057-1.474l2.191-.904q.23.375.613.793.393.426 1.057.725.674.298 1.73.298 1.45 0 2.395-.708.946-.698.946-2.232v-2.574h-.162a6 6 0 0 1-.664.929q-.427.511-1.177.886t-1.951.375q-1.551 0-2.796-.724-1.236-.733-1.96-2.157-.716-1.432-.716-3.52t.707-3.579q.716-1.491 1.961-2.284 1.244-.801 2.821-.801 1.218 0 1.968.409.75.4 1.168.937.426.537.656.946h.188v-2.122h2.497v13.381q0 1.687-.784 2.77t-2.122 1.602q-1.33.52-3 .52m-.026-7.492q1.1 0 1.858-.511.768-.52 1.159-1.483.4-.971.401-2.327 0-1.32-.392-2.326-.393-1.006-1.151-1.569-.758-.57-1.875-.571-1.15 0-1.917.597-.768.588-1.16 1.602-.383 1.014-.383 2.267 0 1.287.392 2.259t1.159 1.517q.776.545 1.909.545m17.642-3.119v-7.662h2.557V318h-2.506v-2.267h-.136q-.452 1.048-1.449 1.747-.988.69-2.463.69-1.261 0-2.233-.554-.963-.562-1.517-1.661-.546-1.1-.545-2.719v-8.327h2.548v8.02q0 1.338.741 2.131.742.792 1.927.792.715 0 1.423-.358a3 3 0 0 0 1.184-1.082q.478-.725.469-1.841m5.981 5.429v-13.091h2.463v2.08h.137a3.16 3.16 0 0 1 1.261-1.662 3.6 3.6 0 0 1 2.062-.614 11 11 0 0 1 1.083.06v2.437a5 5 0 0 0-.546-.094 5 5 0 0 0-.784-.059q-.903 0-1.611.383-.698.375-1.108 1.049a2.84 2.84 0 0 0-.409 1.517V318zm12.903.29q-1.244 0-2.25-.46a3.8 3.8 0 0 1-1.593-1.356q-.58-.885-.58-2.173 0-1.108.426-1.824a3.14 3.14 0 0 1 1.151-1.133 6 6 0 0 1 1.619-.631q.896-.213 1.824-.324l1.909-.221q.733-.094 1.065-.299.333-.204.333-.664v-.06q0-1.116-.631-1.73-.622-.614-1.858-.614-1.287 0-2.028.571-.733.563-1.014 1.253l-2.395-.545q.426-1.194 1.244-1.927a5.04 5.04 0 0 1 1.901-1.073 7.4 7.4 0 0 1 2.258-.341q.784 0 1.662.187a4.9 4.9 0 0 1 1.654.665q.776.486 1.269 1.389.495.895.495 2.327V318h-2.489v-1.79h-.102q-.247.495-.742.972-.494.477-1.27.792-.775.316-1.858.316m.554-2.046q1.057 0 1.807-.417.758-.418 1.151-1.091.4-.683.4-1.458v-1.687q-.136.136-.528.256a9 9 0 0 1-.878.196q-.493.076-.963.145a64 64 0 0 0-.784.102 6.3 6.3 0 0 0-1.355.315 2.34 2.34 0 0 0-.972.639q-.358.41-.358 1.091 0 .946.699 1.432.7.477 1.781.477m15.412-11.335v2.046h-7.151v-2.046zm-5.233-3.136h2.548v12.383q0 .742.222 1.117.221.366.571.503.358.127.775.127.308 0 .537-.042l.358-.068.46 2.105a4 4 0 0 1-.63.17 5 5 0 0 1-1.023.102 4.5 4.5 0 0 1-1.875-.358 3.2 3.2 0 0 1-1.406-1.159q-.537-.784-.537-1.968zM271.776 318v-13.091h2.548V318zm1.286-15.111q-.664 0-1.142-.443a1.44 1.44 0 0 1-.468-1.074q0-.63.468-1.074a1.6 1.6 0 0 1 1.142-.451q.666 0 1.134.451.477.444.477 1.074 0 .623-.477 1.074a1.6 1.6 0 0 1-1.134.443m10.204 15.375q-1.84 0-3.213-.844-1.373-.843-2.13-2.36-.759-1.518-.759-3.546 0-2.037.759-3.562.757-1.525 2.13-2.37 1.372-.843 3.213-.843 1.842 0 3.213.843 1.372.845 2.131 2.37t.759 3.562q0 2.028-.759 3.546t-2.131 2.36q-1.371.844-3.213.844m.009-2.139q1.192 0 1.977-.631.784-.63 1.159-1.679.384-1.048.384-2.309 0-1.254-.384-2.301-.375-1.057-1.159-1.696-.785-.64-1.977-.64-1.202 0-1.994.64-.784.639-1.168 1.696a6.8 6.8 0 0 0-.375 2.301q0 1.261.375 2.309.384 1.049 1.168 1.679.792.631 1.994.631m11.486-5.898V318h-2.548v-13.091h2.446v2.131h.162a3.75 3.75 0 0 1 1.415-1.671q.972-.63 2.446-.63 1.338 0 2.344.562 1.005.554 1.559 1.654.555 1.099.554 2.718V318h-2.548v-8.02q0-1.423-.742-2.224-.741-.81-2.037-.81-.885 0-1.576.384-.683.382-1.083 1.125-.392.732-.392 1.772m20.696-9.682V318h-2.549v-17.455zm8.942 17.719q-1.84 0-3.213-.844-1.372-.843-2.131-2.36-.758-1.518-.758-3.546 0-2.037.758-3.562.759-1.525 2.131-2.37 1.373-.843 3.213-.843t3.213.843q1.372.845 2.131 2.37t.758 3.562q0 2.028-.758 3.546-.759 1.517-2.131 2.36-1.373.844-3.213.844m.009-2.139q1.192 0 1.977-.631.784-.63 1.159-1.679.384-1.048.384-2.309 0-1.254-.384-2.301-.375-1.057-1.159-1.696-.785-.64-1.977-.64-1.202 0-1.995.64-.784.639-1.167 1.696a6.8 6.8 0 0 0-.375 2.301q0 1.261.375 2.309.383 1.049 1.167 1.679.793.631 1.995.631m12.748 2.165q-1.245 0-2.25-.46a3.8 3.8 0 0 1-1.594-1.356q-.58-.885-.58-2.173 0-1.108.426-1.824a3.14 3.14 0 0 1 1.151-1.133 6 6 0 0 1 1.619-.631q.895-.213 1.824-.324l1.909-.221q.733-.094 1.066-.299.332-.204.332-.664v-.06q0-1.116-.631-1.73-.622-.614-1.858-.614-1.287 0-2.028.571-.733.563-1.014 1.253l-2.395-.545q.426-1.194 1.244-1.927a5.04 5.04 0 0 1 1.901-1.073 7.4 7.4 0 0 1 2.258-.341q.785 0 1.662.187a4.9 4.9 0 0 1 1.654.665q.776.486 1.269 1.389.495.895.495 2.327V318h-2.489v-1.79h-.102q-.247.495-.742.972-.493.477-1.27.792-.776.316-1.857.316m.554-2.046q1.056 0 1.806-.417.76-.418 1.151-1.091.4-.683.4-1.458v-1.687q-.136.136-.528.256a9 9 0 0 1-.878.196q-.493.076-.963.145a64 64 0 0 0-.784.102 6.3 6.3 0 0 0-1.355.315 2.34 2.34 0 0 0-.972.639q-.358.41-.358 1.091 0 .946.699 1.432.699.477 1.782.477m14.201 2.012q-1.585 0-2.83-.81-1.236-.818-1.943-2.327-.699-1.516-.699-3.639t.707-3.631q.716-1.508 1.961-2.309 1.243-.801 2.821-.801 1.218 0 1.96.409.75.4 1.159.937.417.537.648.946h.153v-6.486h2.548V318h-2.488v-2.037h-.213a7 7 0 0 1-.665.955q-.426.537-1.176.937t-1.943.401m.562-2.174q1.1 0 1.858-.579.767-.588 1.159-1.628.4-1.04.401-2.42 0-1.365-.392-2.387t-1.151-1.594q-.759-.57-1.875-.571-1.15 0-1.918.597-.766.596-1.159 1.628-.383 1.03-.383 2.327 0 1.312.392 2.36.392 1.049 1.159 1.662.775.606 1.909.605m15.202 2.182q-1.934 0-3.332-.826-1.389-.836-2.148-2.344-.75-1.517-.75-3.554 0-2.012.75-3.546.76-1.534 2.114-2.395 1.364-.86 3.187-.86 1.108 0 2.148.366a5.2 5.2 0 0 1 1.867 1.151q.826.783 1.304 2.037.477 1.244.477 3.025v.904h-10.406v-1.91h7.909q0-1.005-.409-1.781a3.1 3.1 0 0 0-1.151-1.236q-.733-.451-1.722-.451-1.072 0-1.875.528a3.55 3.55 0 0 0-1.227 1.364 3.94 3.94 0 0 0-.426 1.815v1.492q0 1.312.46 2.233.469.92 1.304 1.406.836.477 1.952.477.724 0 1.321-.204a2.9 2.9 0 0 0 1.031-.631q.435-.418.665-1.031l2.412.434a4.4 4.4 0 0 1-1.04 1.867q-.741.792-1.866 1.236-1.117.434-2.549.434m13.345-.008q-1.585 0-2.83-.81-1.236-.818-1.943-2.327-.699-1.516-.699-3.639t.708-3.631q.715-1.508 1.96-2.309 1.244-.801 2.821-.801 1.219 0 1.96.409.75.4 1.159.937.418.537.648.946h.153v-6.486h2.549V318h-2.489v-2.037h-.213a6.7 6.7 0 0 1-.665.955q-.426.537-1.176.937t-1.943.401m.562-2.174q1.1 0 1.858-.579.768-.588 1.159-1.628.4-1.04.401-2.42 0-1.365-.392-2.387t-1.151-1.594q-.757-.57-1.875-.571-1.15 0-1.917.597-.768.596-1.159 1.628-.384 1.03-.384 2.327 0 1.312.392 2.36.393 1.049 1.159 1.662.776.606 1.909.605m22.142-11.173v2.046h-7.397v-2.046zM398.355 318v-14.608q0-1.227.537-2.037a3.3 3.3 0 0 1 1.423-1.219 4.55 4.55 0 0 1 1.926-.409q.768 0 1.313.128.546.12.81.222l-.597 2.062a12 12 0 0 0-.46-.119 2.6 2.6 0 0 0-.682-.077q-.928 0-1.33.46-.392.46-.392 1.33V318zm7.999 0v-13.091h2.463v2.08h.136a3.16 3.16 0 0 1 1.261-1.662 3.6 3.6 0 0 1 2.063-.614 11 11 0 0 1 1.082.06v2.437a5 5 0 0 0-.545-.094 5 5 0 0 0-.784-.059q-.903 0-1.611.383a2.85 2.85 0 0 0-1.517 2.566V318zm14.256.264q-1.84 0-3.213-.844-1.372-.843-2.131-2.36-.758-1.518-.758-3.546 0-2.037.758-3.562.759-1.525 2.131-2.37 1.373-.843 3.213-.843t3.213.843q1.372.845 2.131 2.37t.758 3.562q0 2.028-.758 3.546-.759 1.517-2.131 2.36-1.372.844-3.213.844m.009-2.139q1.192 0 1.977-.631.784-.63 1.159-1.679.384-1.048.383-2.309 0-1.254-.383-2.301-.375-1.057-1.159-1.696-.784-.64-1.977-.64-1.202 0-1.995.64-.784.639-1.167 1.696a6.8 6.8 0 0 0-.375 2.301q0 1.261.375 2.309.383 1.049 1.167 1.679.793.631 1.995.631m8.938 1.875v-13.091h2.446v2.131h.162a3.4 3.4 0 0 1 1.338-1.688q.929-.613 2.224-.613 1.313 0 2.199.613.895.614 1.321 1.688h.137a3.7 3.7 0 0 1 1.491-1.671q1.023-.63 2.437-.63 1.782 0 2.907 1.116 1.133 1.117 1.133 3.367V318h-2.548v-8.54q0-1.329-.724-1.926-.724-.596-1.731-.596-1.244 0-1.934.767-.69.758-.691 1.951V318h-2.539v-8.702q0-1.065-.665-1.713t-1.73-.647q-.724 0-1.338.383-.606.375-.98 1.048-.367.673-.367 1.56V318zm29.241.162q-.699 0-1.201-.494a1.65 1.65 0 0 1-.503-1.211q0-.699.503-1.193a1.64 1.64 0 0 1 1.201-.503q.7 0 1.202.503.503.494.503 1.193 0 .47-.239.861-.23.383-.613.614a1.63 1.63 0 0 1-.853.23m10.76.102q-1.934 0-3.332-.826-1.389-.836-2.148-2.344-.75-1.517-.75-3.554 0-2.012.75-3.546.758-1.534 2.114-2.395 1.363-.86 3.187-.86 1.108 0 2.148.366a5.2 5.2 0 0 1 1.866 1.151q.828.783 1.304 2.037.478 1.244.478 3.025v.904h-10.407v-1.91h7.91q0-1.005-.41-1.781a3.1 3.1 0 0 0-1.15-1.236q-.733-.451-1.722-.451-1.074 0-1.875.528a3.55 3.55 0 0 0-1.227 1.364 3.94 3.94 0 0 0-.426 1.815v1.492q0 1.312.46 2.233.469.92 1.304 1.406.835.477 1.952.477.724 0 1.321-.204a2.9 2.9 0 0 0 1.031-.631 2.75 2.75 0 0 0 .665-1.031l2.412.434a4.4 4.4 0 0 1-1.04 1.867q-.741.792-1.866 1.236-1.117.434-2.549.434m10.992-8.037V318h-2.548v-13.091h2.446v2.131h.162a3.75 3.75 0 0 1 1.415-1.671q.972-.63 2.446-.63 1.338 0 2.344.562 1.005.554 1.559 1.654t.554 2.718V318h-2.548v-8.02q0-1.423-.742-2.224-.741-.81-2.036-.81-.887 0-1.577.384-.682.382-1.083 1.125-.392.732-.392 1.772m22.526-5.318L498.329 318h-2.727l-4.756-13.091h2.736l3.315 10.074h.136l3.307-10.074z"/><path fill="#86efac" d="m99.301 363.679 2.404-2.412 3.946 3.878 8.752-8.719 2.421 2.412-11.173 11.114z"/><path fill="#e2e8f0" d="M149.918 371v-17.455h6.221q2.029 0 3.367.699 1.346.699 2.011 1.935.665 1.227.665 2.838 0 1.602-.673 2.821-.665 1.21-2.012 1.884-1.338.672-3.366.673h-4.713v-2.267h4.474q1.279 0 2.08-.367.809-.366 1.184-1.065.375-.7.375-1.679 0-.988-.383-1.713-.375-.724-1.185-1.108-.801-.392-2.105-.392h-3.307V371zm8.616-7.875 4.313 7.875h-3l-4.228-7.875zm12.126 8.139q-1.935 0-3.333-.826-1.39-.836-2.147-2.344-.75-1.517-.75-3.554 0-2.012.75-3.546.758-1.534 2.113-2.395 1.364-.86 3.188-.86a6.4 6.4 0 0 1 2.148.366 5.2 5.2 0 0 1 1.866 1.151q.827.783 1.304 2.037.477 1.244.477 3.025v.904H165.87v-1.91h7.909q0-1.005-.409-1.781a3.1 3.1 0 0 0-1.151-1.236q-.732-.451-1.721-.451-1.074 0-1.875.528a3.54 3.54 0 0 0-1.227 1.364 3.94 3.94 0 0 0-.427 1.815v1.492q0 1.312.461 2.233a3.33 3.33 0 0 0 1.304 1.406q.835.477 1.951.477a4 4 0 0 0 1.321-.204 2.9 2.9 0 0 0 1.032-.631q.434-.418.664-1.031l2.412.434a4.37 4.37 0 0 1-1.039 1.867q-.742.792-1.867 1.236-1.116.434-2.548.434m12.253.026q-1.244 0-2.25-.46a3.8 3.8 0 0 1-1.593-1.356q-.58-.885-.58-2.173 0-1.108.426-1.824a3.14 3.14 0 0 1 1.151-1.133 6 6 0 0 1 1.619-.631q.895-.213 1.824-.324l1.909-.221q.733-.094 1.065-.299.333-.204.333-.664v-.06q0-1.116-.631-1.73-.622-.614-1.858-.614-1.287 0-2.028.571-.733.563-1.014 1.253l-2.395-.545q.426-1.194 1.244-1.927a5.04 5.04 0 0 1 1.901-1.073 7.4 7.4 0 0 1 2.258-.341q.785 0 1.662.187a4.9 4.9 0 0 1 1.653.665q.776.486 1.27 1.389.495.895.495 2.327V371h-2.489v-1.79h-.102q-.247.495-.742.972-.494.477-1.27.792-.775.316-1.858.316m.554-2.046q1.057 0 1.807-.417.759-.418 1.151-1.091.4-.683.4-1.458v-1.687q-.137.136-.528.256a9 9 0 0 1-.878.196q-.495.076-.963.145-.47.058-.784.102a6.3 6.3 0 0 0-1.355.315 2.3 2.3 0 0 0-.972.639q-.357.41-.358 1.091 0 .946.699 1.432.7.477 1.781.477m14.815 2.02q-1.9 0-3.273-.861-1.364-.869-2.096-2.394-.733-1.526-.733-3.495 0-1.994.75-3.52.75-1.534 2.113-2.395 1.363-.86 3.213-.86 1.492 0 2.659.554a4.76 4.76 0 0 1 1.884 1.534q.725.989.861 2.309h-2.48a2.98 2.98 0 0 0-.938-1.585q-.724-.665-1.943-.665-1.065 0-1.866.563-.793.554-1.236 1.585-.444 1.023-.443 2.421 0 1.431.434 2.471.435 1.04 1.227 1.611.802.571 1.884.571.724 0 1.313-.264a2.7 2.7 0 0 0 .997-.776q.408-.502.571-1.21h2.48a4.8 4.8 0 0 1-.827 2.267q-.69.997-1.849 1.568-1.15.571-2.702.571m10.651-8.037V371h-2.548v-17.455h2.514v6.495h.162a3.77 3.77 0 0 1 1.406-1.679q.947-.622 2.472-.622 1.347 0 2.352.554 1.014.554 1.568 1.653.563 1.09.563 2.727V371h-2.548v-8.02q0-1.44-.742-2.233-.742-.801-2.062-.801-.904 0-1.62.384-.707.382-1.116 1.125-.4.732-.401 1.772m17.531 8.037q-1.934 0-3.332-.826-1.389-.836-2.148-2.344-.75-1.517-.75-3.554 0-2.012.75-3.546.76-1.534 2.114-2.395 1.364-.86 3.188-.86a6.4 6.4 0 0 1 2.147.366 5.2 5.2 0 0 1 1.867 1.151q.827.783 1.304 2.037.477 1.244.477 3.025v.904h-10.406v-1.91h7.909q0-1.005-.409-1.781a3.1 3.1 0 0 0-1.151-1.236q-.732-.451-1.721-.451-1.074 0-1.875.528a3.55 3.55 0 0 0-1.228 1.364 3.94 3.94 0 0 0-.426 1.815v1.492q0 1.312.46 2.233a3.34 3.34 0 0 0 1.304 1.406q.836.477 1.952.477.724 0 1.321-.204a2.9 2.9 0 0 0 1.031-.631q.435-.418.665-1.031l2.412.434a4.4 4.4 0 0 1-1.04 1.867q-.741.792-1.866 1.236-1.117.434-2.549.434m13.345-.008q-1.585 0-2.83-.81-1.235-.818-1.943-2.327-.699-1.516-.699-3.639t.708-3.631q.715-1.508 1.96-2.309t2.821-.801q1.218 0 1.96.409.75.4 1.159.937.418.537.648.946h.153v-6.486h2.549V371h-2.489v-2.037h-.213a6.7 6.7 0 0 1-.665.955q-.426.537-1.176.937t-1.943.401m.562-2.174q1.1 0 1.858-.579.768-.588 1.159-1.628.402-1.04.401-2.42 0-1.365-.392-2.387t-1.151-1.594q-.757-.57-1.875-.571-1.15 0-1.917.597-.768.596-1.159 1.628-.384 1.03-.384 2.327 0 1.312.392 2.36.393 1.048 1.159 1.662.776.606 1.909.605m18.461-5.855V371h-2.549v-17.455h2.515v6.495h.162a3.75 3.75 0 0 1 1.406-1.679q.945-.622 2.471-.622 1.347 0 2.353.554 1.013.554 1.568 1.653.562 1.09.562 2.727V371h-2.548v-8.02q0-1.44-.741-2.233-.742-.801-2.063-.801a3.4 3.4 0 0 0-1.619.384q-.708.382-1.117 1.125-.4.732-.4 1.772m18-5.318v2.046h-7.151v-2.046zm-5.233-3.136h2.548v12.383q0 .742.222 1.117.221.366.571.503.358.127.775.127.308 0 .537-.042l.358-.068.46 2.105a4 4 0 0 1-.63.17 5 5 0 0 1-1.023.102 4.5 4.5 0 0 1-1.875-.358 3.2 3.2 0 0 1-1.406-1.159q-.537-.784-.537-1.968zm14.162 3.136v2.046h-7.15v-2.046zm-5.233-3.136h2.549v12.383q0 .742.221 1.117.222.366.571.503.358.127.776.127.306 0 .537-.042l.358-.068.46 2.105a4 4 0 0 1-.631.17 5 5 0 0 1-1.022.102 4.5 4.5 0 0 1-1.875-.358 3.2 3.2 0 0 1-1.407-1.159q-.537-.784-.537-1.968zm8.052 21.136v-18h2.489v2.122h.213q.222-.409.639-.946t1.159-.937q.742-.41 1.96-.409 1.585 0 2.83.801t1.952 2.309q.716 1.509.716 3.631 0 2.123-.708 3.639-.707 1.51-1.943 2.327-1.236.81-2.821.81-1.193 0-1.952-.401-.75-.4-1.176-.937a7 7 0 0 1-.656-.955h-.153v6.946zm2.497-11.454q0 1.38.401 2.42.4 1.04 1.159 1.628.759.579 1.858.579 1.142 0 1.909-.605.767-.614 1.159-1.662.4-1.048.401-2.36 0-1.296-.392-2.327-.384-1.031-1.159-1.628-.768-.597-1.918-.597-1.108 0-1.875.571-.759.571-1.151 1.594-.392 1.022-.392 2.387m22.125-3.35-2.309.409a2.8 2.8 0 0 0-.46-.844 2.3 2.3 0 0 0-.836-.656q-.528-.255-1.321-.255-1.082 0-1.807.485-.724.477-.724 1.236 0 .657.486 1.057t1.568.656l2.08.477q1.806.418 2.693 1.287.886.87.886 2.259 0 1.176-.682 2.096-.673.912-1.883 1.432-1.202.52-2.787.52-2.199 0-3.588-.937-1.39-.946-1.705-2.685l2.463-.375q.23.963.946 1.457.717.486 1.867.486 1.253 0 2.003-.52.75-.528.75-1.287 0-.613-.461-1.031-.452-.417-1.389-.631l-2.216-.485q-1.832-.418-2.71-1.33-.869-.912-.869-2.31 0-1.158.647-2.028.648-.869 1.79-1.355 1.143-.495 2.617-.494 2.121 0 3.341.92 1.218.912 1.61 2.446m4.737 10.057q-.7 0-1.202-.494a1.65 1.65 0 0 1-.503-1.211q0-.699.503-1.193a1.64 1.64 0 0 1 1.202-.503q.698 0 1.202.503.502.494.502 1.193 0 .47-.238.861a1.8 1.8 0 0 1-.614.614q-.383.23-.852.23m0-9.528q-.7 0-1.202-.503a1.64 1.64 0 0 1-.503-1.202q0-.7.503-1.193a1.64 1.64 0 0 1 1.202-.503q.698 0 1.202.503.502.494.502 1.193 0 .468-.238.861-.23.383-.614.613-.383.231-.852.231m11.766-8.907-5.625 20.898h-2.276l5.625-20.898zm8.812 0-5.625 20.898h-2.276l5.625-20.898zM340.682 371v-13.091h2.446v2.131h.162a3.4 3.4 0 0 1 1.338-1.688q.929-.613 2.224-.613 1.313 0 2.199.613.895.614 1.321 1.688h.137a3.7 3.7 0 0 1 1.491-1.671q1.023-.63 2.438-.63 1.78 0 2.906 1.116 1.133 1.117 1.133 3.367V371h-2.548v-8.54q0-1.329-.724-1.926t-1.731-.596q-1.244 0-1.934.767-.69.758-.691 1.951V371h-2.539v-8.702q0-1.065-.665-1.713t-1.73-.647q-.724 0-1.338.383-.606.375-.98 1.048-.367.673-.367 1.56V371zm26.725.264q-1.9 0-3.273-.861-1.364-.869-2.096-2.394-.733-1.526-.733-3.495 0-1.994.75-3.52.75-1.534 2.113-2.395 1.363-.86 3.213-.86 1.492 0 2.659.554a4.76 4.76 0 0 1 1.884 1.534q.725.989.861 2.309h-2.48a2.98 2.98 0 0 0-.938-1.585q-.724-.665-1.943-.665-1.065 0-1.866.563-.793.554-1.236 1.585-.443 1.023-.443 2.421 0 1.431.434 2.471.435 1.04 1.227 1.611.802.571 1.884.571.724 0 1.313-.264a2.7 2.7 0 0 0 .997-.776q.409-.502.571-1.21h2.48a4.8 4.8 0 0 1-.827 2.267q-.69.997-1.849 1.568-1.15.571-2.702.571m8.103 4.645v-18h2.489v2.122h.213a7 7 0 0 1 .639-.946q.418-.537 1.159-.937.742-.41 1.96-.409 1.585 0 2.83.801 1.244.801 1.951 2.309.716 1.509.716 3.631 0 2.123-.707 3.639-.708 1.51-1.943 2.327-1.236.81-2.821.81-1.194 0-1.952-.401-.75-.4-1.176-.937a7 7 0 0 1-.656-.955h-.154v6.946zm2.497-11.454q0 1.38.401 2.42.4 1.04 1.159 1.628.758.579 1.858.579 1.141 0 1.909-.605.767-.614 1.159-1.662.4-1.048.4-2.36 0-1.296-.392-2.327-.383-1.031-1.159-1.628-.766-.597-1.917-.597-1.108 0-1.875.571-.758.571-1.151 1.594-.392 1.022-.392 2.387m14.864-1.228V371h-2.549v-17.455h2.515v6.495h.162a3.75 3.75 0 0 1 1.406-1.679q.946-.622 2.471-.622 1.347 0 2.353.554 1.014.554 1.568 1.653.562 1.09.562 2.727V371h-2.548v-8.02q0-1.44-.741-2.233-.742-.801-2.063-.801a3.4 3.4 0 0 0-1.619.384q-.708.382-1.117 1.125-.4.732-.4 1.772m20.182 2.344v-7.662h2.556V371h-2.505v-2.267h-.137q-.452 1.048-1.449 1.747-.988.69-2.463.69-1.261 0-2.233-.554-.962-.562-1.517-1.661-.545-1.1-.545-2.719v-8.327h2.548v8.02q0 1.338.742 2.131.741.792 1.926.792.716 0 1.423-.358a3 3 0 0 0 1.185-1.082q.477-.725.469-1.841m6.185 5.429v-17.455h2.548v6.486h.154a7 7 0 0 1 .639-.946q.418-.537 1.159-.937.742-.41 1.96-.409 1.585 0 2.83.801 1.244.801 1.951 2.309.717 1.509.716 3.631 0 2.123-.707 3.639-.708 1.51-1.943 2.327-1.236.81-2.821.81-1.193 0-1.952-.401-.75-.4-1.176-.937a7 7 0 0 1-.656-.955h-.213V371zm2.497-6.545q0 1.38.401 2.42.4 1.04 1.159 1.628.758.579 1.858.579 1.141 0 1.909-.605.767-.614 1.159-1.662.4-1.048.4-2.36 0-1.296-.392-2.327-.383-1.031-1.159-1.628-.767-.597-1.917-.597-1.108 0-1.875.571-.76.571-1.151 1.594-.392 1.022-.392 2.387m20.035-1.935v2.207h-7.739v-2.207zm3.396 8.48v-13.091h2.548V371zm1.287-15.111q-.665 0-1.142-.443a1.44 1.44 0 0 1-.469-1.074q0-.63.469-1.074a1.6 1.6 0 0 1 1.142-.451q.665 0 1.134.451.477.444.477 1.074 0 .623-.477 1.074a1.6 1.6 0 0 1-1.134.443m7.238 7.338V371h-2.548v-13.091h2.446v2.131h.162a3.75 3.75 0 0 1 1.414-1.671q.972-.63 2.447-.63 1.338 0 2.343.562 1.007.554 1.56 1.654t.554 2.718V371h-2.548v-8.02q0-1.423-.742-2.224-.741-.81-2.037-.81-.886 0-1.577.384-.681.382-1.082 1.125-.392.732-.392 1.772m21.605-2.122-2.309.409a2.7 2.7 0 0 0-.461-.844 2.3 2.3 0 0 0-.835-.656q-.528-.255-1.321-.255-1.083 0-1.807.485-.724.477-.724 1.236 0 .657.486 1.057.485.4 1.568.656l2.079.477q1.808.418 2.693 1.287.887.87.887 2.259 0 1.176-.682 2.096-.674.912-1.883 1.432-1.203.52-2.787.52-2.199 0-3.588-.937-1.39-.946-1.705-2.685l2.463-.375q.23.963.946 1.457.715.486 1.867.486 1.252 0 2.002-.52.75-.528.75-1.287 0-.613-.46-1.031-.452-.417-1.389-.631l-2.216-.485q-1.833-.418-2.71-1.33-.87-.912-.87-2.31 0-1.158.648-2.028.648-.869 1.79-1.355 1.142-.495 2.616-.494 2.123 0 3.341.92 1.22.912 1.611 2.446m9.168-3.196v2.046h-7.15v-2.046zm-5.232-3.136h2.548v12.383q0 .742.221 1.117.222.366.571.503.359.127.776.127.308 0 .537-.042l.358-.068.46 2.105a4 4 0 0 1-.631.17 5 5 0 0 1-1.022.102 4.5 4.5 0 0 1-1.875-.358 3.2 3.2 0 0 1-1.407-1.159q-.536-.784-.536-1.968zm11.861 16.517q-1.245 0-2.25-.46a3.8 3.8 0 0 1-1.594-1.356q-.579-.885-.579-2.173 0-1.108.426-1.824a3.14 3.14 0 0 1 1.15-1.133 6 6 0 0 1 1.62-.631q.894-.213 1.824-.324l1.909-.221q.732-.094 1.065-.299.332-.204.332-.664v-.06q0-1.116-.63-1.73-.622-.614-1.858-.614-1.287 0-2.029.571-.732.563-1.014 1.253l-2.395-.545q.426-1.194 1.245-1.927a5 5 0 0 1 1.9-1.073 7.4 7.4 0 0 1 2.259-.341q.783 0 1.662.187a4.9 4.9 0 0 1 1.653.665q.775.486 1.27 1.389.494.895.494 2.327V371h-2.488v-1.79h-.103a3.6 3.6 0 0 1-.741.972q-.495.477-1.27.792t-1.858.316m.554-2.046q1.057 0 1.807-.417.759-.418 1.15-1.091.4-.683.401-1.458v-1.687q-.137.136-.528.256a9 9 0 0 1-.878.196q-.495.076-.963.145-.47.058-.784.102a6.3 6.3 0 0 0-1.356.315 2.33 2.33 0 0 0-.971.639q-.358.41-.358 1.091 0 .946.699 1.432.699.477 1.781.477m11.849-6.017V371h-2.549v-13.091h2.446v2.131h.162a3.75 3.75 0 0 1 1.415-1.671q.972-.63 2.446-.63 1.338 0 2.344.562 1.005.554 1.56 1.654.554 1.099.554 2.718V371h-2.549v-8.02q0-1.423-.741-2.224-.742-.81-2.037-.81-.887 0-1.577.384-.681.382-1.082 1.125-.392.732-.392 1.772m17.309 8.037q-1.9 0-3.272-.861-1.364-.869-2.097-2.394t-.733-3.495q0-1.994.75-3.52.75-1.534 2.114-2.395 1.363-.86 3.213-.86 1.492 0 2.659.554a4.76 4.76 0 0 1 1.883 1.534q.724.989.861 2.309h-2.48a2.97 2.97 0 0 0-.937-1.585q-.724-.665-1.944-.665-1.065 0-1.866.563-.792.554-1.236 1.585-.443 1.023-.443 2.421 0 1.431.435 2.471.434 1.04 1.227 1.611.801.571 1.883.571.725 0 1.313-.264.597-.273.997-.776a2.9 2.9 0 0 0 .571-1.21h2.48a4.8 4.8 0 0 1-.826 2.267 4.76 4.76 0 0 1-1.85 1.568q-1.15.571-2.702.571m13.745 0q-1.934 0-3.332-.826-1.389-.836-2.148-2.344-.75-1.517-.75-3.554 0-2.012.75-3.546.76-1.534 2.114-2.395 1.364-.86 3.187-.86 1.108 0 2.148.366a5.2 5.2 0 0 1 1.867 1.151q.826.783 1.304 2.037.477 1.244.477 3.025v.904h-10.406v-1.91h7.909q0-1.005-.409-1.781a3.1 3.1 0 0 0-1.151-1.236q-.733-.451-1.722-.451-1.073 0-1.875.528a3.55 3.55 0 0 0-1.227 1.364 3.94 3.94 0 0 0-.426 1.815v1.492q0 1.312.46 2.233.469.92 1.304 1.406.836.477 1.952.477.724 0 1.321-.204a2.9 2.9 0 0 0 1.031-.631q.435-.418.665-1.031l2.412.434a4.4 4.4 0 0 1-1.04 1.867q-.741.792-1.866 1.236-1.117.434-2.549.434m10.123-.102q-.699 0-1.201-.494a1.65 1.65 0 0 1-.503-1.211q0-.699.503-1.193a1.64 1.64 0 0 1 1.201-.503q.7 0 1.202.503.503.494.503 1.193 0 .47-.239.861-.23.383-.613.614a1.63 1.63 0 0 1-.853.23m10.632.102q-1.9 0-3.272-.861-1.364-.869-2.097-2.394t-.733-3.495q0-1.994.75-3.52.75-1.534 2.114-2.395 1.363-.86 3.213-.86 1.492 0 2.659.554a4.76 4.76 0 0 1 1.883 1.534q.724.989.861 2.309h-2.48a2.97 2.97 0 0 0-.937-1.585q-.724-.665-1.944-.665-1.065 0-1.866.563-.792.554-1.236 1.585-.443 1.023-.443 2.421 0 1.431.435 2.471.434 1.04 1.227 1.611.801.571 1.883.571.725 0 1.313-.264.597-.273.997-.776a2.9 2.9 0 0 0 .571-1.21h2.48a4.8 4.8 0 0 1-.826 2.267 4.76 4.76 0 0 1-1.85 1.568q-1.15.571-2.702.571m13.618 0q-1.842 0-3.213-.844-1.372-.843-2.131-2.36-.759-1.518-.759-3.546 0-2.037.759-3.562t2.131-2.37q1.371-.843 3.213-.843 1.84 0 3.213.843 1.372.845 2.13 2.37.759 1.525.759 3.562 0 2.028-.759 3.546-.758 1.517-2.13 2.36-1.372.844-3.213.844m.008-2.139q1.194 0 1.977-.631.784-.63 1.159-1.679.384-1.048.384-2.309 0-1.254-.384-2.301-.375-1.057-1.159-1.696-.783-.64-1.977-.64-1.202 0-1.994.64-.784.639-1.168 1.696a6.8 6.8 0 0 0-.375 2.301q0 1.261.375 2.309.384 1.049 1.168 1.679.792.631 1.994.631m8.938 1.875v-13.091h2.446v2.131h.162a3.4 3.4 0 0 1 1.338-1.688q.93-.613 2.225-.613 1.313 0 2.199.613.894.614 1.321 1.688h.136a3.7 3.7 0 0 1 1.492-1.671q1.022-.63 2.437-.63 1.78 0 2.906 1.116 1.134 1.117 1.134 3.367V371h-2.549v-8.54q0-1.329-.724-1.926-.725-.597-1.73-.596-1.244 0-1.935.767-.69.758-.69 1.951V371h-2.54v-8.702q0-1.065-.665-1.713-.664-.648-1.73-.647-.724 0-1.338.383-.605.375-.98 1.048-.366.673-.366 1.56V371zm31.372.29q-1.243 0-2.25-.46a3.8 3.8 0 0 1-1.593-1.356q-.58-.885-.58-2.173 0-1.108.426-1.824a3.14 3.14 0 0 1 1.151-1.133 6 6 0 0 1 1.619-.631q.895-.213 1.824-.324l1.909-.221q.734-.094 1.065-.299.333-.204.333-.664v-.06q0-1.116-.631-1.73-.622-.614-1.858-.614-1.287 0-2.028.571-.734.563-1.014 1.253l-2.395-.545q.426-1.194 1.244-1.927a5.04 5.04 0 0 1 1.901-1.073 7.4 7.4 0 0 1 2.258-.341q.784 0 1.662.187a4.9 4.9 0 0 1 1.654.665q.776.486 1.269 1.389.495.895.495 2.327V371h-2.489v-1.79h-.102q-.247.495-.742.972-.494.477-1.27.792-.775.316-1.858.316m.554-2.046q1.057 0 1.807-.417.759-.418 1.151-1.091.4-.683.4-1.458v-1.687q-.136.136-.528.256a9 9 0 0 1-.878.196q-.493.076-.963.145a64 64 0 0 0-.784.102 6.3 6.3 0 0 0-1.355.315 2.34 2.34 0 0 0-.972.639q-.358.41-.358 1.091 0 .946.699 1.432.7.477 1.781.477m11.849-6.017V371h-2.548v-13.091h2.446v2.131h.162a3.75 3.75 0 0 1 1.415-1.671q.971-.63 2.446-.63 1.338 0 2.343.562 1.007.554 1.56 1.654t.554 2.718V371h-2.548v-8.02q0-1.423-.742-2.224-.741-.81-2.037-.81-.886 0-1.576.384-.683.382-1.083 1.125-.392.732-.392 1.772m16.696 8.029q-1.586 0-2.829-.81-1.236-.818-1.944-2.327-.698-1.516-.698-3.639t.707-3.631q.716-1.508 1.96-2.309 1.245-.801 2.821-.801 1.22 0 1.96.409.75.4 1.16.937.417.537.647.946h.154v-6.486h2.548V371h-2.489v-2.037h-.213a7 7 0 0 1-.664.955q-.427.537-1.177.937t-1.943.401m.563-2.174q1.1 0 1.858-.579.766-.588 1.159-1.628.4-1.04.4-2.42 0-1.365-.392-2.387t-1.15-1.594q-.759-.57-1.875-.571-1.151 0-1.918.597-.767.596-1.159 1.628-.384 1.03-.384 2.327 0 1.312.393 2.36.391 1.048 1.159 1.662.775.606 1.909.605m20.812 2.174q-1.586 0-2.829-.81-1.236-.818-1.944-2.327-.698-1.516-.698-3.639t.707-3.631q.716-1.508 1.96-2.309 1.245-.801 2.821-.801 1.22 0 1.96.409.75.4 1.16.937.417.537.647.946h.154v-6.486h2.548V371h-2.489v-2.037h-.213a7 7 0 0 1-.664.955q-.427.537-1.177.937t-1.943.401m.563-2.174q1.1 0 1.858-.579.766-.588 1.159-1.628.4-1.04.4-2.42 0-1.365-.392-2.387t-1.15-1.594q-.759-.57-1.875-.571-1.151 0-1.918.597-.767.596-1.159 1.628-.384 1.03-.384 2.327 0 1.312.393 2.36.391 1.048 1.159 1.662.775.606 1.909.605m15.202 2.182q-1.934 0-3.332-.826-1.389-.836-2.148-2.344-.75-1.517-.75-3.554 0-2.012.75-3.546.759-1.534 2.114-2.395 1.363-.86 3.187-.86 1.109 0 2.148.366a5.2 5.2 0 0 1 1.866 1.151q.827.783 1.304 2.037.478 1.244.478 3.025v.904H670.69v-1.91h7.909q0-1.005-.409-1.781a3.1 3.1 0 0 0-1.15-1.236q-.734-.451-1.722-.451-1.074 0-1.875.528a3.55 3.55 0 0 0-1.227 1.364 3.94 3.94 0 0 0-.426 1.815v1.492q0 1.312.46 2.233a3.33 3.33 0 0 0 1.304 1.406q.835.477 1.952.477.724 0 1.321-.204a2.9 2.9 0 0 0 1.031-.631 2.75 2.75 0 0 0 .665-1.031l2.412.434a4.4 4.4 0 0 1-1.04 1.867q-.741.792-1.867 1.236-1.116.434-2.548.434m14.555-13.355v2.046h-7.151v-2.046zm-5.233-3.136h2.548v12.383q0 .742.222 1.117.221.366.571.503.357.127.775.127.308 0 .537-.042l.358-.068.46 2.105a4 4 0 0 1-.63.17 5 5 0 0 1-1.023.102 4.5 4.5 0 0 1-1.875-.358 3.2 3.2 0 0 1-1.406-1.159q-.537-.784-.537-1.968zm13.553 16.491q-1.934 0-3.332-.826-1.389-.836-2.148-2.344-.75-1.517-.75-3.554 0-2.012.75-3.546.759-1.534 2.114-2.395 1.363-.86 3.187-.86 1.109 0 2.148.366a5.2 5.2 0 0 1 1.866 1.151q.827.783 1.304 2.037.478 1.244.478 3.025v.904h-10.407v-1.91h7.909q0-1.005-.409-1.781a3.1 3.1 0 0 0-1.15-1.236q-.734-.451-1.722-.451-1.074 0-1.875.528a3.55 3.55 0 0 0-1.227 1.364 3.94 3.94 0 0 0-.426 1.815v1.492q0 1.312.46 2.233.469.92 1.304 1.406.835.477 1.952.477.724 0 1.321-.204a2.9 2.9 0 0 0 1.031-.631 2.75 2.75 0 0 0 .665-1.031l2.412.434a4.4 4.4 0 0 1-1.04 1.867q-.742.792-1.867 1.236-1.116.434-2.548.434m13.958 0q-1.9 0-3.273-.861-1.363-.869-2.096-2.394t-.733-3.495q0-1.994.75-3.52.75-1.534 2.114-2.395 1.363-.86 3.213-.86 1.49 0 2.659.554a4.76 4.76 0 0 1 1.883 1.534q.724.989.861 2.309h-2.48a2.97 2.97 0 0 0-.938-1.585q-.724-.665-1.943-.665-1.065 0-1.866.563-.793.554-1.236 1.585-.443 1.023-.443 2.421 0 1.431.434 2.471.435 1.04 1.228 1.611.801.571 1.883.571.725 0 1.313-.264a2.7 2.7 0 0 0 .997-.776 2.9 2.9 0 0 0 .571-1.21h2.48a4.8 4.8 0 0 1-.827 2.267q-.69.997-1.849 1.568-1.15.571-2.702.571m14.214-13.355v2.046h-7.151v-2.046zm-5.233-3.136h2.548v12.383q0 .742.222 1.117.222.366.571.503.358.127.776.127.306 0 .536-.042l.358-.068.461 2.105a4 4 0 0 1-.631.17 5 5 0 0 1-1.023.102 4.5 4.5 0 0 1-1.875-.358 3.2 3.2 0 0 1-1.406-1.159q-.537-.784-.537-1.968zm13.553 16.491q-1.934 0-3.332-.826-1.389-.836-2.148-2.344-.75-1.517-.75-3.554 0-2.012.75-3.546.758-1.534 2.114-2.395 1.363-.86 3.187-.86 1.108 0 2.148.366a5.2 5.2 0 0 1 1.867 1.151q.826.783 1.304 2.037.477 1.244.477 3.025v.904h-10.406v-1.91h7.909q0-1.005-.409-1.781a3.1 3.1 0 0 0-1.151-1.236q-.734-.451-1.722-.451-1.074 0-1.875.528a3.55 3.55 0 0 0-1.227 1.364 3.94 3.94 0 0 0-.426 1.815v1.492q0 1.312.46 2.233.469.92 1.304 1.406.836.477 1.952.477.724 0 1.321-.204a2.9 2.9 0 0 0 1.031-.631q.435-.418.665-1.031l2.412.434a4.4 4.4 0 0 1-1.04 1.867q-.741.792-1.866 1.236-1.117.434-2.549.434m13.345-.008q-1.585 0-2.83-.81-1.236-.818-1.943-2.327-.699-1.516-.699-3.639t.708-3.631q.715-1.508 1.96-2.309 1.244-.801 2.821-.801 1.219 0 1.96.409.75.4 1.159.937.418.537.648.946h.153v-6.486h2.549V371h-2.489v-2.037h-.213a7 7 0 0 1-.665.955q-.426.537-1.176.937t-1.943.401m.562-2.174q1.1 0 1.858-.579.768-.588 1.159-1.628.4-1.04.401-2.42 0-1.365-.392-2.387t-1.151-1.594q-.757-.57-1.875-.571-1.15 0-1.917.597-.768.596-1.159 1.628-.384 1.03-.384 2.327 0 1.312.392 2.36t1.159 1.662q.776.606 1.909.605m16.117-15.537h3.196l5.557 13.569h.204l5.557-13.569h3.196V371h-2.506v-12.631h-.162l-5.147 12.605h-2.08l-5.148-12.613h-.162V371h-2.505zm36.036 5.677h-2.659a4.06 4.06 0 0 0-1.594-2.6 4.4 4.4 0 0 0-1.355-.682 5.3 5.3 0 0 0-1.577-.23q-1.508 0-2.701.759-1.185.758-1.875 2.224-.682 1.466-.682 3.58 0 2.13.682 3.596.69 1.466 1.883 2.216t2.685.75q.827 0 1.568-.221.75-.23 1.355-.674a4.083 4.083 0 0 0 1.611-2.565l2.659.009a7.1 7.1 0 0 1-.827 2.369 6.5 6.5 0 0 1-1.559 1.858 7 7 0 0 1-2.165 1.201q-1.22.427-2.659.427-2.267 0-4.04-1.074-1.773-1.083-2.795-3.094-1.015-2.011-1.015-4.798 0-2.796 1.023-4.799 1.023-2.01 2.795-3.085 1.773-1.082 4.032-1.082 1.39 0 2.591.4a6.9 6.9 0 0 1 2.173 1.159 6.4 6.4 0 0 1 1.594 1.858q.63 1.091.852 2.498M804.058 371v-17.455h6.222q2.037 0 3.375.742 1.338.741 2.003 2.028.664 1.28.664 2.881 0 1.611-.673 2.898-.664 1.278-2.011 2.028-1.338.742-3.367.742h-4.278v-2.233h4.04q1.287 0 2.088-.443a2.8 2.8 0 0 0 1.176-1.228q.375-.776.375-1.764t-.375-1.756q-.375-.767-1.185-1.201-.8-.435-2.113-.435h-3.307V371zm15.352 0v-17.455h2.633v7.586h8.702v-7.586h2.642V371h-2.642v-7.611h-8.702V371zm25.9-5.429v-7.662h2.557V371h-2.505v-2.267h-.137q-.452 1.048-1.449 1.747-.989.69-2.463.69-1.261 0-2.233-.554-.963-.562-1.517-1.661-.545-1.1-.545-2.719v-8.327h2.548v8.02q0 1.338.742 2.131.741.792 1.926.792.715 0 1.423-.358a3 3 0 0 0 1.185-1.082q.477-.725.468-1.841m6.186 5.429v-17.455h2.548v6.486h.153q.222-.409.64-.946.417-.537 1.159-.937.74-.41 1.96-.409 1.585 0 2.83.801 1.244.801 1.951 2.309.716 1.509.716 3.631 0 2.123-.707 3.639-.708 1.51-1.943 2.327-1.236.81-2.821.81-1.194 0-1.952-.401-.75-.4-1.176-.937a7 7 0 0 1-.657-.955h-.213V371zm2.497-6.545q0 1.38.4 2.42.402 1.04 1.16 1.628.758.579 1.858.579 1.141 0 1.909-.605.766-.614 1.159-1.662.4-1.048.4-2.36 0-1.296-.392-2.327-.383-1.031-1.159-1.628-.766-.597-1.917-.597-1.109 0-1.875.571-.76.571-1.151 1.594-.392 1.022-.392 2.387m25.261-10.91V371h-2.642v-14.812h-.102l-4.176 2.727v-2.523l4.355-2.847zm5.427 17.617q-.698 0-1.202-.494a1.65 1.65 0 0 1-.502-1.211q0-.699.502-1.193a1.64 1.64 0 0 1 1.202-.503q.7 0 1.202.503.503.494.503 1.193 0 .47-.239.861-.23.383-.614.614-.383.23-.852.23m10.528.128q-2.02-.009-3.452-1.066-1.432-1.056-2.19-3.076-.759-2.02-.759-4.867 0-2.838.759-4.849.766-2.012 2.199-3.068 1.44-1.057 3.443-1.057t3.434 1.065q1.432 1.057 2.191 3.068.767 2.003.767 4.841 0 2.856-.759 4.875-.758 2.012-2.19 3.077-1.432 1.057-3.443 1.057m0-2.276q1.773 0 2.77-1.73 1.005-1.73 1.005-5.003 0-2.173-.46-3.673-.452-1.509-1.304-2.284a2.85 2.85 0 0 0-2.011-.784q-1.764 0-2.77 1.738-1.007 1.739-1.014 5.003 0 2.182.451 3.691.46 1.5 1.304 2.275.844.767 2.029.767m10.496 2.148q-.7 0-1.202-.494a1.65 1.65 0 0 1-.503-1.211q0-.699.503-1.193a1.64 1.64 0 0 1 1.202-.503q.698 0 1.201.503.503.494.503 1.193 0 .47-.239.861-.23.383-.613.614a1.63 1.63 0 0 1-.852.23m9.596-17.617V371h-2.642v-14.812h-.102l-4.176 2.727v-2.523l4.355-2.847zm10.815 17.694a7 7 0 0 1-2.301-.427q-1.125-.409-2.045-1.363-.92-.955-1.475-2.565-.545-1.611-.545-4.023 0-2.284.452-4.057.46-1.773 1.321-2.992.861-1.227 2.079-1.866 1.22-.639 2.736-.639 1.56 0 2.77.613 1.21.615 1.96 1.696a5.7 5.7 0 0 1 .963 2.464h-2.599q-.264-1.091-1.048-1.782-.784-.69-2.046-.69-1.917 0-2.991 1.67-1.067 1.67-1.074 4.645h.128q.451-.74 1.108-1.261a5 5 0 0 1 1.482-.81 5.2 5.2 0 0 1 1.739-.29q1.517 0 2.744.742a5.4 5.4 0 0 1 1.969 2.028q.733 1.296.733 2.966t-.758 3.026a5.57 5.57 0 0 1-2.114 2.148q-1.364.783-3.188.767m-.008-2.216q1.005 0 1.798-.495a3.56 3.56 0 0 0 1.253-1.329q.46-.835.46-1.867 0-1.005-.451-1.832a3.4 3.4 0 0 0-1.228-1.312q-.776-.486-1.772-.486a3.4 3.4 0 0 0-1.407.289 3.6 3.6 0 0 0-1.125.802 3.9 3.9 0 0 0-.767 1.176q-.272.656-.272 1.389 0 .98.451 1.815a3.7 3.7 0 0 0 1.253 1.347 3.33 3.33 0 0 0 1.807.503"/><path fill="#86efac" d="m99.301 416.679 2.404-2.412 3.946 3.878 8.752-8.719 2.421 2.412-11.173 11.114z"/><path fill="#e2e8f0" d="M151.392 424h-2.795l6.281-17.455h3.042L164.202 424h-2.796l-4.934-14.284h-.137zm.469-6.835h9.068v2.216h-9.068zm22.949 1.406v-7.662h2.557V424h-2.505v-2.267h-.137q-.451 1.048-1.449 1.747-.988.69-2.463.69-1.261 0-2.233-.554-.962-.562-1.517-1.661-.545-1.1-.545-2.719v-8.327h2.548v8.02q0 1.338.742 2.131.741.792 1.926.792.715 0 1.423-.358a3 3 0 0 0 1.185-1.082q.477-.725.468-1.841m12.092-7.662v2.046h-7.151v-2.046zm-5.233-3.136h2.548v12.383q0 .742.222 1.117.222.366.571.503.358.127.776.127.306 0 .536-.042l.358-.068.461 2.105a4 4 0 0 1-.631.17 5 5 0 0 1-1.023.102 4.5 4.5 0 0 1-1.875-.358 3.2 3.2 0 0 1-1.406-1.159q-.537-.784-.537-1.968zm10.881 8.454V424h-2.548v-17.455h2.514v6.495h.162a3.76 3.76 0 0 1 1.407-1.679q.945-.622 2.471-.622 1.347 0 2.352.554 1.015.554 1.569 1.653.562 1.09.562 2.727V424h-2.548v-8.02q0-1.44-.742-2.233-.742-.801-2.062-.801-.903 0-1.62.384-.707.382-1.116 1.125-.4.732-.401 1.772m17.532 8.037q-1.935 0-3.333-.826-1.39-.836-2.147-2.344-.75-1.517-.75-3.554 0-2.012.75-3.546.758-1.534 2.113-2.395 1.364-.86 3.188-.86a6.4 6.4 0 0 1 2.147.366 5.2 5.2 0 0 1 1.867 1.151q.827.783 1.304 2.037.477 1.244.477 3.025v.904h-10.406v-1.91h7.909q0-1.005-.409-1.781a3.1 3.1 0 0 0-1.151-1.236q-.732-.451-1.721-.451-1.074 0-1.875.528a3.55 3.55 0 0 0-1.228 1.364 3.94 3.94 0 0 0-.426 1.815v1.492q0 1.312.461 2.233a3.33 3.33 0 0 0 1.304 1.406q.834.477 1.951.477a4 4 0 0 0 1.321-.204 2.9 2.9 0 0 0 1.032-.631q.434-.418.664-1.031l2.412.434a4.4 4.4 0 0 1-1.04 1.867q-.741.792-1.866 1.236-1.117.434-2.548.434m10.992-8.037V424h-2.548v-13.091h2.446v2.131h.162a3.75 3.75 0 0 1 1.414-1.671q.972-.63 2.446-.63 1.339 0 2.344.562 1.006.554 1.56 1.654t.554 2.718V424h-2.549v-8.02q0-1.423-.741-2.224-.741-.81-2.037-.81-.886 0-1.577.384-.681.382-1.082 1.125-.392.732-.392 1.772m17.906-5.318v2.046h-7.15v-2.046zm-5.233-3.136h2.548v12.383q0 .742.222 1.117.222.366.571.503.358.127.776.127.306 0 .537-.042l.358-.068.46 2.105a4 4 0 0 1-.631.17 5 5 0 0 1-1.023.102 4.5 4.5 0 0 1-1.875-.358 3.2 3.2 0 0 1-1.406-1.159q-.537-.784-.537-1.968zM241.799 424v-13.091h2.548V424zm1.287-15.111q-.665 0-1.142-.443a1.44 1.44 0 0 1-.469-1.074q0-.63.469-1.074a1.6 1.6 0 0 1 1.142-.451q.665 0 1.133.451.478.444.478 1.074 0 .623-.478 1.074a1.6 1.6 0 0 1-1.133.443m10.204 15.375q-1.9 0-3.273-.861-1.363-.869-2.097-2.394-.732-1.526-.732-3.495 0-1.994.75-3.52.75-1.534 2.113-2.395 1.363-.86 3.213-.86 1.492 0 2.659.554a4.76 4.76 0 0 1 1.884 1.534q.725.989.861 2.309h-2.48a2.98 2.98 0 0 0-.938-1.585q-.725-.665-1.943-.665-1.066 0-1.867.563-.792.554-1.235 1.585-.444 1.023-.444 2.421 0 1.431.435 2.471t1.227 1.611q.801.571 1.884.571.724 0 1.312-.264.597-.273.997-.776a2.9 2.9 0 0 0 .572-1.21h2.48a4.8 4.8 0 0 1-.827 2.267q-.69.997-1.85 1.568-1.15.571-2.701.571m11.912.026q-1.244 0-2.25-.46a3.8 3.8 0 0 1-1.593-1.356q-.58-.885-.58-2.173 0-1.108.426-1.824a3.14 3.14 0 0 1 1.151-1.133 6 6 0 0 1 1.619-.631q.895-.213 1.824-.324l1.909-.221q.733-.094 1.065-.299.333-.204.333-.664v-.06q0-1.116-.631-1.73-.622-.614-1.858-.614-1.287 0-2.028.571-.733.563-1.014 1.253l-2.395-.545q.426-1.194 1.244-1.927a5.04 5.04 0 0 1 1.901-1.073 7.4 7.4 0 0 1 2.258-.341q.785 0 1.662.187a4.9 4.9 0 0 1 1.653.665q.776.486 1.27 1.389.495.895.495 2.327V424h-2.489v-1.79h-.102q-.247.495-.742.972-.494.477-1.27.792-.775.316-1.858.316m.554-2.046q1.057 0 1.807-.417.759-.418 1.151-1.091.4-.683.4-1.458v-1.687q-.137.136-.528.256a9 9 0 0 1-.878.196q-.493.076-.963.145a64 64 0 0 0-.784.102 6.3 6.3 0 0 0-1.355.315 2.34 2.34 0 0 0-.972.639q-.358.41-.358 1.091 0 .946.699 1.432.7.477 1.781.477m15.412-11.335v2.046h-7.151v-2.046zm-5.233-3.136h2.548v12.383q0 .742.222 1.117.221.366.571.503.358.127.775.127.308 0 .537-.042l.358-.068.46 2.105a4 4 0 0 1-.63.17 5 5 0 0 1-1.023.102 4.5 4.5 0 0 1-1.875-.358 3.2 3.2 0 0 1-1.406-1.159q-.537-.784-.537-1.968zm13.553 16.491q-1.935 0-3.332-.826-1.39-.836-2.148-2.344-.75-1.517-.75-3.554 0-2.012.75-3.546.758-1.534 2.113-2.395 1.365-.86 3.188-.86 1.108 0 2.148.366a5.2 5.2 0 0 1 1.866 1.151q.827.783 1.304 2.037.477 1.244.477 3.025v.904h-10.406v-1.91h7.909q0-1.005-.409-1.781a3.1 3.1 0 0 0-1.15-1.236q-.733-.451-1.722-.451-1.074 0-1.875.528a3.54 3.54 0 0 0-1.227 1.364 3.94 3.94 0 0 0-.426 1.815v1.492q0 1.312.46 2.233a3.33 3.33 0 0 0 1.304 1.406q.835.477 1.951.477a4 4 0 0 0 1.322-.204 2.9 2.9 0 0 0 1.031-.631 2.75 2.75 0 0 0 .665-1.031l2.411.434a4.37 4.37 0 0 1-1.039 1.867q-.742.792-1.867 1.236-1.117.434-2.548.434m13.344-.008q-1.585 0-2.829-.81-1.236-.818-1.943-2.327-.699-1.516-.699-3.639t.707-3.631q.716-1.508 1.96-2.309 1.245-.801 2.821-.801 1.219 0 1.961.409.75.4 1.159.937.417.537.647.946h.154v-6.486h2.548V424h-2.488v-2.037h-.214a7 7 0 0 1-.664.955q-.426.537-1.176.937t-1.944.401m.563-2.174q1.1 0 1.858-.579.767-.588 1.159-1.628.4-1.04.4-2.42 0-1.365-.392-2.387-.391-1.023-1.15-1.594-.759-.57-1.875-.571-1.15 0-1.918.597-.766.596-1.159 1.628-.383 1.03-.383 2.327 0 1.312.392 2.36.391 1.048 1.159 1.662.775.606 1.909.605M319.307 424v-13.091h2.446v2.131h.162a3.4 3.4 0 0 1 1.338-1.688q.929-.613 2.224-.613 1.313 0 2.199.613.895.614 1.321 1.688h.137a3.7 3.7 0 0 1 1.491-1.671q1.023-.63 2.437-.63 1.782 0 2.907 1.116 1.133 1.117 1.133 3.367V424h-2.548v-8.54q0-1.329-.724-1.926t-1.731-.596q-1.244 0-1.934.767-.69.758-.691 1.951V424h-2.539v-8.702q0-1.065-.665-1.713t-1.73-.647q-.724 0-1.338.383-.606.375-.98 1.048-.367.673-.367 1.56V424zm25.02.29q-1.244 0-2.25-.46a3.8 3.8 0 0 1-1.593-1.356q-.58-.885-.58-2.173 0-1.108.426-1.824a3.14 3.14 0 0 1 1.151-1.133 6 6 0 0 1 1.619-.631q.895-.213 1.824-.324l1.909-.221q.733-.094 1.065-.299.333-.204.333-.664v-.06q0-1.116-.631-1.73-.622-.614-1.858-.614-1.287 0-2.028.571-.733.563-1.014 1.253l-2.395-.545q.426-1.194 1.244-1.927a5.04 5.04 0 0 1 1.901-1.073 7.4 7.4 0 0 1 2.258-.341q.785 0 1.662.187a4.9 4.9 0 0 1 1.653.665q.776.486 1.27 1.389.495.895.495 2.327V424h-2.489v-1.79h-.102q-.247.495-.742.972-.494.477-1.27.792-.775.316-1.858.316m.554-2.046q1.057 0 1.807-.417.759-.418 1.151-1.091.4-.683.4-1.458v-1.687q-.137.136-.528.256a9 9 0 0 1-.878.196q-.493.076-.963.145a64 64 0 0 0-.784.102 6.3 6.3 0 0 0-1.355.315 2.34 2.34 0 0 0-.972.639q-.358.41-.358 1.091 0 .946.699 1.432.7.477 1.781.477m11.849-6.017V424h-2.548v-13.091h2.446v2.131h.162a3.75 3.75 0 0 1 1.415-1.671q.971-.63 2.446-.63 1.338 0 2.343.562 1.006.554 1.56 1.654t.554 2.718V424h-2.548v-8.02q0-1.423-.742-2.224-.741-.81-2.037-.81-.886 0-1.576.384-.682.382-1.083 1.125-.392.732-.392 1.772m15.605 8.063q-1.243 0-2.25-.46a3.8 3.8 0 0 1-1.594-1.356q-.579-.885-.579-2.173 0-1.108.426-1.824a3.14 3.14 0 0 1 1.151-1.133 6 6 0 0 1 1.619-.631q.895-.213 1.824-.324l1.909-.221q.734-.094 1.065-.299.333-.204.333-.664v-.06q0-1.116-.631-1.73-.622-.614-1.858-.614-1.287 0-2.028.571-.733.563-1.015 1.253l-2.395-.545q.427-1.194 1.245-1.927a5 5 0 0 1 1.9-1.073 7.4 7.4 0 0 1 2.259-.341q.784 0 1.662.187a4.9 4.9 0 0 1 1.653.665q.776.486 1.27 1.389.495.895.494 2.327V424h-2.488v-1.79h-.102q-.247.495-.742.972-.494.477-1.27.792-.775.316-1.858.316m.554-2.046q1.057 0 1.807-.417.759-.418 1.151-1.091.4-.683.4-1.458v-1.687q-.137.136-.528.256a9 9 0 0 1-.878.196q-.495.076-.963.145-.47.058-.784.102a6.3 6.3 0 0 0-1.355.315 2.3 2.3 0 0 0-.972.639q-.358.41-.358 1.091 0 .946.699 1.432.7.477 1.781.477m14.789 6.938q-1.56 0-2.684-.409-1.118-.41-1.824-1.083a4.5 4.5 0 0 1-1.057-1.474l2.19-.904q.23.375.614.793.392.426 1.057.725.673.298 1.73.298 1.449 0 2.395-.708.945-.698.946-2.232v-2.574h-.162a6 6 0 0 1-.665.929q-.426.511-1.176.886t-1.952.375q-1.551 0-2.795-.724-1.237-.733-1.96-2.157-.716-1.432-.716-3.52t.707-3.579q.716-1.491 1.96-2.284 1.245-.801 2.821-.801 1.22 0 1.969.409.75.4 1.168.937.425.537.656.946h.187v-2.122h2.498v13.381q0 1.687-.785 2.77-.783 1.082-2.122 1.602-1.329.52-3 .52m-.025-7.492q1.1 0 1.858-.511.766-.52 1.159-1.483.4-.972.4-2.327 0-1.32-.392-2.326t-1.15-1.569q-.759-.57-1.875-.571-1.151 0-1.918.597-.767.588-1.159 1.602-.384 1.014-.384 2.267 0 1.287.393 2.259.391.972 1.159 1.517.775.545 1.909.545m14.991 2.574q-1.935 0-3.332-.826-1.389-.836-2.148-2.344-.75-1.517-.75-3.554 0-2.012.75-3.546.758-1.534 2.114-2.395 1.363-.86 3.187-.86 1.108 0 2.148.366a5.2 5.2 0 0 1 1.866 1.151q.828.783 1.304 2.037.478 1.244.478 3.025v.904h-10.407v-1.91h7.909q0-1.005-.409-1.781a3.1 3.1 0 0 0-1.15-1.236q-.733-.451-1.722-.451-1.074 0-1.875.528a3.55 3.55 0 0 0-1.227 1.364 3.94 3.94 0 0 0-.426 1.815v1.492q0 1.312.46 2.233.469.92 1.304 1.406.835.477 1.952.477.724 0 1.321-.204a2.9 2.9 0 0 0 1.031-.631 2.75 2.75 0 0 0 .665-1.031l2.412.434a4.4 4.4 0 0 1-1.04 1.867q-.742.792-1.867 1.236-1.116.434-2.548.434m8.444-.264v-13.091h2.446v2.131h.162a3.4 3.4 0 0 1 1.338-1.688q.929-.613 2.225-.613 1.312 0 2.198.613.895.614 1.321 1.688h.137a3.7 3.7 0 0 1 1.491-1.671q1.023-.63 2.438-.63 1.78 0 2.906 1.116 1.134 1.117 1.134 3.367V424h-2.549v-8.54q0-1.329-.724-1.926-.725-.597-1.73-.596-1.245 0-1.935.767-.69.758-.69 1.951V424h-2.54v-8.702q0-1.065-.665-1.713t-1.73-.647q-.724 0-1.338.383-.605.375-.98 1.048-.367.673-.367 1.56V424zm26.853.264q-1.935 0-3.332-.826-1.389-.836-2.148-2.344-.75-1.517-.75-3.554 0-2.012.75-3.546.758-1.534 2.114-2.395 1.363-.86 3.187-.86 1.108 0 2.148.366a5.2 5.2 0 0 1 1.866 1.151q.827.783 1.304 2.037.478 1.244.478 3.025v.904h-10.407v-1.91h7.909q0-1.005-.409-1.781a3.1 3.1 0 0 0-1.15-1.236q-.733-.451-1.722-.451-1.074 0-1.875.528a3.55 3.55 0 0 0-1.227 1.364 3.94 3.94 0 0 0-.426 1.815v1.492q0 1.312.46 2.233a3.33 3.33 0 0 0 1.304 1.406q.835.477 1.952.477.724 0 1.321-.204a2.9 2.9 0 0 0 1.031-.631 2.75 2.75 0 0 0 .665-1.031l2.412.434a4.4 4.4 0 0 1-1.04 1.867q-.742.792-1.867 1.236-1.116.434-2.548.434m10.992-8.037V424h-2.548v-13.091h2.446v2.131h.162a3.75 3.75 0 0 1 1.415-1.671q.971-.63 2.446-.63 1.338 0 2.343.562 1.006.554 1.56 1.654t.554 2.718V424h-2.548v-8.02q0-1.423-.742-2.224-.741-.81-2.037-.81-.886 0-1.576.384-.683.382-1.083 1.125-.392.732-.392 1.772m17.906-5.318v2.046h-7.15v-2.046zm-5.232-3.136h2.548v12.383q0 .742.221 1.117.222.366.571.503.359.127.776.127.308 0 .537-.042l.358-.068.46 2.105a4 4 0 0 1-.631.17 5 5 0 0 1-1.022.102 4.5 4.5 0 0 1-1.875-.358 3.2 3.2 0 0 1-1.407-1.159q-.536-.784-.536-1.968zm14.403 21.136v-18h2.489v2.122h.213a7 7 0 0 1 .639-.946q.418-.537 1.159-.937.742-.41 1.96-.409 1.585 0 2.83.801 1.244.801 1.951 2.309.716 1.509.716 3.631 0 2.123-.707 3.639-.708 1.51-1.943 2.327-1.236.81-2.821.81-1.194 0-1.952-.401-.75-.4-1.176-.937a7 7 0 0 1-.656-.955h-.154v6.946zm2.497-11.454q0 1.38.401 2.42.4 1.04 1.159 1.628.758.579 1.858.579 1.141 0 1.909-.605.767-.614 1.159-1.662.4-1.048.4-2.36 0-1.296-.392-2.327-.383-1.031-1.159-1.628-.766-.597-1.917-.597-1.108 0-1.875.571-.758.571-1.151 1.594-.392 1.022-.392 2.387M490.822 424v-13.091h2.464v2.08h.136a3.16 3.16 0 0 1 1.261-1.662 3.6 3.6 0 0 1 2.063-.614 11 11 0 0 1 1.082.06v2.437a5 5 0 0 0-.545-.094 5 5 0 0 0-.784-.059q-.904 0-1.611.383a2.85 2.85 0 0 0-1.517 2.566V424zm14.257.264q-1.84 0-3.213-.844-1.372-.843-2.131-2.36-.759-1.518-.758-3.546 0-2.037.758-3.562.759-1.525 2.131-2.37 1.373-.843 3.213-.843t3.213.843q1.372.845 2.131 2.37t.758 3.562q0 2.028-.758 3.546-.759 1.517-2.131 2.36-1.373.844-3.213.844m.008-2.139q1.194 0 1.978-.631.784-.63 1.159-1.679.383-1.048.383-2.309a6.7 6.7 0 0 0-.383-2.301q-.375-1.057-1.159-1.696-.784-.64-1.978-.64-1.202 0-1.994.64-.784.639-1.168 1.696a6.8 6.8 0 0 0-.375 2.301q0 1.261.375 2.309.384 1.049 1.168 1.679.792.631 1.994.631M514.23 424v-17.455h2.548v6.486h.154q.222-.409.639-.946t1.159-.937q.741-.41 1.96-.409 1.585 0 2.83.801 1.244.801 1.952 2.309.716 1.509.716 3.631 0 2.123-.708 3.639-.707 1.51-1.943 2.327-1.236.81-2.821.81-1.194 0-1.952-.401-.75-.4-1.176-.937a7 7 0 0 1-.656-.955h-.213V424zm2.497-6.545q0 1.38.401 2.42.4 1.04 1.159 1.628.759.579 1.858.579 1.142 0 1.909-.605.767-.614 1.159-1.662.4-1.048.401-2.36 0-1.296-.392-2.327-.383-1.031-1.16-1.628-.766-.597-1.917-.597-1.109 0-1.875.571-.759.571-1.151 1.594-.392 1.022-.392 2.387m17.964 6.809q-1.935 0-3.332-.826-1.389-.836-2.148-2.344-.75-1.517-.75-3.554 0-2.012.75-3.546.758-1.534 2.114-2.395 1.363-.86 3.187-.86 1.109 0 2.148.366a5.2 5.2 0 0 1 1.866 1.151q.827.783 1.304 2.037.477 1.244.478 3.025v.904h-10.407v-1.91h7.909q0-1.005-.409-1.781a3.1 3.1 0 0 0-1.15-1.236q-.734-.451-1.722-.451-1.074 0-1.875.528a3.55 3.55 0 0 0-1.227 1.364 3.94 3.94 0 0 0-.426 1.815v1.492q0 1.312.46 2.233a3.33 3.33 0 0 0 1.304 1.406q.835.477 1.952.477.724 0 1.321-.204a2.9 2.9 0 0 0 1.031-.631 2.75 2.75 0 0 0 .665-1.031l2.412.434a4.4 4.4 0 0 1-1.04 1.867q-.742.792-1.867 1.236-1.116.434-2.548.434m24.605-10.159-2.309.409a2.7 2.7 0 0 0-.461-.844 2.3 2.3 0 0 0-.835-.656q-.528-.255-1.321-.255-1.083 0-1.807.485-.724.477-.724 1.236 0 .657.486 1.057.485.4 1.568.656l2.079.477q1.808.418 2.693 1.287.887.87.887 2.259 0 1.176-.682 2.096-.674.912-1.883 1.432-1.203.52-2.787.52-2.199 0-3.588-.937-1.39-.946-1.705-2.685l2.463-.375q.23.963.946 1.457.715.486 1.867.486 1.252 0 2.002-.52.75-.528.75-1.287 0-.613-.46-1.031-.452-.417-1.389-.631l-2.216-.485q-1.833-.418-2.71-1.33-.87-.912-.87-2.31 0-1.158.648-2.028.648-.869 1.79-1.355 1.142-.495 2.616-.494 2.123 0 3.341.92 1.22.912 1.611 2.446m11.35 4.466v-7.662h2.557V424h-2.506v-2.267h-.136q-.452 1.048-1.449 1.747-.989.69-2.463.69-1.261 0-2.233-.554-.963-.562-1.517-1.661-.545-1.1-.545-2.719v-8.327h2.548v8.02q0 1.338.741 2.131.742.792 1.927.792.715 0 1.423-.358a3 3 0 0 0 1.185-1.082q.477-.725.468-1.841m11.495 5.693q-1.9 0-3.272-.861-1.363-.869-2.097-2.394-.733-1.526-.733-3.495 0-1.994.75-3.52.75-1.534 2.114-2.395 1.364-.86 3.213-.86 1.49 0 2.659.554a4.76 4.76 0 0 1 1.883 1.534q.724.989.861 2.309h-2.48a2.97 2.97 0 0 0-.937-1.585q-.724-.665-1.944-.665-1.065 0-1.866.563-.793.554-1.236 1.585-.443 1.023-.443 2.421 0 1.431.435 2.471.433 1.04 1.227 1.611.801.571 1.883.571.725 0 1.313-.264.597-.273.997-.776a2.9 2.9 0 0 0 .571-1.21h2.48a4.8 4.8 0 0 1-.827 2.267q-.69.997-1.849 1.568-1.15.571-2.702.571m13.618 0q-1.901 0-3.273-.861-1.364-.869-2.097-2.394t-.733-3.495q0-1.994.75-3.52.75-1.534 2.114-2.395 1.363-.86 3.213-.86 1.492 0 2.659.554a4.8 4.8 0 0 1 1.884 1.534q.724.989.86 2.309h-2.48a2.97 2.97 0 0 0-.937-1.585q-.725-.665-1.943-.665-1.066 0-1.867.563-.792.554-1.236 1.585-.443 1.023-.443 2.421 0 1.431.435 2.471t1.227 1.611q.801.571 1.884.571.724 0 1.312-.264.597-.273.997-.776a2.9 2.9 0 0 0 .571-1.21h2.48a4.8 4.8 0 0 1-.826 2.267 4.76 4.76 0 0 1-1.85 1.568q-1.15.571-2.701.571m13.745 0q-1.935 0-3.333-.826-1.389-.836-2.148-2.344-.75-1.517-.75-3.554 0-2.012.75-3.546.76-1.534 2.114-2.395 1.364-.86 3.188-.86a6.4 6.4 0 0 1 2.147.366 5.2 5.2 0 0 1 1.867 1.151q.827.783 1.304 2.037.477 1.244.477 3.025v.904h-10.406v-1.91h7.909q0-1.005-.409-1.781a3.1 3.1 0 0 0-1.151-1.236q-.732-.451-1.721-.451-1.074 0-1.875.528a3.55 3.55 0 0 0-1.228 1.364 3.94 3.94 0 0 0-.426 1.815v1.492q0 1.312.46 2.233a3.34 3.34 0 0 0 1.304 1.406q.836.477 1.952.477.724 0 1.321-.204a2.9 2.9 0 0 0 1.031-.631q.435-.418.665-1.031l2.412.434a4.4 4.4 0 0 1-1.04 1.867q-.741.792-1.866 1.236-1.117.434-2.548.434m14.085 0q-1.934 0-3.332-.826-1.389-.836-2.148-2.344-.75-1.517-.75-3.554 0-2.012.75-3.546.76-1.534 2.114-2.395 1.364-.86 3.188-.86a6.4 6.4 0 0 1 2.147.366 5.2 5.2 0 0 1 1.867 1.151q.827.783 1.304 2.037.477 1.244.477 3.025v.904H618.8v-1.91h7.909q0-1.005-.409-1.781a3.1 3.1 0 0 0-1.151-1.236q-.732-.451-1.721-.451-1.074 0-1.875.528a3.55 3.55 0 0 0-1.228 1.364 3.94 3.94 0 0 0-.426 1.815v1.492q0 1.312.46 2.233a3.34 3.34 0 0 0 1.304 1.406q.836.477 1.952.477.724 0 1.321-.204a2.9 2.9 0 0 0 1.031-.631q.435-.418.665-1.031l2.412.434a4.4 4.4 0 0 1-1.04 1.867q-.741.792-1.866 1.236-1.117.434-2.549.434m13.345-.008q-1.585 0-2.83-.81-1.235-.818-1.943-2.327-.699-1.516-.699-3.639t.708-3.631q.715-1.508 1.96-2.309t2.821-.801q1.219 0 1.96.409.75.4 1.159.937.418.537.648.946h.153v-6.486h2.549V424h-2.489v-2.037h-.213a6.7 6.7 0 0 1-.665.955q-.426.537-1.176.937t-1.943.401m.562-2.174q1.1 0 1.858-.579.768-.588 1.159-1.628.402-1.04.401-2.42 0-1.365-.392-2.387t-1.151-1.594q-.758-.57-1.875-.571-1.15 0-1.917.597-.768.596-1.159 1.628-.384 1.03-.384 2.327 0 1.312.392 2.36.393 1.048 1.159 1.662.776.606 1.909.605m15.203 2.182q-1.935 0-3.333-.826-1.39-.836-2.147-2.344-.75-1.517-.75-3.554 0-2.012.75-3.546.758-1.534 2.113-2.395 1.364-.86 3.188-.86 1.108 0 2.148.366a5.2 5.2 0 0 1 1.866 1.151q.827.783 1.304 2.037.477 1.244.477 3.025v.904h-10.406v-1.91h7.909q0-1.005-.409-1.781a3.1 3.1 0 0 0-1.15-1.236q-.734-.451-1.722-.451-1.074 0-1.875.528a3.54 3.54 0 0 0-1.227 1.364 3.94 3.94 0 0 0-.426 1.815v1.492q0 1.312.46 2.233a3.33 3.33 0 0 0 1.304 1.406q.835.477 1.951.477a4 4 0 0 0 1.321-.204 2.9 2.9 0 0 0 1.032-.631q.434-.418.664-1.031l2.412.434a4.37 4.37 0 0 1-1.039 1.867q-.742.792-1.867 1.236-1.117.434-2.548.434m13.344-.008q-1.585 0-2.829-.81-1.236-.818-1.943-2.327-.699-1.516-.699-3.639t.707-3.631q.716-1.508 1.96-2.309 1.245-.801 2.821-.801 1.219 0 1.961.409.75.4 1.159.937.417.537.647.946h.154v-6.486h2.548V424h-2.489v-2.037h-.213a7 7 0 0 1-.664.955q-.426.537-1.176.937t-1.944.401m.563-2.174q1.1 0 1.858-.579.767-.588 1.159-1.628.4-1.04.4-2.42 0-1.365-.392-2.387-.391-1.023-1.15-1.594-.759-.57-1.875-.571-1.15 0-1.918.597-.767.596-1.159 1.628-.384 1.03-.383 2.327 0 1.312.392 2.36.391 1.048 1.159 1.662.775.606 1.909.605m24.204-3.511v-7.662h2.557V424h-2.505v-2.267h-.137q-.452 1.048-1.449 1.747-.989.69-2.463.69-1.261 0-2.233-.554-.963-.562-1.517-1.661-.545-1.1-.545-2.719v-8.327h2.548v8.02q0 1.338.742 2.131.741.792 1.926.792.715 0 1.423-.358a3 3 0 0 0 1.185-1.082q.477-.725.468-1.841m15.791-4.466-2.31.409a2.7 2.7 0 0 0-.46-.844 2.3 2.3 0 0 0-.835-.656q-.53-.255-1.321-.255-1.083 0-1.807.485-.725.477-.725 1.236 0 .657.486 1.057t1.568.656l2.08.477q1.807.418 2.693 1.287.887.87.887 2.259 0 1.176-.682 2.096-.673.912-1.884 1.432-1.202.52-2.787.52-2.199 0-3.588-.937-1.389-.946-1.704-2.685l2.463-.375q.23.963.946 1.457.715.486 1.866.486 1.253 0 2.003-.52.75-.528.75-1.287 0-.613-.46-1.031-.452-.417-1.389-.631l-2.216-.485q-1.832-.418-2.711-1.33-.869-.912-.869-2.31 0-1.158.648-2.028.648-.869 1.79-1.355 1.142-.495 2.616-.494 2.123 0 3.341.92 1.219.912 1.611 2.446m3.057 9.895v-13.091h2.549V424zm1.287-15.111q-.665 0-1.142-.443a1.44 1.44 0 0 1-.468-1.074q0-.63.468-1.074a1.6 1.6 0 0 1 1.142-.451q.664 0 1.134.451.477.444.477 1.074 0 .623-.477 1.074a1.6 1.6 0 0 1-1.134.443m7.238 7.338V424h-2.548v-13.091h2.446v2.131h.162a3.75 3.75 0 0 1 1.415-1.671q.971-.63 2.446-.63 1.338 0 2.343.562 1.007.554 1.56 1.654t.554 2.718V424h-2.548v-8.02q0-1.423-.742-2.224-.741-.81-2.037-.81-.886 0-1.576.384-.683.382-1.083 1.125-.392.732-.392 1.772m17.284 12.955q-1.559 0-2.684-.409-1.117-.41-1.824-1.083a4.5 4.5 0 0 1-1.057-1.474l2.19-.904q.23.375.614.793.392.426 1.057.725.673.298 1.73.298 1.449 0 2.395-.708.946-.698.946-2.232v-2.574h-.162a6 6 0 0 1-.665.929q-.426.511-1.176.886t-1.952.375q-1.551 0-2.795-.724-1.236-.733-1.96-2.157-.716-1.432-.716-3.52t.707-3.579q.716-1.491 1.96-2.284 1.245-.801 2.821-.801 1.22 0 1.969.409.75.4 1.168.937.426.537.656.946h.187v-2.122h2.498v13.381q0 1.687-.785 2.77-.784 1.082-2.122 1.602-1.329.52-3 .52m-.025-7.492q1.1 0 1.858-.511.766-.52 1.159-1.483.4-.972.4-2.327 0-1.32-.392-2.326t-1.15-1.569q-.759-.57-1.875-.571-1.15 0-1.918.597-.767.588-1.159 1.602-.383 1.014-.383 2.267 0 1.287.392 2.259.391.972 1.159 1.517.775.545 1.909.545m15.905 2.31v-17.455h2.549v6.486h.153q.222-.409.639-.946t1.159-.937q.742-.41 1.961-.409 1.585 0 2.829.801t1.952 2.309q.716 1.509.716 3.631 0 2.123-.708 3.639-.707 1.51-1.943 2.327-1.236.81-2.821.81-1.193 0-1.952-.401-.75-.4-1.176-.937a7 7 0 0 1-.656-.955h-.213V424zm2.497-6.545q0 1.38.401 2.42.4 1.04 1.159 1.628.759.579 1.858.579 1.142 0 1.909-.605.768-.614 1.159-1.662.4-1.048.401-2.36 0-1.296-.392-2.327-.384-1.031-1.159-1.628-.768-.597-1.918-.597-1.109 0-1.875.571-.759.571-1.15 1.594-.393 1.022-.393 2.387m17.964 6.809q-1.934 0-3.332-.826-1.389-.836-2.148-2.344-.75-1.517-.75-3.554 0-2.012.75-3.546.759-1.534 2.114-2.395 1.363-.86 3.187-.86 1.109 0 2.148.366a5.2 5.2 0 0 1 1.866 1.151q.827.783 1.304 2.037.478 1.244.478 3.025v.904h-10.407v-1.91h7.91q0-1.005-.41-1.781a3.1 3.1 0 0 0-1.15-1.236q-.734-.451-1.722-.451-1.074 0-1.875.528a3.55 3.55 0 0 0-1.227 1.364 3.94 3.94 0 0 0-.426 1.815v1.492q0 1.312.46 2.233.469.92 1.304 1.406.835.477 1.952.477.724 0 1.321-.204a2.9 2.9 0 0 0 1.031-.631 2.75 2.75 0 0 0 .665-1.031l2.412.434a4.4 4.4 0 0 1-1.04 1.867q-.741.792-1.866 1.236-1.117.434-2.549.434m12.254.026q-1.245 0-2.25-.46a3.8 3.8 0 0 1-1.594-1.356q-.58-.885-.58-2.173 0-1.108.427-1.824a3.14 3.14 0 0 1 1.15-1.133 6 6 0 0 1 1.62-.631q.894-.213 1.823-.324l1.909-.221q.733-.094 1.066-.299.332-.204.332-.664v-.06q0-1.116-.63-1.73-.623-.614-1.858-.614-1.287 0-2.029.571-.733.563-1.014 1.253l-2.395-.545q.426-1.194 1.244-1.927a5.05 5.05 0 0 1 1.901-1.073 7.4 7.4 0 0 1 2.258-.341q.784 0 1.662.187a4.9 4.9 0 0 1 1.654.665q.775.486 1.27 1.389.494.895.494 2.327V424h-2.489v-1.79h-.102q-.248.495-.741.972-.495.477-1.27.792-.776.316-1.858.316m.554-2.046q1.057 0 1.807-.417.758-.418 1.15-1.091.4-.683.401-1.458v-1.687q-.136.136-.529.256a8 8 0 0 1-.878.196q-.494.076-.963.145-.468.058-.784.102a6.3 6.3 0 0 0-1.355.315 2.33 2.33 0 0 0-.971.639q-.358.41-.358 1.091 0 .946.699 1.432.698.477 1.781.477m9.3 1.756v-13.091h2.463v2.08h.137a3.16 3.16 0 0 1 1.261-1.662 3.6 3.6 0 0 1 2.062-.614 11 11 0 0 1 1.083.06v2.437a5 5 0 0 0-.546-.094 5 5 0 0 0-.784-.059q-.903 0-1.61.383-.7.375-1.108 1.049a2.83 2.83 0 0 0-.41 1.517V424zm14.384.264q-1.934 0-3.332-.826-1.389-.836-2.148-2.344-.75-1.517-.75-3.554 0-2.012.75-3.546.76-1.534 2.114-2.395 1.364-.86 3.187-.86 1.108 0 2.148.366a5.2 5.2 0 0 1 1.867 1.151q.826.783 1.304 2.037.477 1.244.477 3.025v.904h-10.406v-1.91h7.909q0-1.005-.409-1.781a3.1 3.1 0 0 0-1.151-1.236q-.733-.451-1.722-.451-1.072 0-1.875.528a3.55 3.55 0 0 0-1.227 1.364 3.94 3.94 0 0 0-.426 1.815v1.492q0 1.312.46 2.233.469.92 1.304 1.406.836.477 1.952.477.724 0 1.321-.204a2.9 2.9 0 0 0 1.031-.631q.435-.418.665-1.031l2.412.434a4.4 4.4 0 0 1-1.04 1.867q-.741.792-1.866 1.236-1.117.434-2.549.434m8.444-.264v-13.091h2.463v2.08h.137a3.16 3.16 0 0 1 1.261-1.662 3.6 3.6 0 0 1 2.063-.614 11 11 0 0 1 1.082.06v2.437a5 5 0 0 0-.545-.094 5 5 0 0 0-.785-.059q-.903 0-1.61.383-.7.375-1.108 1.049a2.83 2.83 0 0 0-.409 1.517V424zm19.372.29q-1.244 0-2.25-.46a3.8 3.8 0 0 1-1.593-1.356q-.58-.885-.58-2.173 0-1.108.426-1.824a3.14 3.14 0 0 1 1.151-1.133 6 6 0 0 1 1.619-.631q.895-.213 1.824-.324l1.909-.221q.733-.094 1.066-.299.332-.204.332-.664v-.06q0-1.116-.631-1.73-.622-.614-1.858-.614-1.287 0-2.028.571-.734.563-1.014 1.253l-2.395-.545q.426-1.194 1.244-1.927a5.04 5.04 0 0 1 1.901-1.073 7.4 7.4 0 0 1 2.258-.341q.784 0 1.662.187a4.9 4.9 0 0 1 1.653.665q.777.486 1.27 1.389.495.895.495 2.327V424h-2.489v-1.79h-.102q-.247.495-.742.972-.494.477-1.27.792-.775.316-1.858.316m.554-2.046q1.057 0 1.807-.417.759-.418 1.151-1.091.4-.683.4-1.458v-1.687q-.136.136-.528.256a9 9 0 0 1-.878.196q-.493.076-.963.145a64 64 0 0 0-.784.102 6.3 6.3 0 0 0-1.355.315 2.34 2.34 0 0 0-.972.639q-.358.41-.358 1.091 0 .946.699 1.432.7.477 1.781.477m17.593-3.673v-7.662h2.557V424h-2.505v-2.267h-.137q-.452 1.048-1.449 1.747-.988.69-2.463.69-1.261 0-2.233-.554-.963-.562-1.517-1.661-.545-1.1-.545-2.719v-8.327h2.548v8.02q0 1.338.742 2.131.741.792 1.926.792.715 0 1.423-.358a3 3 0 0 0 1.185-1.082q.477-.725.468-1.841m12.092-7.662v2.046h-7.15v-2.046zm-5.233-3.136h2.548v12.383q0 .742.222 1.117.222.366.571.503.358.127.776.127.306 0 .537-.042l.358-.068.46 2.105a4 4 0 0 1-.631.17 5 5 0 0 1-1.023.102 4.5 4.5 0 0 1-1.875-.358 3.2 3.2 0 0 1-1.406-1.159q-.537-.784-.537-1.968zm10.882 8.454V424h-2.549v-17.455h2.514v6.495h.162a3.76 3.76 0 0 1 1.407-1.679q.945-.622 2.471-.622 1.347 0 2.353.554 1.014.554 1.568 1.653.562 1.09.562 2.727V424h-2.548v-8.02q0-1.44-.742-2.233-.74-.801-2.062-.801a3.4 3.4 0 0 0-1.619.384q-.708.382-1.117 1.125-.4.732-.4 1.772"/></g><defs><linearGradient id="b" x1="0" x2="1120" y1="0" y2="520" gradientUnits="userSpaceOnUse"><stop stop-color="#0b1220"/><stop offset="1" stop-color="#111827"/></linearGradient><clipPath id="a"><path fill="#fff" d="M0 0h1120v520H0z"/></clipPath></defs></svg>