<svg xmlns="http://www.w3.org/2000/svg" width="1280" height="640" fill="none"><path fill="url(#a)" d="M0 0h1280v640H0z"/><path fill="#0f172a" stroke="#263247" stroke-width="1.5" d="M1209.38 105H71.404C54.612 105 41 118.612 41 135.404v338.788c0 16.792 13.612 30.404 30.404 30.404H1209.38c16.8 0 30.41-13.612 30.41-30.404V135.404c0-16.792-13.61-30.404-30.41-30.404Z"/><path fill="#94a3b8" d="M436.157 529.125V537h-2.011v-13.091h1.943v2.046h.17a3.74 3.74 0 0 1 1.398-1.603q.938-.613 2.42-.613 1.33 0 2.327.545.998.537 1.551 1.636.554 1.091.554 2.762V537h-2.011v-8.182q0-1.542-.801-2.403-.801-.87-2.199-.87-.963 0-1.722.418a3 3 0 0 0-1.184 1.219q-.435.801-.435 1.943m12.028 12.784v-18h1.943v2.08h.238q.222-.341.614-.87.4-.537 1.142-.954.75-.426 2.029-.426 1.653 0 2.914.826 1.262.827 1.969 2.344t.707 3.58q0 2.08-.707 3.605-.707 1.516-1.96 2.352-1.252.827-2.889.827-1.262 0-2.02-.418-.759-.426-1.168-.963a13 13 0 0 1-.631-.903h-.17v6.92zm1.977-11.454q0 1.482.435 2.616.434 1.125 1.269 1.764.835.631 2.046.631 1.262 0 2.105-.665.852-.673 1.278-1.807.435-1.142.435-2.539 0-1.381-.426-2.489-.417-1.116-1.27-1.764-.844-.657-2.122-.657-1.227 0-2.063.623-.834.614-1.261 1.721-.426 1.1-.426 2.566M462.81 537v-13.091h1.943v2.046h.17a3.3 3.3 0 0 1 1.321-1.628q.912-.588 2.191-.588 1.295 0 2.156.588.869.58 1.355 1.628h.136a3.8 3.8 0 0 1 1.509-1.611q1.005-.606 2.412-.605 1.756 0 2.872 1.099 1.116 1.09 1.116 3.401V537h-2.011v-8.761q0-1.45-.792-2.071-.793-.623-1.867-.623-1.38 0-2.139.836-.759.827-.759 2.096V537h-2.045v-8.966q0-1.117-.725-1.798-.725-.69-1.866-.691-.784 0-1.466.418a3.16 3.16 0 0 0-1.091 1.159q-.41.733-.409 1.696V537zm28.359-8.42v1.875h-7.636v-1.875zm9.369-4.671v1.705h-7.057v-1.705zM495.594 537v-14.898q0-1.125.529-1.875.528-.75 1.372-1.125a4.3 4.3 0 0 1 1.781-.375q.742 0 1.211.12.468.119.698.221l-.579 1.739a10 10 0 0 0-.426-.128 2.6 2.6 0 0 0-.699-.077q-.997 0-1.441.503-.434.503-.434 1.475V537zm7.763 0v-13.091h2.011V537zm1.022-15.273a1.43 1.43 0 0 1-1.014-.4 1.29 1.29 0 0 1-.418-.963q0-.562.418-.963a1.43 1.43 0 0 1 1.014-.401q.589 0 1.006.401.426.4.426.963t-.426.963a1.4 1.4 0 0 1-1.006.4M509.052 537v-13.091h1.943v1.977h.136q.358-.971 1.296-1.576a3.8 3.8 0 0 1 2.113-.605q.222 0 .554.008t.503.026v2.045a6 6 0 0 0-.468-.077 5 5 0 0 0-.759-.059q-.954 0-1.705.4a3.03 3.03 0 0 0-1.176 1.091 2.94 2.94 0 0 0-.426 1.577V537zm18.202-10.159-1.807.511a3.4 3.4 0 0 0-.502-.878 2.44 2.44 0 0 0-.887-.715q-.562-.282-1.44-.282-1.202 0-2.003.554-.793.546-.793 1.389 0 .75.546 1.185.546.434 1.704.725l1.944.477q1.755.426 2.616 1.304.861.869.861 2.241 0 1.125-.648 2.012-.64.886-1.79 1.397-1.15.512-2.676.512-2.002 0-3.315-.87-1.312-.869-1.662-2.539l1.909-.478q.273 1.057 1.031 1.586.767.528 2.003.528 1.407 0 2.233-.597.835-.605.835-1.448 0-.683-.477-1.143-.477-.468-1.466-.698l-2.182-.512q-1.798-.426-2.642-1.321-.835-.903-.835-2.258 0-1.108.622-1.961.631-.852 1.713-1.338 1.091-.485 2.472-.485 1.942 0 3.051.852 1.117.852 1.585 2.25m8.96-2.932v1.705h-6.784v-1.705zm-4.807-3.136h2.011v12.477q0 .852.247 1.278.256.418.648.563a2.6 2.6 0 0 0 .844.136q.333 0 .545-.034l.341-.068.409 1.807a4 4 0 0 1-.571.153 4.2 4.2 0 0 1-.929.085 4.05 4.05 0 0 1-1.67-.366 3.3 3.3 0 0 1-1.347-1.116q-.528-.75-.528-1.893zm16.048 10.125q-.63 0-1.082-.452a1.48 1.48 0 0 1-.452-1.082q0-.631.452-1.083a1.48 1.48 0 0 1 1.082-.451q.632 0 1.083.451.451.452.451 1.083 0 .417-.213.767-.204.35-.554.562a1.46 1.46 0 0 1-.767.205M565.008 537h-5.387v-17.455h5.625q2.54 0 4.347 1.049 1.807 1.04 2.77 2.991.963 1.944.963 4.654 0 2.727-.972 4.696-.971 1.96-2.829 3.017-1.858 1.048-4.517 1.048m-3.273-1.875h3.136q2.166 0 3.589-.835a5.16 5.16 0 0 0 2.122-2.378q.699-1.543.699-3.673 0-2.114-.691-3.64-.69-1.533-2.062-2.352-1.372-.827-3.418-.827h-3.375zm20.182 2.148q-1.773 0-3.111-.844-1.329-.844-2.079-2.361-.742-1.517-.742-3.545 0-2.046.742-3.571.75-1.525 2.079-2.37 1.338-.843 3.111-.843t3.102.843q1.338.845 2.08 2.37.75 1.525.75 3.571 0 2.028-.75 3.545-.742 1.517-2.08 2.361-1.329.843-3.102.844m0-1.807q1.346 0 2.216-.69.869-.691 1.287-1.816t.417-2.437-.417-2.446q-.418-1.134-1.287-1.833-.87-.699-2.216-.699t-2.216.699-1.287 1.833a7 7 0 0 0-.418 2.446q0 1.312.418 2.437.417 1.125 1.287 1.816.87.69 2.216.69m14.32 1.807q-1.84 0-3.17-.87-1.33-.868-2.046-2.394t-.716-3.486q0-1.995.733-3.52.742-1.534 2.063-2.395 1.329-.87 3.102-.869 1.381 0 2.489.511a4.76 4.76 0 0 1 1.815 1.432q.707.92.878 2.148h-2.011q-.231-.895-1.023-1.586-.784-.699-2.114-.699-1.176 0-2.062.614-.879.605-1.372 1.713-.486 1.1-.486 2.583 0 1.517.477 2.642.486 1.125 1.364 1.747.886.622 2.079.622.784 0 1.424-.273a2.94 2.94 0 0 0 1.082-.784q.443-.511.631-1.227h2.011a4.66 4.66 0 0 1-.844 2.088q-.664.92-1.764 1.466-1.09.537-2.54.537m9.963-5.046-.034-2.488h.409l5.728-5.83h2.488l-6.102 6.171h-.171zM604.325 537v-17.455h2.012V537zm8.318 0-5.113-6.477 1.432-1.398L615.2 537zm9.687.273q-1.893 0-3.265-.835-1.363-.844-2.105-2.353-.733-1.516-.733-3.528t.733-3.546q.742-1.542 2.063-2.403 1.329-.87 3.102-.869 1.023 0 2.02.341.997.34 1.815 1.108.819.758 1.304 2.011.486 1.252.486 3.085v.852h-10.091v-1.738h8.046q0-1.108-.444-1.978a3.34 3.34 0 0 0-1.244-1.372q-.801-.503-1.892-.503-1.201 0-2.08.597a3.93 3.93 0 0 0-1.338 1.534 4.5 4.5 0 0 0-.468 2.029v1.159q0 1.482.511 2.514.52 1.023 1.44 1.56.92.528 2.14.528.792 0 1.431-.222.648-.23 1.117-.682.468-.46.724-1.142l1.943.546a4.3 4.3 0 0 1-1.031 1.739 5 5 0 0 1-1.79 1.159q-1.065.409-2.394.409m8.48-.273v-13.091h1.943v1.977h.136q.359-.971 1.296-1.576a3.8 3.8 0 0 1 2.113-.605q.222 0 .554.008t.503.026v2.045a6 6 0 0 0-.469-.077 5 5 0 0 0-.758-.059q-.955 0-1.705.4a3.03 3.03 0 0 0-1.176 1.091 2.94 2.94 0 0 0-.426 1.577V537zm24.952-10.159-1.807.511a3.4 3.4 0 0 0-.503-.878 2.4 2.4 0 0 0-.886-.715q-.562-.282-1.44-.282-1.202 0-2.003.554-.793.546-.793 1.389 0 .75.546 1.185.545.434 1.704.725l1.943.477q1.756.426 2.617 1.304.861.869.861 2.241 0 1.125-.648 2.012-.64.886-1.79 1.397-1.15.512-2.676.512-2.003 0-3.315-.87-1.312-.869-1.662-2.539l1.909-.478q.273 1.057 1.031 1.586.767.528 2.003.528 1.406 0 2.233-.597.835-.605.835-1.448 0-.683-.477-1.143-.477-.468-1.466-.698l-2.182-.512q-1.798-.426-2.642-1.321-.835-.903-.835-2.258 0-1.108.622-1.961.631-.852 1.713-1.338 1.09-.485 2.472-.485 1.942 0 3.051.852 1.117.852 1.585 2.25m8.755 10.432q-1.892 0-3.264-.835-1.364-.844-2.105-2.353-.733-1.516-.733-3.528t.733-3.546q.742-1.542 2.062-2.403 1.33-.87 3.102-.869 1.024 0 2.02.341.997.34 1.816 1.108.818.758 1.304 2.011.486 1.252.486 3.085v.852h-10.091v-1.738h8.045q0-1.108-.443-1.978a3.35 3.35 0 0 0-1.244-1.372q-.802-.503-1.893-.503-1.202 0-2.079.597a3.9 3.9 0 0 0-1.338 1.534 4.5 4.5 0 0 0-.469 2.029v1.159q0 1.482.512 2.514.519 1.023 1.44 1.56.92.528 2.139.528.793 0 1.432-.222a3 3 0 0 0 1.116-.682q.469-.46.725-1.142l1.943.546a4.3 4.3 0 0 1-1.031 1.739q-.725.74-1.79 1.159-1.066.409-2.395.409m10.492-17.728V537h-2.012v-17.455zm9.513 4.364v1.705h-7.057v-1.705zM679.579 537v-14.898q0-1.125.528-1.875.53-.75 1.372-1.125a4.3 4.3 0 0 1 1.782-.375q.74 0 1.21.12.468.119.699.221l-.58 1.739a10 10 0 0 0-.426-.128 2.6 2.6 0 0 0-.699-.077q-.998 0-1.44.503-.435.503-.435 1.475V537zm14.582-8.42v1.875h-7.636v-1.875zm3.812 8.42v-17.455h2.011v6.444h.171q.222-.341.613-.87.401-.537 1.143-.954.75-.426 2.028-.426 1.653 0 2.915.826 1.261.827 1.968 2.344t.708 3.58q0 2.08-.708 3.605-.707 1.516-1.96 2.352-1.253.827-2.889.827-1.261 0-2.02-.418-.759-.426-1.167-.963a13 13 0 0 1-.631-.903h-.239V537zm1.977-6.545q0 1.482.435 2.616.435 1.125 1.27 1.764.835.631 2.045.631 1.262 0 2.105-.665.853-.673 1.279-1.807.434-1.142.434-2.539 0-1.381-.426-2.489-.417-1.116-1.27-1.764-.843-.657-2.122-.657-1.227 0-2.062.623-.835.614-1.262 1.721-.426 1.1-.426 2.566m20.907 1.193v-7.739h2.011V537h-2.011v-2.216h-.137q-.46.997-1.432 1.696-.971.69-2.454.69-1.228 0-2.182-.536-.954-.546-1.5-1.637-.545-1.1-.545-2.77v-8.318h2.011v8.182q0 1.432.801 2.284.81.852 2.063.852.75 0 1.525-.383.784-.384 1.313-1.176.537-.793.537-2.02m5.695 5.352v-13.091h2.011V537zm1.023-15.273q-.589 0-1.015-.4a1.29 1.29 0 0 1-.417-.963q0-.562.417-.963a1.43 1.43 0 0 1 1.015-.401 1.4 1.4 0 0 1 1.005.401q.426.4.426.963t-.426.963q-.417.4-1.005.4m6.684-2.182V537h-2.012v-17.455zm8.627 17.728q-1.636 0-2.89-.827-1.252-.836-1.96-2.352-.707-1.526-.707-3.605 0-2.063.707-3.58.708-1.517 1.969-2.344 1.261-.826 2.915-.826 1.278 0 2.02.426.75.417 1.142.954.4.529.622.87h.17v-6.444h2.012V537h-1.944v-2.011h-.238q-.222.357-.631.903-.41.537-1.167.963-.759.418-2.02.418m.272-1.807q1.21 0 2.046-.631.835-.639 1.27-1.764.434-1.134.434-2.616 0-1.467-.426-2.566-.426-1.107-1.261-1.721-.835-.623-2.063-.623-1.278 0-2.13.657-.844.648-1.27 1.764-.418 1.108-.418 2.489 0 1.397.426 2.539.435 1.134 1.279 1.807.852.665 2.113.665m21.759 1.807q-1.773 0-3.111-.844-1.329-.844-2.079-2.361-.742-1.517-.742-3.545 0-2.046.742-3.571.75-1.525 2.079-2.37 1.338-.843 3.111-.843t3.102.843q1.338.845 2.08 2.37.75 1.525.75 3.571 0 2.028-.75 3.545-.742 1.517-2.08 2.361-1.329.843-3.102.844m0-1.807q1.346 0 2.216-.69.869-.691 1.287-1.816t.417-2.437-.417-2.446q-.418-1.134-1.287-1.833-.87-.699-2.216-.699t-2.216.699-1.287 1.833a7 7 0 0 0-.418 2.446q0 1.312.418 2.437.417 1.125 1.287 1.816.87.69 2.216.69m9.002 6.443v-18h1.943v2.08h.239q.222-.341.613-.87.401-.537 1.143-.954.75-.426 2.028-.426 1.653 0 2.915.826 1.261.827 1.968 2.344t.708 3.58q0 2.08-.708 3.605-.707 1.516-1.96 2.352-1.253.827-2.889.827-1.261 0-2.02-.418-.759-.426-1.167-.963a13 13 0 0 1-.631-.903h-.171v6.92zm1.977-11.454q0 1.482.435 2.616.435 1.125 1.27 1.764.835.631 2.045.631 1.262 0 2.105-.665.853-.673 1.279-1.807.435-1.142.434-2.539 0-1.381-.426-2.489-.417-1.116-1.27-1.764-.843-.657-2.122-.657-1.227 0-2.062.623-.835.614-1.262 1.721-.426 1.1-.426 2.566m18.341-6.546v1.705h-6.784v-1.705zm-4.807-3.136h2.012v12.477q0 .852.247 1.278.255.418.648.563.4.136.843.136.333 0 .546-.034l.341-.068.409 1.807a4 4 0 0 1-.571.153 4.2 4.2 0 0 1-.929.085 4.1 4.1 0 0 1-1.671-.366 3.3 3.3 0 0 1-1.346-1.116q-.528-.75-.529-1.893zM797.263 537v-13.091h2.011V537zm1.023-15.273a1.43 1.43 0 0 1-1.015-.4 1.29 1.29 0 0 1-.417-.963q0-.562.417-.963a1.43 1.43 0 0 1 1.015-.401 1.4 1.4 0 0 1 1.005.401q.426.4.426.963t-.426.963q-.417.4-1.005.4m9.99 15.546q-1.772 0-3.111-.844-1.329-.844-2.079-2.361-.742-1.517-.742-3.545 0-2.046.742-3.571.75-1.525 2.079-2.37 1.339-.843 3.111-.843t3.103.843q1.338.845 2.079 2.37.75 1.525.75 3.571 0 2.028-.75 3.545-.741 1.517-2.079 2.361-1.33.843-3.103.844m0-1.807q1.347 0 2.216-.69.87-.691 1.287-1.816.418-1.125.418-2.437 0-1.313-.418-2.446-.417-1.134-1.287-1.833t-2.216-.699-2.216.699q-.868.699-1.287 1.833a7 7 0 0 0-.417 2.446q0 1.312.417 2.437.418 1.125 1.287 1.816.87.69 2.216.69m11.014-6.341V537h-2.012v-13.091h1.944v2.046h.17a3.74 3.74 0 0 1 1.398-1.603q.938-.613 2.42-.613 1.33 0 2.327.545.997.537 1.551 1.636.554 1.091.554 2.762V537h-2.011v-8.182q0-1.542-.801-2.403-.802-.87-2.199-.87-.963 0-1.722.418-.75.418-1.185 1.219-.434.801-.434 1.943m15.88 8.182q-1.245 0-2.259-.469a3.9 3.9 0 0 1-1.611-1.372q-.596-.904-.596-2.182 0-1.125.443-1.824.443-.707 1.185-1.108a6.2 6.2 0 0 1 1.636-.596 20 20 0 0 1 1.815-.324 83 83 0 0 1 1.935-.23q.75-.085 1.091-.282.35-.196.349-.681v-.069q0-1.26-.69-1.96-.682-.699-2.071-.699-1.44 0-2.259.631-.817.63-1.15 1.347l-1.909-.682q.511-1.194 1.363-1.858a5.1 5.1 0 0 1 1.875-.938 7.8 7.8 0 0 1 2.012-.272 8 8 0 0 1 1.449.153 4.6 4.6 0 0 1 1.593.605q.776.46 1.287 1.389.512.93.512 2.489V537h-2.012v-1.773h-.102q-.205.426-.682.912t-1.27.827-1.934.341m.307-1.807q1.192 0 2.011-.469.827-.469 1.244-1.21a3.1 3.1 0 0 0 .426-1.56v-1.841q-.127.154-.562.282a10 10 0 0 1-.989.213q-.554.085-1.082.153-.52.06-.844.102a7.7 7.7 0 0 0-1.466.333q-.673.222-1.091.673-.409.444-.409 1.21 0 1.049.776 1.586.783.528 1.986.528m11.375-15.955V537h-2.011v-17.455z"/><path fill="#f8fafc" d="M210.639 167.455h12.137l12.818 31.272h.545l12.818-31.272h12.137V214h-9.546v-30.295h-.386l-12.046 30.068h-6.5l-12.045-30.182h-.386V214h-9.546zm99.631 16.295h-9.955q-.272-1.932-1.113-3.432a8.8 8.8 0 0 0-2.159-2.591 9.5 9.5 0 0 0-3.046-1.636q-1.704-.568-3.704-.568-3.614 0-6.296 1.795-2.682 1.773-4.159 5.182-1.477 3.387-1.477 8.227 0 4.977 1.477 8.364 1.5 3.386 4.182 5.114t6.204 1.727q1.978 0 3.66-.523a9.6 9.6 0 0 0 3.022-1.523 8.8 8.8 0 0 0 2.182-2.477q.887-1.455 1.227-3.318l9.955.045q-.387 3.205-1.932 6.182-1.522 2.955-4.114 5.296-2.568 2.317-6.136 3.681-3.546 1.341-8.023 1.341-6.227 0-11.136-2.818-4.887-2.818-7.727-8.159-2.818-5.341-2.818-12.932 0-7.613 2.863-12.954t7.773-8.137q4.909-2.817 11.045-2.818 4.046 0 7.5 1.137 3.478 1.136 6.159 3.318 2.682 2.159 4.364 5.295 1.704 3.137 2.182 7.182m7.057 30.25v-46.545h18.363q5.296 0 9.023 2.022 3.728 2.001 5.682 5.568 1.977 3.546 1.977 8.182t-2 8.182-5.795 5.523q-3.773 1.977-9.137 1.977h-11.704v-7.886h10.113q2.841 0 4.682-.978 1.864-1 2.773-2.75.932-1.772.932-4.068 0-2.318-.932-4.045-.909-1.75-2.773-2.705-1.863-.977-4.727-.977h-6.636V214zm41.437 0v-46.545h9.841v19.204h19.977v-19.204h9.819V214h-9.819v-19.227h-19.977V214zm69.955-14.864v-20.045h9.682V214h-9.296v-6.341h-.364q-1.181 3.068-3.931 4.932-2.728 1.863-6.659 1.864-3.5 0-6.16-1.591-2.659-1.592-4.159-4.523-1.476-2.933-1.5-7.023v-22.227h9.682v20.5q.023 3.091 1.659 4.886 1.636 1.796 4.387 1.796a6.96 6.96 0 0 0 3.272-.796q1.524-.817 2.455-2.409.954-1.59.932-3.932M446.327 214v-46.545h9.682v17.5h.295q.636-1.41 1.841-2.864 1.227-1.477 3.182-2.455 1.977-1 4.909-1 3.818 0 7.045 2 3.227 1.978 5.159 5.978 1.932 3.977 1.932 9.977 0 5.841-1.886 9.864-1.865 4-5.091 6.068-3.204 2.045-7.182 2.045-2.818 0-4.795-.932-1.955-.931-3.205-2.341-1.25-1.431-1.909-2.886h-.432V214zm9.477-17.455q0 3.114.864 5.432.863 2.319 2.5 3.614 1.636 1.272 3.977 1.273 2.364 0 4-1.296 1.637-1.319 2.477-3.636.864-2.341.864-5.387 0-3.022-.841-5.318t-2.477-3.591-4.023-1.295q-2.364 0-4 1.25-1.614 1.25-2.477 3.545-.864 2.297-.864 5.409m46.023-29.09h12.136l12.818 31.272h.546l12.818-31.272h12.136V214h-9.545v-30.295h-.387l-12.045 30.068h-6.5l-12.045-30.182h-.387V214h-9.545zm68.335 47.204q-3.34 0-5.955-1.159-2.613-1.182-4.136-3.477-1.5-2.319-1.5-5.773 0-2.909 1.068-4.886a8.64 8.64 0 0 1 2.909-3.182q1.842-1.205 4.182-1.818a32 32 0 0 1 4.955-.864q3.045-.318 4.909-.591 1.863-.296 2.704-.864.841-.567.841-1.681v-.137q0-2.159-1.363-3.341-1.341-1.181-3.819-1.181-2.613 0-4.159 1.159-1.545 1.136-2.045 2.863l-8.955-.727q.683-3.182 2.682-5.5 2-2.341 5.159-3.591 3.182-1.272 7.364-1.273 2.908 0 5.568.682 2.682.682 4.75 2.114a10.27 10.27 0 0 1 3.295 3.682q1.206 2.226 1.205 5.341V214h-9.182v-4.841h-.273a9.8 9.8 0 0 1-2.25 2.886q-1.409 1.228-3.386 1.932-1.977.682-4.568.682m2.773-6.682q2.136 0 3.772-.841 1.636-.863 2.569-2.318.931-1.455.931-3.295v-3.705q-.454.296-1.25.546a23 23 0 0 1-1.75.431q-.977.183-1.954.341l-1.773.25q-1.705.25-2.977.796-1.274.545-1.977 1.477-.705.91-.705 2.273 0 1.977 1.432 3.023 1.455 1.022 3.682 1.022m34.079-14.159V214h-9.682v-34.909h9.228v6.159h.409q1.159-3.045 3.886-4.818 2.727-1.796 6.614-1.796 3.636 0 6.341 1.591t4.204 4.546q1.5 2.932 1.5 7V214h-9.682v-20.5q.024-3.204-1.636-5-1.66-1.818-4.568-1.818-1.955 0-3.455.841-1.477.84-2.318 2.454-.818 1.591-.841 3.841m40.085 20.841q-3.34 0-5.954-1.159-2.614-1.182-4.136-3.477-1.5-2.319-1.5-5.773 0-2.909 1.068-4.886a8.64 8.64 0 0 1 2.909-3.182q1.84-1.205 4.182-1.818a32 32 0 0 1 4.954-.864q3.046-.318 4.909-.591 1.864-.296 2.705-.864.84-.567.841-1.681v-.137q0-2.159-1.364-3.341-1.341-1.181-3.818-1.181-2.614 0-4.159 1.159-1.546 1.136-2.046 2.863l-8.954-.727q.681-3.182 2.682-5.5 2-2.341 5.159-3.591 3.181-1.272 7.363-1.273 2.91 0 5.569.682 2.681.682 4.75 2.114a10.3 10.3 0 0 1 3.295 3.682q1.205 2.226 1.205 5.341V214h-9.182v-4.841h-.273a9.9 9.9 0 0 1-2.25 2.886q-1.409 1.228-3.386 1.932-1.978.682-4.569.682m2.773-6.682q2.136 0 3.773-.841 1.637-.863 2.568-2.318.932-1.455.932-3.295v-3.705q-.455.296-1.25.546-.773.227-1.75.431a83 83 0 0 1-1.955.341l-1.772.25q-1.705.25-2.978.796-1.272.545-1.977 1.477-.705.91-.704 2.273 0 1.977 1.431 3.023 1.455 1.022 3.682 1.022m40.125 19.841q-4.704 0-8.068-1.295-3.34-1.273-5.318-3.478t-2.568-4.954l8.954-1.205q.41 1.046 1.296 1.955.886.91 2.341 1.454 1.476.569 3.59.569 3.159 0 5.205-1.546 2.068-1.523 2.068-5.113v-6.387h-.409q-.637 1.455-1.909 2.75-1.273 1.296-3.273 2.114t-4.772.818q-3.933 0-7.16-1.818-3.204-1.841-5.113-5.614-1.887-3.795-1.887-9.591 0-5.931 1.932-9.909 1.932-3.977 5.137-5.954 3.226-1.978 7.068-1.978 2.931 0 4.909 1 1.977.978 3.182 2.455 1.227 1.454 1.886 2.864h.364v-5.864h9.613v35.25q0 4.454-2.181 7.454t-6.046 4.5q-3.841 1.524-8.841 1.523m.205-21.591q2.34 0 3.954-1.159 1.636-1.182 2.5-3.363.887-2.205.887-5.273t-.864-5.318q-.864-2.274-2.5-3.523t-3.977-1.25q-2.387 0-4.023 1.295-1.637 1.273-2.477 3.546-.841 2.272-.841 5.25 0 3.022.841 5.227.863 2.182 2.477 3.386 1.636 1.182 4.023 1.182m40.477 8.455q-5.386 0-9.273-2.182-3.863-2.204-5.954-6.227-2.091-4.046-2.091-9.568 0-5.387 2.091-9.455t5.886-6.341q3.818-2.273 8.955-2.273 3.455 0 6.431 1.114 3 1.091 5.228 3.295 2.25 2.205 3.5 5.546 1.25 3.318 1.25 7.773v2.659h-29.478v-6h20.364q0-2.091-.909-3.705a6.5 6.5 0 0 0-2.523-2.523q-1.59-.931-3.704-.931-2.205 0-3.909 1.022a7.2 7.2 0 0 0-2.637 2.705q-.954 1.682-.977 3.75v5.704q0 2.591.955 4.478.977 1.886 2.75 2.909 1.772 1.023 4.204 1.023 1.614 0 2.955-.455a6.1 6.1 0 0 0 2.295-1.364 5.94 5.94 0 0 0 1.455-2.227l8.954.591q-.681 3.227-2.795 5.636-2.091 2.387-5.409 3.728-3.296 1.317-7.614 1.318M753.02 214v-34.909h9.227v6.159h.409q1.092-3.068 3.637-4.841t6.091-1.773q3.59 0 6.113 1.796 2.523 1.773 3.364 4.818h.363q1.069-3 3.864-4.795 2.819-1.82 6.659-1.819 4.887 0 7.932 3.114 3.068 3.091 3.068 8.773V214h-9.659v-21.568q0-2.91-1.545-4.364-1.547-1.454-3.864-1.454-2.637 0-4.114 1.681-1.477 1.66-1.477 4.387V214h-9.386v-21.773q0-2.567-1.478-4.091-1.454-1.522-3.84-1.522-1.614 0-2.91.818-1.272.795-2.022 2.25-.75 1.432-.75 3.363V214zm74.284.682q-5.386 0-9.273-2.182-3.863-2.204-5.954-6.227-2.091-4.046-2.091-9.568 0-5.387 2.091-9.455t5.886-6.341q3.818-2.273 8.955-2.273 3.455 0 6.431 1.114 3 1.091 5.228 3.295 2.25 2.205 3.5 5.546 1.25 3.318 1.25 7.773v2.659h-29.478v-6h20.364q0-2.091-.909-3.705a6.5 6.5 0 0 0-2.523-2.523q-1.59-.931-3.704-.931-2.205 0-3.909 1.022a7.2 7.2 0 0 0-2.637 2.705q-.954 1.682-.977 3.75v5.704q0 2.591.955 4.478.977 1.886 2.75 2.909 1.772 1.023 4.204 1.023 1.614 0 2.955-.455a6.1 6.1 0 0 0 2.295-1.364 5.94 5.94 0 0 0 1.455-2.227l8.954.591q-.681 3.227-2.795 5.636-2.091 2.387-5.409 3.728-3.296 1.317-7.614 1.318m32.023-20.864V214h-9.682v-34.909h9.227v6.159h.409q1.159-3.045 3.887-4.818 2.727-1.796 6.613-1.796 3.636 0 6.341 1.591t4.205 4.546q1.5 2.932 1.5 7V214h-9.682v-20.5q.023-3.204-1.636-5-1.66-1.818-4.569-1.818-1.954 0-3.454.841-1.478.84-2.318 2.454-.819 1.591-.841 3.841m48.699-14.727v7.273h-21.023v-7.273zm-16.25-8.364h9.681v32.546q0 1.341.409 2.091a2.26 2.26 0 0 0 1.137 1.022q.75.296 1.727.296a8 8 0 0 0 1.364-.114q.682-.136 1.045-.204l1.523 7.204q-.727.228-2.046.523-1.317.318-3.204.386-3.5.137-6.136-.932-2.614-1.068-4.069-3.318-1.454-2.25-1.431-5.682zm37.551-3.272h12.136l12.818 31.272h.546l12.818-31.272h12.136V214h-9.545v-30.295h-.387l-12.045 30.068h-6.5l-12.045-30.182h-.387V214h-9.545zm99.633 16.295H1019q-.27-1.932-1.11-3.432a8.7 8.7 0 0 0-2.16-2.591 9.5 9.5 0 0 0-3.05-1.636c-1.13-.379-2.37-.568-3.7-.568q-3.615 0-6.3 1.795c-1.78 1.182-3.17 2.909-4.154 5.182q-1.478 3.387-1.478 8.227 0 4.977 1.478 8.364 1.5 3.386 4.184 5.114c1.79 1.151 3.85 1.727 6.2 1.727q1.98 0 3.66-.523a9.6 9.6 0 0 0 3.02-1.523 8.8 8.8 0 0 0 2.19-2.477c.59-.97 1-2.076 1.22-3.318l9.96.045c-.26 2.137-.9 4.197-1.93 6.182-1.02 1.97-2.39 3.735-4.12 5.296-1.71 1.545-3.76 2.772-6.13 3.681-2.37.894-5.04 1.341-8.03 1.341q-6.224 0-11.134-2.818-4.886-2.818-7.727-8.159-2.818-5.341-2.818-12.932 0-7.613 2.864-12.954t7.772-8.137q4.909-2.817 11.043-2.818 4.05 0 7.5 1.137c2.32.757 4.37 1.863 6.16 3.318 1.79 1.439 3.24 3.204 4.37 5.295s1.86 4.485 2.18 7.182m7.05 30.25v-46.545h18.37c3.53 0 6.54.674 9.02 2.022 2.49 1.334 4.38 3.19 5.68 5.568q1.98 3.546 1.98 8.182c0 3.091-.67 5.818-2 8.182s-3.27 4.205-5.8 5.523c-2.51 1.318-5.56 1.977-9.13 1.977h-11.71v-7.886h10.12q2.835 0 4.68-.978c1.24-.666 2.17-1.583 2.77-2.75q.93-1.772.93-4.068 0-2.318-.93-4.045c-.6-1.167-1.53-2.068-2.77-2.705-1.24-.651-2.82-.977-4.73-.977h-6.63V214z"/><path fill="#cbd5e1" d="M331.378 256.42v-1.875h13.091v1.875h-5.489V272h-2.114v-15.58zm15.876 20.489q-.511 0-.912-.085-.4-.076-.554-.154l.511-1.772q.733.187 1.295.136.563-.051.998-.503.443-.443.809-1.44l.375-1.023-4.841-13.159h2.182l3.614 10.432h.136l3.614-10.432h2.182l-5.557 15q-.375 1.014-.929 1.679a3.5 3.5 0 0 1-1.287.997q-.724.324-1.636.324m12.063 0v-18h1.944v2.08h.238q.222-.341.614-.87.4-.537 1.142-.954.75-.426 2.028-.426 1.654 0 2.915.826 1.261.827 1.969 2.344.707 1.517.707 3.58 0 2.08-.707 3.605-.708 1.517-1.96 2.352-1.254.827-2.89.827-1.26 0-2.019-.418-.759-.426-1.168-.963a13 13 0 0 1-.631-.903h-.17v6.92zm1.978-11.454q0 1.482.434 2.616.435 1.125 1.27 1.764.835.631 2.046.631 1.261 0 2.105-.665.852-.673 1.278-1.807.435-1.142.435-2.539 0-1.381-.426-2.489-.418-1.116-1.27-1.764-.844-.657-2.122-.657-1.227 0-2.063.623-.835.614-1.261 1.721-.426 1.1-.426 2.566m18.136 6.818q-1.892 0-3.264-.835-1.364-.844-2.105-2.353-.733-1.517-.733-3.528t.733-3.546q.741-1.542 2.062-2.403 1.33-.87 3.103-.869 1.022 0 2.019.341.997.34 1.816 1.108.818.758 1.304 2.011.486 1.252.486 3.085v.852h-10.091v-1.738h8.045q0-1.108-.443-1.978a3.35 3.35 0 0 0-1.244-1.372q-.801-.503-1.892-.503-1.203 0-2.08.597a3.9 3.9 0 0 0-1.338 1.534 4.5 4.5 0 0 0-.469 2.029v1.159q0 1.482.512 2.514.519 1.023 1.44 1.56.921.528 2.139.528.793 0 1.432-.222a3 3 0 0 0 1.116-.682q.469-.46.725-1.142l1.943.546a4.3 4.3 0 0 1-1.031 1.739q-.725.74-1.79 1.159-1.065.409-2.395.409m13.423 0q-1.636 0-2.889-.827-1.252-.836-1.96-2.352-.707-1.526-.707-3.605 0-2.063.707-3.58.708-1.517 1.969-2.344 1.261-.826 2.914-.826 1.28 0 2.02.426.75.417 1.142.954.4.529.623.87h.17v-6.444h2.011V272h-1.943v-2.011h-.238q-.222.357-.631.903-.41.537-1.168.963-.758.418-2.02.418m.273-1.807q1.21 0 2.046-.631.835-.639 1.269-1.764.435-1.134.435-2.616 0-1.467-.426-2.566-.426-1.107-1.261-1.721-.836-.623-2.063-.623-1.278 0-2.131.657-.843.648-1.269 1.764-.418 1.108-.418 2.489 0 1.397.426 2.539.435 1.134 1.278 1.807.853.665 2.114.665m12.69-.852-.136.92a18 18 0 0 1-.443 2.08 40 40 0 0 1-.605 2.088q-.316.98-.52 1.559h-1.534l.29-1.44q.178-.895.358-2.003a34 34 0 0 0 .306-2.25l.103-.954zm10.477 7.295v-18h1.943v2.08h.239q.222-.341.613-.87.401-.537 1.143-.954.75-.426 2.028-.426 1.653 0 2.915.826 1.262.827 1.968 2.344.708 1.517.708 3.58 0 2.08-.708 3.605-.707 1.517-1.96 2.352-1.252.827-2.889.827-1.261 0-2.02-.418-.759-.426-1.167-.963a13 13 0 0 1-.631-.903h-.171v6.92zm1.977-11.454q0 1.482.435 2.616.435 1.125 1.27 1.764.835.631 2.045.631 1.262 0 2.105-.665.853-.673 1.279-1.807.435-1.142.434-2.539 0-1.381-.426-2.489-.417-1.116-1.27-1.764-.843-.657-2.122-.657-1.227 0-2.062.623-.835.614-1.262 1.721-.426 1.1-.426 2.566M430.919 272v-13.091h1.943v1.977h.137q.357-.971 1.295-1.576a3.8 3.8 0 0 1 2.114-.605q.22 0 .554.008.332.008.502.026v2.045a6 6 0 0 0-.468-.077 5 5 0 0 0-.759-.059q-.954 0-1.704.4a3 3 0 0 0-1.176 1.091q-.427.69-.427 1.577V272zm13.849.273q-1.772 0-3.11-.844-1.33-.844-2.08-2.361-.741-1.517-.741-3.545 0-2.046.741-3.571.75-1.525 2.08-2.37 1.338-.843 3.11-.843 1.773 0 3.103.843 1.338.845 2.079 2.37.75 1.525.75 3.571 0 2.028-.75 3.545-.741 1.517-2.079 2.361-1.33.844-3.103.844m0-1.807q1.347 0 2.216-.69.87-.691 1.287-1.816.418-1.125.418-2.437 0-1.313-.418-2.446-.417-1.134-1.287-1.833t-2.216-.699-2.215.699-1.287 1.833a7 7 0 0 0-.418 2.446q0 1.312.418 2.437.417 1.125 1.287 1.816.869.69 2.215.69m14.832-11.557v1.705h-7.057v-1.705zM454.657 272v-14.898q0-1.125.528-1.875.529-.75 1.373-1.125a4.3 4.3 0 0 1 1.781-.375q.742 0 1.21.12.469.119.699.221l-.58 1.739a10 10 0 0 0-.426-.128 2.6 2.6 0 0 0-.699-.077q-.997 0-1.44.503-.435.503-.435 1.475V272zm7.762 0v-13.091h2.011V272zm1.023-15.273a1.43 1.43 0 0 1-1.014-.4 1.29 1.29 0 0 1-.418-.963q0-.563.418-.963a1.43 1.43 0 0 1 1.014-.401 1.4 1.4 0 0 1 1.005.401q.427.4.427.963t-.427.963q-.417.4-1.005.4m6.684-2.182V272h-2.012v-17.455zm9.172 17.728q-1.892 0-3.264-.835-1.364-.844-2.105-2.353-.733-1.517-.733-3.528t.733-3.546q.742-1.542 2.062-2.403 1.33-.87 3.103-.869 1.023 0 2.02.341.997.34 1.815 1.108.818.758 1.304 2.011.486 1.252.486 3.085v.852h-10.091v-1.738h8.045q0-1.108-.443-1.978a3.35 3.35 0 0 0-1.244-1.372q-.801-.503-1.892-.503-1.202 0-2.08.597a3.93 3.93 0 0 0-1.338 1.534 4.5 4.5 0 0 0-.469 2.029v1.159q0 1.482.512 2.514.519 1.023 1.44 1.56.921.528 2.139.528.793 0 1.432-.222.648-.23 1.117-.682.469-.46.724-1.142l1.943.546a4.3 4.3 0 0 1-1.031 1.739q-.725.74-1.79 1.159-1.065.409-2.395.409m15.98-8.693v1.875h-7.636v-1.875zm8.824 13.602q-1.458 0-2.506-.375-1.048-.367-1.747-.972a5.3 5.3 0 0 1-1.1-1.278l1.603-1.125q.272.357.69.818.417.468 1.142.81.733.35 1.918.349 1.585 0 2.616-.767t1.031-2.403v-2.659h-.17q-.222.358-.631.886-.4.52-1.159.929-.75.4-2.028.4-1.585 0-2.847-.75-1.252-.75-1.986-2.181-.724-1.432-.724-3.478 0-2.011.707-3.502.708-1.5 1.969-2.319 1.261-.826 2.915-.826 1.278 0 2.028.426.759.417 1.159.954.41.529.631.87h.204v-2.08h1.944v13.466q0 1.688-.767 2.744-.759 1.066-2.046 1.56-1.278.503-2.846.503m-.069-7.193q1.21 0 2.046-.554.835-.555 1.27-1.594.434-1.04.434-2.489 0-1.414-.426-2.497t-1.261-1.696-2.063-.614q-1.278 0-2.13.648-.844.648-1.27 1.739-.418 1.09-.418 2.42 0 1.364.426 2.412.435 1.04 1.279 1.637.852.588 2.113.588m13.262 2.318q-1.245 0-2.259-.469a3.9 3.9 0 0 1-1.611-1.372q-.596-.903-.596-2.182 0-1.125.443-1.824.443-.707 1.185-1.108a6.2 6.2 0 0 1 1.636-.596 20 20 0 0 1 1.815-.324 83 83 0 0 1 1.935-.23q.75-.086 1.091-.282.35-.196.349-.681v-.069q0-1.26-.69-1.96-.682-.699-2.071-.699-1.44 0-2.259.631-.817.63-1.15 1.347l-1.909-.682q.511-1.194 1.363-1.858a5.1 5.1 0 0 1 1.875-.938 7.8 7.8 0 0 1 2.012-.272 8 8 0 0 1 1.449.153 4.6 4.6 0 0 1 1.593.605q.776.46 1.287 1.389.512.93.512 2.489V272h-2.012v-1.773h-.102q-.205.426-.682.912t-1.27.827-1.934.341m.307-1.807q1.192 0 2.011-.469.827-.469 1.244-1.21a3.1 3.1 0 0 0 .426-1.56v-1.841q-.127.154-.562.282a10 10 0 0 1-.989.213q-.554.086-1.082.153-.52.06-.844.102a7.7 7.7 0 0 0-1.466.333q-.673.222-1.091.673-.409.444-.409 1.21 0 1.049.776 1.586.783.528 1.986.528m15.057-11.591v1.705h-6.784v-1.705zm-4.807-3.136h2.012v12.477q0 .852.247 1.278.255.418.648.563.4.136.843.136.333 0 .546-.034l.341-.068.409 1.807a4 4 0 0 1-.571.153 4.2 4.2 0 0 1-.929.085 4.1 4.1 0 0 1-1.671-.366 3.3 3.3 0 0 1-1.346-1.116q-.53-.75-.529-1.893zm13.181 16.5q-1.893 0-3.265-.835-1.363-.844-2.105-2.353-.733-1.517-.733-3.528t.733-3.546q.742-1.542 2.063-2.403 1.329-.87 3.102-.869 1.023 0 2.02.341.997.34 1.815 1.108.819.758 1.304 2.011.486 1.252.486 3.085v.852h-10.091v-1.738h8.046q0-1.108-.444-1.978a3.34 3.34 0 0 0-1.244-1.372q-.801-.503-1.892-.503-1.202 0-2.079.597a3.9 3.9 0 0 0-1.338 1.534 4.5 4.5 0 0 0-.469 2.029v1.159q0 1.482.511 2.514.52 1.023 1.44 1.56.92.528 2.14.528.792 0 1.431-.222.648-.23 1.117-.682.468-.46.724-1.142l1.944.546a4.3 4.3 0 0 1-1.032 1.739 5 5 0 0 1-1.789 1.159q-1.066.409-2.395.409m13.423 0q-1.636 0-2.889-.827-1.253-.836-1.96-2.352-.708-1.526-.708-3.605 0-2.063.708-3.58.707-1.517 1.968-2.344 1.262-.826 2.915-.826 1.278 0 2.02.426.75.417 1.142.954.4.529.622.87h.171v-6.444h2.011V272h-1.943v-2.011h-.239q-.222.357-.631.903-.408.537-1.167.963-.759.418-2.02.418m.273-1.807q1.21 0 2.045-.631.835-.639 1.27-1.764.435-1.134.435-2.616 0-1.467-.426-2.566-.427-1.107-1.262-1.721-.835-.623-2.062-.623-1.28 0-2.131.657-.844.648-1.27 1.764-.417 1.108-.417 2.489 0 1.397.426 2.539.434 1.134 1.278 1.807.852.665 2.114.665m16.713-15.921h2.522l5.932 14.489h.205l5.932-14.489h2.522V272h-1.977v-13.261h-.17L580.953 272h-1.909l-5.455-13.261h-.17V272h-1.977zM606.839 260h-2.114a4.4 4.4 0 0 0-1.781-2.761 4.8 4.8 0 0 0-1.457-.716 5.8 5.8 0 0 0-1.671-.239q-1.585 0-2.872.801-1.278.801-2.037 2.361-.75 1.56-.75 3.827t.75 3.826q.759 1.56 2.037 2.361 1.287.801 2.872.801a5.8 5.8 0 0 0 1.671-.238 4.9 4.9 0 0 0 1.457-.708 4.5 4.5 0 0 0 1.125-1.167q.468-.699.656-1.603h2.114a7 7 0 0 1-.87 2.395 6.5 6.5 0 0 1-1.568 1.799 6.9 6.9 0 0 1-2.105 1.116 7.8 7.8 0 0 1-2.48.384q-2.233 0-3.972-1.091-1.739-1.092-2.735-3.103-.997-2.01-.997-4.772t.997-4.773q.996-2.012 2.735-3.102 1.74-1.092 3.972-1.091 1.321 0 2.48.383 1.168.384 2.105 1.125a6.4 6.4 0 0 1 1.568 1.79q.631 1.048.87 2.395m3.415 12v-17.455h5.898q2.054 0 3.358.742 1.313.733 1.943 1.986t.631 2.795q0 1.543-.631 2.804-.622 1.262-1.926 2.012-1.304.741-3.341.741h-4.227v-1.875h4.159q1.406 0 2.258-.486t1.236-1.312q.393-.836.392-1.884 0-1.048-.392-1.875-.383-.827-1.244-1.295-.86-.478-2.284-.478h-3.716V272zm27.405-13.091v1.705h-6.784v-1.705zm-4.807-3.136h2.012v12.477q0 .852.247 1.278.255.418.648.563.4.136.843.136.333 0 .546-.034l.341-.068.409 1.807a4 4 0 0 1-.571.153 4.2 4.2 0 0 1-.929.085 4.1 4.1 0 0 1-1.671-.366 3.3 3.3 0 0 1-1.346-1.116q-.53-.75-.529-1.893zm13.01 16.5q-1.773 0-3.111-.844-1.329-.844-2.079-2.361-.741-1.517-.742-3.545 0-2.046.742-3.571.75-1.525 2.079-2.37 1.338-.843 3.111-.843t3.102.843q1.34.845 2.08 2.37.75 1.525.75 3.571 0 2.028-.75 3.545-.74 1.517-2.08 2.361-1.329.844-3.102.844m0-1.807q1.347 0 2.216-.69.87-.691 1.287-1.816.418-1.125.418-2.437 0-1.313-.418-2.446-.417-1.134-1.287-1.833t-2.216-.699-2.216.699-1.287 1.833a7 7 0 0 0-.417 2.446q0 1.312.417 2.437.418 1.125 1.287 1.816.87.69 2.216.69m14.321 1.807q-1.773 0-3.111-.844-1.33-.844-2.08-2.361-.741-1.517-.741-3.545 0-2.046.741-3.571.75-1.525 2.08-2.37 1.338-.843 3.111-.843 1.772 0 3.102.843 1.338.845 2.079 2.37.75 1.525.75 3.571 0 2.028-.75 3.545-.741 1.517-2.079 2.361-1.33.844-3.102.844m0-1.807q1.346 0 2.215-.69.87-.691 1.287-1.816.418-1.125.418-2.437 0-1.313-.418-2.446-.417-1.134-1.287-1.833t-2.215-.699q-1.347 0-2.216.699t-1.287 1.833a7 7 0 0 0-.418 2.446q0 1.312.418 2.437.417 1.125 1.287 1.816.869.69 2.216.69m11.013-15.921V272h-2.011v-17.455zm12.957 7.296-1.807.511a3.4 3.4 0 0 0-.503-.878 2.44 2.44 0 0 0-.886-.715q-.562-.282-1.441-.282-1.201 0-2.003.554-.792.546-.792 1.389 0 .75.545 1.185.546.435 1.705.725l1.943.477q1.756.426 2.617 1.304.86.869.86 2.241a3.33 3.33 0 0 1-.647 2.012q-.64.886-1.79 1.397-1.15.512-2.676.512-2.004 0-3.316-.87-1.312-.869-1.662-2.539l1.91-.478q.272 1.057 1.031 1.586.767.528 2.003.528 1.405 0 2.233-.597.835-.605.835-1.448 0-.682-.477-1.143-.478-.468-1.466-.698l-2.182-.512q-1.799-.426-2.642-1.321-.835-.903-.835-2.258 0-1.108.622-1.961.63-.852 1.713-1.338 1.09-.485 2.471-.485 1.944 0 3.051.852 1.117.852 1.586 2.25m15.846-2.932v1.705h-7.057v-1.705zM695.055 272v-14.898q0-1.125.529-1.875a3.27 3.27 0 0 1 1.372-1.125 4.3 4.3 0 0 1 1.781-.375q.742 0 1.21.12.47.119.699.221l-.579 1.739a11 11 0 0 0-.426-.128 2.6 2.6 0 0 0-.699-.077q-.997 0-1.441.503-.434.503-.434 1.475V272zm12.542.273q-1.773 0-3.111-.844-1.33-.844-2.08-2.361-.741-1.517-.741-3.545 0-2.046.741-3.571.75-1.525 2.08-2.37 1.338-.843 3.111-.843 1.772 0 3.102.843 1.338.845 2.079 2.37.75 1.525.75 3.571 0 2.028-.75 3.545-.741 1.517-2.079 2.361-1.33.844-3.102.844m0-1.807q1.346 0 2.215-.69.87-.691 1.287-1.816.418-1.125.418-2.437 0-1.313-.418-2.446-.417-1.134-1.287-1.833t-2.215-.699q-1.347 0-2.216.699t-1.287 1.833a7 7 0 0 0-.418 2.446q0 1.312.418 2.437.417 1.125 1.287 1.816.869.69 2.216.69m9.002 1.534v-13.091h1.943v1.977h.136q.359-.971 1.296-1.576a3.8 3.8 0 0 1 2.113-.605q.222 0 .554.008t.503.026v2.045a6 6 0 0 0-.469-.077 5 5 0 0 0-.758-.059q-.954 0-1.705.4a3.03 3.03 0 0 0-1.176 1.091 2.94 2.94 0 0 0-.426 1.577V272zm15.679 0v-13.091h1.944v2.046h.17a3.3 3.3 0 0 1 1.321-1.628q.912-.588 2.19-.588 1.296 0 2.157.588.869.58 1.355 1.628h.136a3.8 3.8 0 0 1 1.509-1.611q1.005-.606 2.412-.605 1.755 0 2.872 1.099 1.116 1.09 1.116 3.401V272h-2.011v-8.761q0-1.45-.793-2.071-.792-.623-1.866-.623-1.381 0-2.139.836-.759.827-.759 2.096V272h-2.045v-8.966q0-1.117-.725-1.798-.724-.69-1.866-.691a2.76 2.76 0 0 0-1.466.418 3.15 3.15 0 0 0-1.091 1.159q-.41.733-.409 1.696V272zm24.712.307q-1.244 0-2.258-.469a3.87 3.87 0 0 1-1.611-1.372q-.597-.903-.597-2.182 0-1.125.443-1.824a3.14 3.14 0 0 1 1.185-1.108 6.2 6.2 0 0 1 1.636-.596 20 20 0 0 1 1.816-.324 83 83 0 0 1 1.934-.23q.75-.086 1.091-.282.35-.196.35-.681v-.069q0-1.26-.691-1.96-.681-.699-2.071-.699-1.44 0-2.258.631-.818.63-1.151 1.347l-1.909-.682q.512-1.194 1.364-1.858a5.1 5.1 0 0 1 1.875-.938 7.8 7.8 0 0 1 2.011-.272q.632 0 1.449.153a4.7 4.7 0 0 1 1.594.605q.776.46 1.287 1.389.511.93.511 2.489V272h-2.011v-1.773h-.103q-.204.426-.681.912t-1.27.827-1.935.341m.307-1.807q1.193 0 2.011-.469.827-.469 1.245-1.21a3.1 3.1 0 0 0 .426-1.56v-1.841q-.129.154-.563.282-.426.118-.988.213a43 43 0 0 1-1.927.255 7.7 7.7 0 0 0-1.465.333q-.674.222-1.091.673-.41.444-.409 1.21 0 1.049.775 1.586.784.528 1.986.528m11.376-6.375V272h-2.012v-13.091h1.943v2.046h.171a3.74 3.74 0 0 1 1.398-1.603q.937-.613 2.42-.613 1.33 0 2.327.545.997.538 1.551 1.636.554 1.092.554 2.762V272h-2.012v-8.182q0-1.542-.801-2.403-.801-.87-2.199-.87-.962 0-1.721.418-.75.418-1.185 1.219-.434.801-.434 1.943m15.88 8.182q-1.245 0-2.259-.469a3.9 3.9 0 0 1-1.611-1.372q-.596-.903-.596-2.182 0-1.125.443-1.824a3.13 3.13 0 0 1 1.184-1.108 6.2 6.2 0 0 1 1.637-.596 20 20 0 0 1 1.815-.324 83 83 0 0 1 1.935-.23q.75-.086 1.091-.282.35-.196.349-.681v-.069q0-1.26-.69-1.96-.682-.699-2.071-.699-1.44 0-2.259.631-.818.63-1.15 1.347l-1.909-.682q.511-1.194 1.363-1.858a5.1 5.1 0 0 1 1.875-.938 7.8 7.8 0 0 1 2.012-.272 8 8 0 0 1 1.449.153 4.6 4.6 0 0 1 1.593.605q.776.46 1.287 1.389.512.93.512 2.489V272h-2.012v-1.773h-.102q-.204.426-.682.912-.477.486-1.27.827-.792.34-1.934.341m.306-1.807q1.194 0 2.012-.469.827-.469 1.244-1.21a3.1 3.1 0 0 0 .426-1.56v-1.841q-.128.154-.562.282a10 10 0 0 1-.989.213q-.554.086-1.082.153-.52.06-.844.102a7.7 7.7 0 0 0-1.466.333q-.673.222-1.091.673-.41.444-.409 1.21 0 1.049.776 1.586.783.528 1.985.528m14.649 6.682q-1.458 0-2.506-.375-1.048-.367-1.747-.972a5.3 5.3 0 0 1-1.099-1.278l1.602-1.125q.273.357.69.818.418.468 1.142.81.733.35 1.918.349 1.586 0 2.616-.767 1.032-.767 1.032-2.403v-2.659h-.171q-.222.358-.631.886-.4.52-1.159.929-.75.4-2.028.4-1.586 0-2.847-.75-1.253-.75-1.985-2.181-.725-1.432-.725-3.478 0-2.011.707-3.502.708-1.5 1.969-2.319 1.262-.826 2.915-.826 1.278 0 2.028.426.759.417 1.159.954.41.529.631.87h.205v-2.08h1.943v13.466q0 1.688-.767 2.744-.759 1.066-2.046 1.56-1.278.503-2.846.503m-.068-7.193q1.21 0 2.045-.554.835-.555 1.27-1.594t.435-2.489q0-1.414-.427-2.497-.426-1.082-1.261-1.696t-2.062-.614q-1.28 0-2.131.648-.844.648-1.27 1.739-.418 1.09-.418 2.42 0 1.364.427 2.412.434 1.04 1.278 1.637.852.588 2.114.588m9.409 2.011v-13.091h2.011V272zm1.022-15.273a1.43 1.43 0 0 1-1.014-.4 1.29 1.29 0 0 1-.417-.963q0-.563.417-.963a1.43 1.43 0 0 1 1.014-.401q.588 0 1.006.401.426.4.426.963t-.426.963a1.4 1.4 0 0 1-1.006.4m6.684 7.398V272h-2.011v-13.091h1.943v2.046h.171a3.74 3.74 0 0 1 1.397-1.603q.938-.613 2.421-.613 1.33 0 2.327.545.996.538 1.551 1.636.554 1.092.554 2.762V272h-2.012v-8.182q0-1.542-.801-2.403-.801-.87-2.199-.87-.963 0-1.721.418-.75.418-1.185 1.219t-.435 1.943m17.312 13.057q-1.457 0-2.505-.375-1.049-.367-1.748-.972a5.3 5.3 0 0 1-1.099-1.278l1.602-1.125q.273.357.691.818.417.468 1.142.81.732.35 1.917.349 1.585 0 2.617-.767 1.03-.767 1.031-2.403v-2.659h-.171q-.22.358-.63.886-.401.52-1.159.929-.75.4-2.029.4-1.585 0-2.846-.75-1.253-.75-1.986-2.181-.725-1.432-.725-3.478 0-2.011.708-3.502.707-1.5 1.969-2.319 1.261-.826 2.914-.826 1.28 0 2.029.426.758.417 1.159.954.41.529.631.87h.204v-2.08h1.943v13.466q0 1.688-.767 2.744-.758 1.066-2.045 1.56-1.278.503-2.847.503m-.068-7.193q1.21 0 2.045-.554.836-.555 1.27-1.594t.435-2.489q0-1.414-.426-2.497-.427-1.082-1.261-1.696-.836-.614-2.063-.614-1.278 0-2.131.648-.843.648-1.27 1.739-.417 1.09-.417 2.42 0 1.364.426 2.412.435 1.04 1.278 1.637.853.588 2.114.588m16.432-15.444h2.523l5.931 14.489h.205l5.932-14.489h2.522V272h-1.977v-13.261h-.17L859.742 272h-1.909l-5.454-13.261h-.171V272h-1.977zM885.628 260h-2.114a4.4 4.4 0 0 0-1.781-2.761 4.8 4.8 0 0 0-1.457-.716 5.8 5.8 0 0 0-1.671-.239q-1.585 0-2.872.801-1.278.801-2.037 2.361-.75 1.56-.75 3.827t.75 3.826q.759 1.56 2.037 2.361 1.287.801 2.872.801a5.8 5.8 0 0 0 1.671-.238 4.9 4.9 0 0 0 1.457-.708 4.5 4.5 0 0 0 1.125-1.167q.468-.699.656-1.603h2.114a7 7 0 0 1-.869 2.395 6.6 6.6 0 0 1-1.569 1.799 6.9 6.9 0 0 1-2.105 1.116 7.8 7.8 0 0 1-2.48.384q-2.233 0-3.971-1.091-1.74-1.092-2.736-3.103-.997-2.01-.997-4.772t.997-4.773 2.736-3.102q1.738-1.092 3.971-1.091a7.9 7.9 0 0 1 2.48.383q1.168.384 2.105 1.125a6.5 6.5 0 0 1 1.569 1.79q.63 1.048.869 2.395m3.415 12v-17.455h5.898q2.054 0 3.358.742 1.313.733 1.943 1.986t.631 2.795q0 1.543-.631 2.804-.622 1.262-1.926 2.012-1.304.741-3.341.741h-4.227v-1.875h4.159q1.406 0 2.258-.486.854-.486 1.236-1.312.392-.836.392-1.884t-.392-1.875q-.383-.827-1.244-1.295-.86-.478-2.284-.478h-3.716V272zm15.235 0v-17.455h2.113v7.773h9.307v-7.773h2.114V272h-2.114v-7.807h-9.307V272zm25.743-5.352v-7.739h2.011V272h-2.011v-2.216h-.137q-.46.997-1.432 1.696-.97.69-2.454.69-1.228 0-2.182-.536-.954-.546-1.5-1.637-.546-1.1-.545-2.77v-8.318h2.011v8.182q0 1.432.801 2.284.81.852 2.063.852.75 0 1.525-.383.784-.384 1.313-1.176.537-.793.537-2.02m5.968 5.352v-17.455H938v6.444h.17q.222-.341.614-.87.4-.537 1.142-.954.75-.426 2.029-.426 1.653 0 2.914.826 1.261.827 1.969 2.344.707 1.517.707 3.58 0 2.08-.707 3.605-.708 1.517-1.96 2.352-1.253.827-2.889.827-1.262 0-2.02-.418-.759-.426-1.168-.963a13 13 0 0 1-.631-.903h-.238V272zm1.977-6.545q0 1.482.435 2.616.434 1.125 1.269 1.764.836.631 2.046.631 1.262 0 2.105-.665.852-.673 1.278-1.807.435-1.142.435-2.539 0-1.381-.426-2.489-.418-1.116-1.27-1.764-.843-.657-2.122-.657-1.227 0-2.063.623-.834.614-1.261 1.721-.426 1.1-.426 2.566"/><g stroke="#e2e8f0" stroke-width="6" filter="url(#b)"><path d="M542.667 404.697h74.924"/><path stroke-linejoin="round" d="m594.649 387.323 22.942 17.374-22.942 17.374"/></g><path fill="#e2e8f0" d="M141.188 419.207h-10.227l11.522-34.909h12.955l11.523 34.909h-10.228l-7.636-25.295h-.273zm-1.909-13.773h19.227v7.091h-19.227zm52.074-9.613a4.7 4.7 0 0 0-.699-1.586 4.4 4.4 0 0 0-1.193-1.176 4.9 4.9 0 0 0-1.637-.733 7.6 7.6 0 0 0-2.028-.255q-2.387 0-4.074 1.142-1.67 1.142-2.557 3.289-.869 2.149-.869 5.182 0 3.069.835 5.25t2.489 3.341q1.653 1.16 4.108 1.159 2.165 0 3.596-.63 1.45-.631 2.165-1.79t.716-2.727l1.636.17h-7.977v-6.75h15.477v4.841q0 4.773-2.028 8.165-2.011 3.375-5.557 5.182-3.528 1.79-8.096 1.789-5.097 0-8.949-2.164-3.853-2.165-6.017-6.171-2.148-4.006-2.148-9.528 0-4.33 1.312-7.671 1.33-3.34 3.682-5.642a15.6 15.6 0 0 1 5.438-3.494q3.085-1.193 6.613-1.193 3.103 0 5.762.886 2.676.87 4.721 2.489a12.9 12.9 0 0 1 3.324 3.801q1.261 2.199 1.534 4.824zm14.407 23.386v-34.909h25.159v7.636h-15.681v6h14.386v7.637h-14.386v6h15.613v7.636zm60.064-34.909v34.909h-7.909l-12.613-18.341h-.205v18.341h-9.477v-34.909h8.045l12.409 18.273h.273v-18.273zm3.529 7.636v-7.636h30.341v7.636h-10.5v27.273h-9.341v-27.273zm52.726 3.273q-.136-1.705-1.279-2.659-1.125-.955-3.426-.955-1.466 0-2.403.358-.921.341-1.364.938a2.3 2.3 0 0 0-.46 1.363q-.034.632.221 1.143.273.493.853.903.579.392 1.483.716.903.324 2.147.579l2.864.614q2.898.614 4.96 1.619 2.063 1.006 3.375 2.37a8.44 8.44 0 0 1 1.926 3.034q.631 1.687.648 3.682-.017 3.442-1.722 5.829-1.704 2.386-4.875 3.631-3.153 1.244-7.585 1.244-4.551 0-7.943-1.346-3.375-1.347-5.25-4.143-1.858-2.812-1.875-7.193h9q.086 1.602.801 2.693.716 1.092 2.012 1.654 1.312.562 3.119.562 1.517 0 2.54-.375 1.021-.375 1.551-1.039.528-.666.545-1.517-.017-.802-.528-1.398-.495-.614-1.637-1.091-1.141-.494-3.085-.921l-3.477-.75q-4.636-1.005-7.313-3.357-2.658-2.37-2.642-6.461-.017-3.324 1.773-5.812 1.807-2.506 4.994-3.904 3.205-1.397 7.347-1.397 4.227 0 7.313 1.414 3.085 1.416 4.755 3.989 1.687 2.557 1.705 5.983zm27.963 13.466q-1.978 0-3.392-1.381-1.398-1.397-1.381-3.392-.017-1.942 1.381-3.324 1.414-1.38 3.392-1.38 1.875 0 3.306 1.38 1.45 1.381 1.466 3.324a4.6 4.6 0 0 1-.699 2.421 5.14 5.14 0 0 1-1.738 1.721 4.5 4.5 0 0 1-2.335.631m51.903-11.284h-9.614a6.5 6.5 0 0 0-.545-2.165 4.9 4.9 0 0 0-1.193-1.67 5 5 0 0 0-1.824-1.091q-1.074-.392-2.438-.392-2.386 0-4.039 1.159-1.637 1.158-2.489 3.324-.835 2.165-.835 5.198 0 3.205.852 5.37.87 2.148 2.506 3.238 1.636 1.074 3.937 1.074 1.313 0 2.352-.324a5.5 5.5 0 0 0 1.807-.971 5 5 0 0 0 1.245-1.517 6.1 6.1 0 0 0 .664-2.029l9.614.069q-.17 2.216-1.244 4.517-1.074 2.283-3.051 4.227-1.961 1.926-4.858 3.102-2.899 1.176-6.733 1.176-4.807 0-8.625-2.062-3.801-2.063-6.017-6.068-2.199-4.006-2.199-9.802 0-5.83 2.25-9.818 2.25-4.005 6.068-6.051 3.817-2.062 8.523-2.062 3.307 0 6.085.903t4.875 2.642q2.097 1.722 3.375 4.244 1.278 2.523 1.551 5.779m13.777-13.091v34.909h-9.477v-34.909z"/><path fill="#e5e7eb" d="M728.349 355.833h30v7.5h-22.5v22.5h-7.5zM810.849 363.333h-22.5v-7.5h30v30h-7.5zM810.849 415.833h7.5v30h-30v-7.5h22.5zM728.349 415.833h7.5v22.5h22.5v7.5h-30z"/><path fill="#bf4e0d" d="M780.849 389.583h-15a3.75 3.75 0 0 0-3.75 3.75v15a3.75 3.75 0 0 0 3.75 3.75h15a3.75 3.75 0 0 0 3.75-3.75v-15a3.75 3.75 0 0 0-3.75-3.75"/><path fill="#e2e8f0" d="M850.536 377.788h15.727l10.819 26.363h.545l10.818-26.363h15.727v46.545h-12.363v-26.909h-.364l-10.363 26.546h-7.455l-10.364-26.728h-.363v27.091h-12.364zm103.08 17.454h-12.819q-.135-1.59-.727-2.886a6.5 6.5 0 0 0-1.591-2.227q-1-.955-2.432-1.455-1.43-.523-3.25-.523-3.181 0-5.386 1.546-2.181 1.546-3.318 4.432-1.113 2.886-1.114 6.932 0 4.272 1.137 7.159 1.158 2.863 3.341 4.318 2.181 1.432 5.25 1.432 1.75 0 3.136-.432 1.386-.454 2.409-1.296a6.7 6.7 0 0 0 1.659-2.022q.66-1.205.886-2.705l12.819.091q-.228 2.954-1.659 6.023-1.432 3.045-4.069 5.636-2.613 2.568-6.477 4.136t-8.977 1.569q-6.41 0-11.5-2.75-5.068-2.751-8.023-8.091-2.931-5.341-2.932-13.068 0-7.773 3-13.091 3-5.341 8.091-8.069 5.091-2.75 11.364-2.75 4.409 0 8.113 1.205 3.705 1.204 6.5 3.523 2.796 2.295 4.5 5.659t2.069 7.704m5.733 29.091v-46.545h20.091q5.181 0 9.068 2.045t6.045 5.75q2.16 3.705 2.159 8.659 0 5-2.227 8.659-2.205 3.66-6.205 5.637-3.977 1.977-9.295 1.977h-12v-9.818h9.455q2.227 0 3.795-.773 1.591-.795 2.432-2.25.864-1.453.863-3.432 0-2-.863-3.409-.841-1.432-2.432-2.182-1.568-.772-3.795-.772h-4.455v36.454zm42.001 0v-46.545h12.63v18.182h16.73v-18.182h12.64v46.545h-12.64v-18.182h-16.73v18.182zm70.82-15.272v-19.637h12.54v34.909h-11.91v-6.636h-.36c-.76 2.227-2.08 3.97-3.98 5.227q-2.835 1.864-6.75 1.864c-2.44 0-4.57-.561-6.41-1.682-1.82-1.121-3.23-2.667-4.25-4.636-1-1.97-1.5-4.228-1.52-6.773v-22.273h12.55v19.637c.01 1.727.45 3.083 1.31 4.068q1.32 1.477 3.69 1.477 1.56 0 2.7-.659a4.5 4.5 0 0 0 1.77-1.909c.43-.833.63-1.826.62-2.977m18.74 15.272v-46.545h12.55v17.727h.18a10.4 10.4 0 0 1 2-3.25q1.32-1.5 3.27-2.386c1.3-.606 2.82-.909 4.55-.909 2.3 0 4.49.613 6.56 1.841 2.1 1.227 3.79 3.159 5.1 5.795s1.97 6.061 1.97 10.273c0 4.03-.63 7.371-1.88 10.022-1.25 2.652-2.91 4.629-5 5.932q-3.12 1.955-6.84 1.955c-1.64 0-3.1-.265-4.39-.796q-1.905-.818-3.27-2.204-1.35-1.41-2.07-3.182h-.27v5.727zm12.27-17.454q0 2.545.66 4.409c.46 1.227 1.09 2.182 1.91 2.863.84.667 1.83 1 2.98 1s2.13-.325 2.93-.977q1.23-.999 1.86-2.841.66-1.863.66-4.454 0-2.592-.66-4.432-.63-1.863-1.86-2.841c-.8-.667-1.78-1-2.93-1s-2.14.333-2.98 1c-.82.652-1.45 1.599-1.91 2.841q-.66 1.84-.66 4.432"/><defs><linearGradient id="a" x1="0" x2="1312.05" y1="0" y2="565.655" gradientUnits="userSpaceOnUse"><stop stop-color="#0b1220"/><stop offset="1" stop-color="#111827"/></linearGradient><filter id="b" width="85.924" height="47.531" x="538.667" y="384.932" color-interpolation-filters="sRGB" filterUnits="userSpaceOnUse"><feFlood flood-opacity="0" result="BackgroundImageFix"/><feColorMatrix in="SourceAlpha" result="hardAlpha" values="0 0 0 0 0 0 0 0 0 0 0 0 0 0 0 0 0 0 127 0"/><feOffset dy="4"/><feGaussianBlur stdDeviation="2"/><feComposite in2="hardAlpha" operator="out"/><feColorMatrix values="0 0 0 0 0 0 0 0 0 0 0 0 0 0 0 0 0 0 0.25 0"/><feBlend in2="BackgroundImageFix" result="effect1_dropShadow_2_3"/><feBlend in="SourceGraphic" in2="effect1_dropShadow_2_3" result="shape"/></filter></defs></svg>