<svg xmlns="http://www.w3.org/2000/svg" width="1280" height="520" fill="none"><g clip-path="url(#a)"><path fill="url(#b)" d="M0 0h1280v520H0z"/><path fill="#0f172a" stroke="#263247" stroke-width="1.5" d="M1164 76H116c-15.464 0-28 12.536-28 28v312c0 15.464 12.536 28 28 28h1048c15.46 0 28-12.536 28-28V104c0-15.464-12.54-28-28-28Z"/><path fill="#94a3b8" d="M503.771 462.75V468h-1.341v-8.727h1.296v1.363h.113q.308-.664.932-1.068.625-.41 1.614-.409.887 0 1.551.364.665.357 1.034 1.091.369.726.369 1.841V468h-1.34v-5.455q0-1.028-.535-1.602-.534-.579-1.465-.579-.642 0-1.148.278a2 2 0 0 0-.79.813q-.29.534-.29 1.295m8.019 8.523v-12h1.295v1.386h.159q.148-.227.409-.579.267-.358.762-.637.5-.284 1.352-.284 1.103 0 1.943.551t1.313 1.563q.471 1.01.471 2.386 0 1.386-.471 2.403-.472 1.012-1.307 1.569-.836.55-1.926.551-.841 0-1.347-.279-.505-.284-.778-.642a9 9 0 0 1-.421-.602h-.113v4.614zm1.318-7.637q0 .989.29 1.745.29.75.846 1.176.557.42 1.364.42.841 0 1.403-.443.568-.449.853-1.204a4.7 4.7 0 0 0 .289-1.694q0-.92-.284-1.659-.278-.744-.846-1.176-.563-.437-1.415-.437-.818 0-1.375.414-.557.41-.841 1.148-.284.733-.284 1.71M521.54 468v-8.727h1.295v1.363h.114q.273-.699.881-1.085.608-.392 1.46-.392.864 0 1.437.392.58.387.904 1.085h.091q.334-.675 1.005-1.074.67-.403 1.608-.403 1.171 0 1.915.733.744.728.744 2.267V468h-1.341v-5.841q0-.966-.528-1.381a1.96 1.96 0 0 0-1.244-.414q-.92 0-1.426.556-.506.552-.506 1.398V468h-1.364v-5.977q0-.744-.483-1.199-.482-.46-1.244-.46-.523 0-.977.278-.45.278-.728.773a2.3 2.3 0 0 0-.272 1.13V468zm18.906-5.614v1.25h-5.091v-1.25zm6.246-3.113v1.136h-4.705v-1.136zM543.396 468v-9.932q0-.75.353-1.25a2.2 2.2 0 0 1 .914-.75q.563-.25 1.188-.25.493 0 .807.08.312.08.466.147l-.387 1.16a6 6 0 0 0-.284-.086 1.7 1.7 0 0 0-.466-.051q-.664 0-.96.335-.29.336-.29.983V468zm5.175 0v-8.727h1.341V468zm.682-10.182a.95.95 0 0 1-.676-.267.86.86 0 0 1-.279-.642q0-.375.279-.642a.95.95 0 0 1 .676-.267q.392 0 .67.267.285.267.284.642 0 .375-.284.642a.93.93 0 0 1-.67.267M552.368 468v-8.727h1.295v1.318h.091q.239-.648.864-1.051a2.54 2.54 0 0 1 1.409-.404q.148 0 .369.006.222.006.336.017v1.364a4 4 0 0 0-.313-.051 3 3 0 0 0-.506-.04q-.636 0-1.136.267-.495.261-.784.727a1.96 1.96 0 0 0-.284 1.051V468zm12.135-6.773-1.205.341a2.2 2.2 0 0 0-.335-.585 1.6 1.6 0 0 0-.591-.477q-.375-.188-.96-.188-.801 0-1.335.37-.53.363-.529.926 0 .5.364.789.363.291 1.136.483l1.296.319q1.17.284 1.744.869.574.579.574 1.494 0 .75-.432 1.341-.426.591-1.193.932-.767.34-1.784.341-1.335 0-2.21-.58-.876-.579-1.108-1.693l1.272-.318q.183.705.688 1.057.511.352 1.335.352.937 0 1.489-.398.557-.404.557-.966 0-.454-.319-.761-.317-.312-.977-.466l-1.454-.341q-1.2-.284-1.762-.88-.557-.603-.557-1.506 0-.739.415-1.307a2.8 2.8 0 0 1 1.142-.892q.727-.324 1.648-.324 1.296 0 2.034.568.745.569 1.057 1.5m5.973-1.954v1.136h-4.523v-1.136zm-3.205-2.091h1.341v8.318q0 .569.165.852a.85.85 0 0 0 .432.375q.267.091.562.091.222 0 .364-.023l.227-.045.273 1.205a3 3 0 0 1-.381.102 2.8 2.8 0 0 1-.619.057 2.7 2.7 0 0 1-1.114-.245 2.2 2.2 0 0 1-.897-.744q-.353-.5-.353-1.261zm10.699 6.75a.99.99 0 0 1-.721-.301.99.99 0 0 1-.302-.722q0-.42.302-.721a.98.98 0 0 1 .721-.302q.42 0 .722.302.301.3.301.721a.96.96 0 0 1-.142.511 1.05 1.05 0 0 1-.369.375 1 1 0 0 1-.512.137M589.672 468h-3.591v-11.636h3.75q1.693 0 2.898.698 1.204.694 1.846 1.995.642 1.295.642 3.102 0 1.818-.647 3.131a4.6 4.6 0 0 1-1.887 2.011q-1.238.699-3.011.699m-2.182-1.25h2.091q1.443 0 2.392-.557a3.43 3.43 0 0 0 1.415-1.585q.466-1.029.466-2.449 0-1.409-.461-2.426a3.4 3.4 0 0 0-1.375-1.568q-.914-.551-2.278-.551h-2.25zm13.455 1.432q-1.183 0-2.074-.563-.886-.562-1.387-1.574-.494-1.011-.494-2.363 0-1.364.494-2.381.5-1.017 1.387-1.579.891-.563 2.074-.563 1.181 0 2.068.563.892.562 1.386 1.579.5 1.017.5 2.381 0 1.352-.5 2.363a3.77 3.77 0 0 1-1.386 1.574q-.887.563-2.068.563m0-1.205q.897 0 1.477-.46a2.7 2.7 0 0 0 .858-1.21q.278-.75.278-1.625t-.278-1.631a2.75 2.75 0 0 0-.858-1.221q-.58-.466-1.477-.466t-1.478.466q-.579.465-.858 1.221a4.7 4.7 0 0 0-.278 1.631q0 .875.278 1.625.279.75.858 1.21.58.46 1.478.46m9.546 1.205q-1.227 0-2.113-.58a3.77 3.77 0 0 1-1.364-1.596q-.477-1.017-.477-2.324 0-1.33.489-2.347.493-1.023 1.375-1.596.885-.58 2.068-.58.92 0 1.659.341.738.34 1.21.955.472.614.585 1.431h-1.341q-.153-.596-.681-1.056-.524-.466-1.41-.466-.784 0-1.375.409-.585.403-.914 1.142-.324.732-.324 1.721 0 1.012.318 1.762.324.75.909 1.164.591.415 1.386.415.523 0 .949-.182.426-.181.722-.522.295-.342.42-.818h1.341a3.1 3.1 0 0 1-.562 1.392 3.16 3.16 0 0 1-1.176.977q-.728.358-1.694.358m6.643-3.364-.023-1.659h.273l3.818-3.886h1.659l-4.068 4.113h-.114zm-1.25 3.182v-11.636h1.34V468zm5.545 0-3.409-4.318.954-.932 4.16 5.25zm6.457.182q-1.261 0-2.176-.557a3.74 3.74 0 0 1-1.403-1.568q-.489-1.012-.489-2.352 0-1.341.489-2.364.494-1.029 1.375-1.602.886-.58 2.068-.58.682 0 1.347.227.664.228 1.21.739.545.505.869 1.341.324.835.324 2.057v.568h-6.727v-1.159h5.363q0-.74-.295-1.318a2.2 2.2 0 0 0-.83-.915q-.534-.335-1.261-.335-.801 0-1.386.397a2.6 2.6 0 0 0-.892 1.023 3 3 0 0 0-.313 1.352v.773q0 .989.341 1.676.347.682.96 1.04.614.352 1.426.352.53 0 .955-.147.432-.154.744-.455.313-.307.483-.761l1.296.363q-.205.66-.688 1.159-.483.495-1.193.773a4.4 4.4 0 0 1-1.597.273m5.654-.182v-8.727h1.295v1.318h.091q.239-.648.864-1.051a2.54 2.54 0 0 1 1.409-.404q.147 0 .369.006t.335.017v1.364a3 3 0 0 0-.312-.051 3 3 0 0 0-.506-.04q-.636 0-1.136.267-.495.261-.784.727-.284.46-.284 1.051V468zm16.635-6.773-1.205.341a2.2 2.2 0 0 0-.335-.585 1.6 1.6 0 0 0-.591-.477q-.375-.188-.96-.188-.801 0-1.335.37-.53.363-.529.926 0 .5.364.789.363.291 1.136.483l1.296.319q1.17.284 1.744.869.574.579.574 1.494 0 .75-.432 1.341-.426.591-1.193.932-.768.34-1.784.341-1.335 0-2.211-.58-.875-.579-1.107-1.693l1.272-.318q.182.705.688 1.057.511.352 1.335.352.937 0 1.489-.398.556-.404.556-.966 0-.454-.318-.761-.318-.312-.977-.466l-1.455-.341q-1.199-.284-1.761-.88-.557-.603-.557-1.506 0-.739.415-1.307a2.8 2.8 0 0 1 1.142-.892q.727-.324 1.648-.324 1.295 0 2.034.568a3.07 3.07 0 0 1 1.057 1.5m5.836 6.955q-1.261 0-2.176-.557a3.74 3.74 0 0 1-1.403-1.568q-.489-1.012-.489-2.352 0-1.341.489-2.364.494-1.029 1.375-1.602.886-.58 2.068-.58.682 0 1.347.227.664.228 1.21.739.545.505.869 1.341.324.835.324 2.057v.568h-6.727v-1.159h5.363q0-.74-.295-1.318a2.2 2.2 0 0 0-.83-.915q-.534-.335-1.261-.335-.801 0-1.386.397a2.6 2.6 0 0 0-.892 1.023 3 3 0 0 0-.313 1.352v.773q0 .989.341 1.676.347.682.96 1.04.614.352 1.426.352.53 0 .955-.147.432-.154.744-.455.313-.307.483-.761l1.296.363q-.205.66-.688 1.159-.483.495-1.193.773a4.4 4.4 0 0 1-1.597.273m6.995-11.818V468h-1.341v-11.636zm6.342 2.909v1.136h-4.705v-1.136zM666.053 468v-9.932q0-.75.352-1.25a2.2 2.2 0 0 1 .915-.75q.562-.25 1.187-.25.495 0 .807.08t.466.147l-.387 1.16a6 6 0 0 0-.284-.086 1.7 1.7 0 0 0-.466-.051q-.665 0-.96.335-.29.336-.29.983V468zm9.721-5.614v1.25h-5.091v-1.25zm2.541 5.614v-11.636h1.341v4.295h.114q.147-.227.409-.579.267-.358.761-.637.5-.284 1.353-.284 1.101 0 1.943.551.84.551 1.312 1.563.472 1.01.472 2.386 0 1.386-.472 2.403-.471 1.012-1.307 1.569-.834.55-1.926.551-.84 0-1.346-.279-.506-.284-.779-.642a9 9 0 0 1-.42-.602h-.159V468zm1.319-4.364q0 .989.289 1.745.29.75.847 1.176.557.42 1.364.42.84 0 1.403-.443.569-.449.852-1.204.29-.762.29-1.694 0-.92-.284-1.659-.279-.744-.847-1.176-.562-.437-1.414-.437-.819 0-1.375.414-.558.41-.841 1.148-.285.733-.284 1.71m13.937.796v-5.159h1.341V468h-1.341v-1.477h-.091a2.86 2.86 0 0 1-.954 1.13q-.648.46-1.637.461a2.9 2.9 0 0 1-1.454-.358q-.637-.364-1-1.091-.364-.733-.364-1.847v-5.545h1.341v5.454q0 .955.534 1.523.54.568 1.375.568.5 0 1.017-.256.523-.255.875-.784.358-.528.358-1.346m3.797 3.568v-8.727h1.341V468zm.682-10.182a.95.95 0 0 1-.676-.267.86.86 0 0 1-.279-.642q0-.375.279-.642a.95.95 0 0 1 .676-.267q.392 0 .67.267.285.267.284.642 0 .375-.284.642a.93.93 0 0 1-.67.267m4.456-1.454V468h-1.341v-11.636zm5.751 11.818q-1.09 0-1.926-.551-.835-.557-1.307-1.569-.471-1.017-.471-2.403 0-1.375.471-2.386.472-1.012 1.313-1.563.84-.55 1.943-.551.852 0 1.346.284.501.279.762.637.267.352.415.579h.113v-4.295h1.341V468h-1.295v-1.341h-.159q-.148.239-.421.602-.273.358-.778.642-.505.279-1.347.279m.182-1.205q.807 0 1.364-.42.557-.426.846-1.176.29-.756.29-1.745 0-.977-.284-1.71-.285-.738-.841-1.148-.557-.414-1.375-.414-.852 0-1.421.437-.562.432-.846 1.176a4.7 4.7 0 0 0-.279 1.659q0 .932.285 1.694.29.755.852 1.204.568.444 1.409.443m14.506 1.205q-1.183 0-2.074-.563-.886-.562-1.387-1.574-.494-1.011-.494-2.363 0-1.364.494-2.381.5-1.017 1.387-1.579.891-.563 2.074-.563 1.181 0 2.068.563.892.562 1.386 1.579.5 1.017.5 2.381 0 1.352-.5 2.363a3.77 3.77 0 0 1-1.386 1.574q-.887.563-2.068.563m0-1.205q.897 0 1.477-.46a2.7 2.7 0 0 0 .858-1.21q.278-.75.278-1.625t-.278-1.631a2.75 2.75 0 0 0-.858-1.221q-.58-.466-1.477-.466t-1.478.466q-.579.465-.858 1.221a4.7 4.7 0 0 0-.278 1.631q0 .875.278 1.625.279.75.858 1.21.58.46 1.478.46m6.001 4.296v-12h1.295v1.386h.16q.147-.227.409-.579.267-.358.761-.637.5-.284 1.352-.284 1.103 0 1.943.551.842.551 1.313 1.563.471 1.01.472 2.386 0 1.386-.472 2.403-.471 1.012-1.307 1.569-.835.55-1.926.551-.84 0-1.347-.279-.505-.284-.778-.642a8 8 0 0 1-.42-.602h-.114v4.614zm1.318-7.637q0 .989.29 1.745.29.75.847 1.176.556.42 1.363.42.841 0 1.404-.443.567-.449.852-1.204.29-.762.29-1.694 0-.92-.284-1.659-.279-.744-.847-1.176-.563-.437-1.415-.437-.818 0-1.375.414-.556.41-.841 1.148-.284.733-.284 1.71m12.227-4.363v1.136h-4.522v-1.136zm-3.204-2.091h1.341v8.318q0 .569.165.852a.85.85 0 0 0 .431.375q.267.091.563.091.222 0 .364-.023l.227-.045.273 1.205a3 3 0 0 1-.381.102 2.8 2.8 0 0 1-.619.057 2.7 2.7 0 0 1-1.114-.245 2.2 2.2 0 0 1-.898-.744q-.352-.5-.352-1.261zM744.509 468v-8.727h1.34V468zm.681-10.182a.96.96 0 0 1-.676-.267.86.86 0 0 1-.278-.642.86.86 0 0 1 .278-.642.96.96 0 0 1 .676-.267q.392 0 .671.267a.85.85 0 0 1 .284.642q0 .375-.284.642a.94.94 0 0 1-.671.267m6.661 10.364q-1.182 0-2.074-.563-.887-.562-1.386-1.574-.495-1.011-.495-2.363 0-1.364.495-2.381.5-1.017 1.386-1.579.892-.563 2.074-.563t2.068.563q.893.562 1.386 1.579.5 1.017.5 2.381 0 1.352-.5 2.363a3.76 3.76 0 0 1-1.386 1.574q-.886.563-2.068.563m0-1.205q.897 0 1.477-.46a2.7 2.7 0 0 0 .858-1.21q.279-.75.278-1.625 0-.875-.278-1.631a2.75 2.75 0 0 0-.858-1.221q-.58-.466-1.477-.466t-1.477.466q-.58.465-.858 1.221a4.7 4.7 0 0 0-.279 1.631q0 .875.279 1.625.277.75.858 1.21.579.46 1.477.46m7.342-4.227V468h-1.341v-8.727h1.296v1.363h.113q.308-.664.932-1.068.625-.41 1.614-.409.886 0 1.551.364.665.357 1.034 1.091.369.726.369 1.841V468h-1.341v-5.455q0-1.028-.534-1.602-.534-.579-1.466-.579-.642 0-1.147.278a2 2 0 0 0-.79.813q-.29.534-.29 1.295m10.587 5.455a3.55 3.55 0 0 1-1.506-.313 2.6 2.6 0 0 1-1.074-.915q-.397-.602-.397-1.454 0-.75.295-1.216.295-.472.79-.739.494-.266 1.091-.398.602-.135 1.21-.215.795-.103 1.29-.154.5-.057.727-.187.233-.13.233-.455v-.045q0-.842-.46-1.307-.455-.466-1.381-.466-.96 0-1.506.42-.545.421-.767.898l-1.272-.454q.34-.796.909-1.239a3.4 3.4 0 0 1 1.25-.625 5.2 5.2 0 0 1 1.341-.182q.42 0 .965.102.552.097 1.063.404.518.306.858.926t.341 1.659V468h-1.341v-1.182h-.068a2.4 2.4 0 0 1-.455.608q-.318.324-.846.551-.53.228-1.29.228m.204-1.205q.797 0 1.341-.312.552-.314.83-.807.284-.494.284-1.04v-1.227q-.086.102-.375.187a6 6 0 0 1-.659.142q-.37.057-.722.102-.346.04-.562.069a5 5 0 0 0-.978.221 1.7 1.7 0 0 0-.727.449q-.273.296-.273.807 0 .699.518 1.057.522.352 1.323.352m7.584-10.636V468h-1.341v-11.636z"/><path fill="#f8fafc" d="M317.479 130.091h9.103l9.613 23.454h.409l9.614-23.454h9.102V165h-7.159v-22.722h-.29l-9.034 22.552h-4.875l-9.034-22.637h-.29V165h-7.159zm74.723 12.221h-7.465q-.205-1.448-.836-2.573a6.6 6.6 0 0 0-1.619-1.944 7.1 7.1 0 0 0-2.284-1.227 8.7 8.7 0 0 0-2.779-.426q-2.71 0-4.721 1.347-2.012 1.329-3.119 3.886-1.108 2.54-1.108 6.17 0 3.734 1.108 6.273 1.125 2.54 3.136 3.835 2.012 1.296 4.653 1.296a9.2 9.2 0 0 0 2.745-.392 7.2 7.2 0 0 0 2.267-1.142 6.6 6.6 0 0 0 1.636-1.858q.664-1.09.921-2.489l7.465.034a13.5 13.5 0 0 1-1.448 4.637 13.9 13.9 0 0 1-3.086 3.971q-1.926 1.739-4.602 2.762-2.659 1.005-6.017 1.005-4.671 0-8.352-2.113-3.664-2.114-5.796-6.12-2.113-4.005-2.113-9.699 0-5.71 2.147-9.715 2.148-4.006 5.83-6.103 3.682-2.113 8.284-2.113 3.034 0 5.625.852 2.608.852 4.619 2.489a12.8 12.8 0 0 1 3.273 3.971q1.279 2.353 1.636 5.386M397.495 165v-34.909h13.773q3.97 0 6.767 1.517 2.795 1.5 4.261 4.176 1.483 2.66 1.483 6.136 0 3.478-1.5 6.137t-4.346 4.142q-2.83 1.483-6.853 1.483h-8.778v-5.915h7.585q2.131 0 3.511-.733 1.398-.75 2.08-2.062.699-1.33.699-3.052 0-1.738-.699-3.034-.682-1.312-2.08-2.028-1.397-.733-3.545-.733h-4.977V165zm31.078 0v-34.909h7.381v14.403h14.983v-14.403h7.363V165h-7.363v-14.42h-14.983V165zm52.466-11.148v-15.034h7.261V165h-6.971v-4.756h-.273a7.73 7.73 0 0 1-2.949 3.699q-2.045 1.398-4.994 1.398-2.625 0-4.619-1.193-1.995-1.193-3.12-3.392-1.107-2.2-1.125-5.267v-16.671h7.262v15.375q.017 2.319 1.244 3.665t3.29 1.347q1.312 0 2.454-.597 1.143-.613 1.841-1.807.715-1.192.699-2.949M494.245 165v-34.909h7.261v13.125h.222q.477-1.058 1.381-2.148.92-1.107 2.386-1.841 1.483-.75 3.682-.75 2.863 0 5.284 1.5 2.42 1.483 3.869 4.483 1.449 2.983 1.449 7.483 0 4.381-1.415 7.398-1.397 3-3.818 4.551-2.404 1.534-5.386 1.534-2.114 0-3.597-.699-1.465-.699-2.403-1.755-.937-1.074-1.432-2.165h-.324V165zm7.108-13.091q0 2.335.648 4.074t1.875 2.71q1.227.955 2.983.955 1.772 0 3-.972 1.227-.988 1.858-2.727.647-1.756.647-4.04 0-2.267-.63-3.989-.631-1.72-1.858-2.693-1.227-.97-3.017-.971-1.773 0-3 .937-1.21.938-1.858 2.659-.648 1.722-.648 4.057m34.517-21.818h9.102l9.614 23.454h.409l9.614-23.454h9.102V165h-7.159v-22.722h-.29l-9.034 22.552h-4.875l-9.034-22.637h-.29V165h-7.159zm51.251 35.403q-2.505 0-4.465-.869-1.96-.886-3.103-2.608-1.125-1.738-1.125-4.329 0-2.183.801-3.665a6.5 6.5 0 0 1 2.182-2.387q1.381-.903 3.137-1.363a24 24 0 0 1 3.715-.648 95 95 0 0 0 3.682-.443q1.398-.222 2.029-.648.63-.426.63-1.261v-.103q0-1.618-1.022-2.505-1.006-.887-2.864-.887-1.96 0-3.119.87-1.16.852-1.534 2.147l-6.716-.545q.511-2.387 2.011-4.125 1.5-1.755 3.869-2.693 2.387-.955 5.523-.955 2.183 0 4.176.512 2.012.511 3.563 1.585a7.7 7.7 0 0 1 2.471 2.761q.904 1.67.904 4.006V165h-6.887v-3.631h-.204a7.4 7.4 0 0 1-1.688 2.165q-1.057.921-2.539 1.449-1.483.511-3.427.511m2.08-5.011q1.602 0 2.83-.631 1.227-.648 1.926-1.738.699-1.092.699-2.472v-2.778q-.341.221-.938.409-.58.17-1.312.324a69 69 0 0 1-1.466.255q-.733.102-1.33.188-1.278.188-2.233.596-.955.41-1.483 1.108-.528.682-.528 1.705 0 1.483 1.074 2.267 1.09.767 2.761.767m25.56-10.619V165h-7.262v-26.182h6.921v4.62h.307a7.3 7.3 0 0 1 2.914-3.614q2.046-1.347 4.961-1.347 2.727 0 4.755 1.193 2.03 1.194 3.154 3.41 1.125 2.198 1.125 5.25V165h-7.262v-15.375q.018-2.403-1.227-3.75-1.245-1.364-3.426-1.364-1.466 0-2.591.631-1.108.63-1.739 1.841-.614 1.193-.63 2.881m30.064 15.63q-2.507 0-4.466-.869-1.96-.886-3.103-2.608-1.125-1.738-1.125-4.329 0-2.183.802-3.665a6.5 6.5 0 0 1 2.181-2.387q1.381-.903 3.137-1.363a24 24 0 0 1 3.716-.648 95 95 0 0 0 3.681-.443q1.398-.222 2.029-.648.63-.426.631-1.261v-.103q0-1.618-1.023-2.505-1.006-.887-2.864-.887-1.96 0-3.119.87-1.16.852-1.534 2.147l-6.716-.545q.511-2.387 2.011-4.125 1.5-1.755 3.87-2.693 2.385-.955 5.522-.955 2.183 0 4.176.512 2.012.511 3.563 1.585a7.7 7.7 0 0 1 2.471 2.761q.904 1.67.904 4.006V165h-6.886v-3.631h-.205a7.4 7.4 0 0 1-1.688 2.165q-1.057.921-2.539 1.449-1.483.511-3.426.511m2.079-5.011q1.602 0 2.83-.631 1.227-.648 1.926-1.738.699-1.092.699-2.472v-2.778q-.341.221-.938.409-.58.17-1.312.324a69 69 0 0 1-1.466.255q-.733.102-1.33.188-1.278.188-2.233.596-.954.41-1.483 1.108-.528.682-.528 1.705 0 1.483 1.074 2.267 1.09.767 2.761.767m30.094 14.881q-3.528 0-6.051-.972-2.506-.954-3.989-2.608-1.484-1.653-1.926-3.716l6.716-.903q.306.784.971 1.466.666.681 1.756 1.091 1.109.426 2.693.426 2.37 0 3.904-1.159 1.551-1.142 1.551-3.836v-4.789h-.307q-.477 1.09-1.432 2.062-.954.972-2.454 1.585-1.5.614-3.58.614-2.95 0-5.369-1.364-2.403-1.38-3.835-4.21-1.415-2.846-1.415-7.193 0-4.449 1.449-7.432t3.852-4.466a9.96 9.96 0 0 1 5.301-1.483q2.199 0 3.682.75 1.483.734 2.386 1.841.921 1.09 1.415 2.148h.273v-4.398h7.21v26.438q0 3.34-1.636 5.591-1.637 2.25-4.534 3.375-2.881 1.142-6.631 1.142m.153-16.194q1.756 0 2.966-.869 1.227-.887 1.875-2.523.665-1.653.665-3.954t-.648-3.989q-.648-1.704-1.875-2.642t-2.983-.937q-1.79 0-3.017.971-1.227.955-1.858 2.659-.63 1.705-.63 3.938 0 2.267.63 3.92.648 1.637 1.858 2.54 1.227.886 3.017.886m30.358 6.341q-4.04 0-6.954-1.636-2.898-1.653-4.466-4.67-1.569-3.034-1.568-7.177 0-4.04 1.568-7.09 1.568-3.052 4.415-4.756 2.863-1.705 6.715-1.705 2.592 0 4.824.835 2.25.819 3.921 2.472 1.688 1.654 2.625 4.159.937 2.488.937 5.83v1.994h-22.108v-4.5h15.273q0-1.568-.682-2.778a4.87 4.87 0 0 0-1.892-1.892q-1.192-.699-2.778-.699-1.654 0-2.932.767-1.261.75-1.977 2.028-.717 1.262-.733 2.813v4.278q0 1.944.716 3.358a5.24 5.24 0 0 0 2.062 2.182q1.33.767 3.154.767a6.9 6.9 0 0 0 2.215-.341 4.6 4.6 0 0 0 1.722-1.023 4.45 4.45 0 0 0 1.091-1.67l6.716.443q-.512 2.421-2.097 4.227-1.567 1.79-4.057 2.796-2.471.988-5.71.988m16.756-.511v-26.182h6.92v4.62h.307q.819-2.302 2.727-3.631 1.91-1.33 4.569-1.33 2.693 0 4.585 1.347 1.891 1.33 2.523 3.614h.272q.801-2.25 2.898-3.597 2.114-1.364 4.994-1.364 3.666 0 5.949 2.335 2.301 2.319 2.301 6.58V165h-7.244v-16.176q0-2.183-1.159-3.273t-2.898-1.091q-1.977 0-3.085 1.262-1.108 1.244-1.108 3.289V165h-7.04v-16.33q0-1.925-1.108-3.068-1.09-1.142-2.88-1.142-1.21 0-2.182.614-.955.597-1.517 1.687-.563 1.074-.563 2.523V165zm55.713.511q-4.04 0-6.955-1.636-2.897-1.653-4.465-4.67-1.569-3.034-1.569-7.177 0-4.04 1.569-7.09 1.568-3.052 4.414-4.756 2.864-1.705 6.716-1.705 2.59 0 4.824.835 2.25.819 3.921 2.472 1.688 1.654 2.625 4.159.937 2.488.937 5.83v1.994h-22.108v-4.5h15.273q0-1.568-.682-2.778a4.9 4.9 0 0 0-1.892-1.892q-1.194-.699-2.778-.699-1.654 0-2.932.767-1.261.75-1.978 2.028-.715 1.262-.733 2.813v4.278q0 1.944.716 3.358a5.25 5.25 0 0 0 2.063 2.182q1.329.767 3.153.767 1.21 0 2.216-.341a4.6 4.6 0 0 0 1.722-1.023 4.45 4.45 0 0 0 1.091-1.67l6.716.443q-.512 2.421-2.097 4.227-1.568 1.79-4.057 2.796-2.472.988-5.71.988m24.017-15.647V165h-7.261v-26.182h6.92v4.62h.307a7.3 7.3 0 0 1 2.915-3.614q2.045-1.347 4.96-1.347 2.727 0 4.756 1.193 2.028 1.194 3.153 3.41 1.125 2.198 1.125 5.25V165h-7.261v-15.375q.017-2.403-1.228-3.75-1.243-1.364-3.426-1.364-1.466 0-2.591.631-1.108.63-1.738 1.841-.614 1.193-.631 2.881m36.524-11.046v5.455h-15.767v-5.455zm-12.187-6.273h7.261v24.41q0 1.005.307 1.568.306.545.852.767.563.22 1.296.221.51 0 1.022-.085.512-.102.784-.153l1.142 5.403q-.545.17-1.534.392-.988.239-2.403.29-2.625.102-4.602-.699-1.96-.801-3.051-2.489t-1.074-4.261zm28.163-2.454h9.102l9.614 23.454h.409l9.614-23.454h9.102V165h-7.159v-22.722h-.29l-9.034 22.552h-4.875l-9.034-22.637h-.29V165h-7.159zm74.723 12.221h-7.466q-.204-1.448-.835-2.573a6.6 6.6 0 0 0-1.619-1.944 7.1 7.1 0 0 0-2.285-1.227 8.7 8.7 0 0 0-2.778-.426q-2.71 0-4.722 1.347-2.01 1.329-3.119 3.886-1.108 2.54-1.108 6.17 0 3.734 1.108 6.273 1.125 2.54 3.137 3.835 2.01 1.296 4.653 1.296 1.483 0 2.744-.392a7.2 7.2 0 0 0 2.267-1.142 6.6 6.6 0 0 0 1.637-1.858q.665-1.09.92-2.489l7.466.034a13.5 13.5 0 0 1-1.449 4.637q-1.142 2.216-3.085 3.971-1.926 1.739-4.602 2.762-2.66 1.005-6.017 1.005-4.67 0-8.353-2.113-3.665-2.114-5.795-6.12-2.114-4.005-2.114-9.699 0-5.71 2.148-9.715 2.148-4.006 5.83-6.103 3.68-2.113 8.284-2.113 3.033 0 5.625.852 2.607.852 4.619 2.489a12.8 12.8 0 0 1 3.273 3.971q1.278 2.353 1.636 5.386M936.511 165v-34.909h13.772q3.972 0 6.767 1.517 2.796 1.5 4.262 4.176 1.482 2.66 1.483 6.136 0 3.478-1.5 6.137t-4.347 4.142q-2.829 1.483-6.852 1.483h-8.779v-5.915h7.586q2.13 0 3.511-.733 1.398-.75 2.08-2.062.698-1.33.698-3.052 0-1.738-.698-3.034-.682-1.312-2.08-2.028-1.398-.733-3.545-.733h-4.978V165z"/><path fill="#cbd5e1" d="M434.585 213.614v-1.25h8.727v1.25h-3.659V224h-1.409v-10.386zm10.584 13.659a3 3 0 0 1-.608-.057 1.6 1.6 0 0 1-.369-.102l.341-1.182q.488.124.863.091a1.04 1.04 0 0 0 .665-.335q.296-.296.54-.961l.25-.682-3.227-8.772h1.454l2.409 6.954h.091l2.409-6.954h1.455l-3.705 10q-.25.676-.619 1.119a2.3 2.3 0 0 1-.858.665 2.65 2.65 0 0 1-1.091.216m8.043 0v-12h1.295v1.386h.159q.148-.227.409-.579.267-.358.762-.637.5-.284 1.352-.284 1.102 0 1.943.551t1.313 1.563q.471 1.01.471 2.386 0 1.386-.471 2.403-.472 1.012-1.307 1.569-.835.55-1.926.551-.841 0-1.347-.279-.506-.283-.778-.642a9 9 0 0 1-.421-.602h-.113v4.614zm1.318-7.637q0 .989.29 1.745.29.75.846 1.176.557.42 1.364.42.84 0 1.403-.443.568-.449.853-1.204a4.7 4.7 0 0 0 .289-1.694q0-.92-.284-1.659-.278-.744-.846-1.176-.563-.438-1.415-.437-.819 0-1.375.414-.557.41-.841 1.148-.284.733-.284 1.71m12.091 4.546q-1.262 0-2.176-.557a3.74 3.74 0 0 1-1.404-1.568q-.488-1.012-.488-2.352 0-1.341.488-2.364.495-1.029 1.375-1.602.886-.58 2.068-.58.683 0 1.347.227.665.228 1.21.739.546.505.87 1.341.323.835.323 2.057v.568h-6.727v-1.159h5.364q0-.74-.296-1.318a2.2 2.2 0 0 0-.829-.915q-.534-.336-1.262-.335-.801 0-1.386.397a2.6 2.6 0 0 0-.892 1.023 3 3 0 0 0-.313 1.352v.773q0 .989.341 1.676.347.682.961 1.04.613.352 1.426.352.528 0 .954-.147.432-.154.745-.455.312-.307.483-.761l1.295.363q-.205.66-.687 1.159a3.35 3.35 0 0 1-1.194.773 4.4 4.4 0 0 1-1.596.273m8.949 0q-1.092 0-1.927-.551-.834-.557-1.306-1.569-.472-1.017-.472-2.403 0-1.375.472-2.386.471-1.012 1.312-1.563t1.943-.551q.853 0 1.347.284.5.279.761.637.267.352.415.579h.114v-4.295h1.341V224h-1.296v-1.341h-.159a9 9 0 0 1-.42.602q-.273.359-.779.642-.506.279-1.346.279m.181-1.205q.807 0 1.364-.42.556-.426.847-1.176.29-.756.289-1.745 0-.977-.284-1.71-.283-.738-.841-1.148-.556-.414-1.375-.414-.852 0-1.42.437-.562.432-.847 1.176a4.7 4.7 0 0 0-.278 1.659q0 .933.284 1.694.29.755.852 1.204.569.444 1.409.443m8.461-.568-.091.614q-.097.648-.296 1.386-.193.74-.403 1.392-.21.654-.347 1.04h-1.022l.193-.96q.119-.597.238-1.336.126-.732.205-1.5l.068-.636zm6.984 4.864v-12h1.295v1.386h.16q.147-.227.409-.579.267-.358.761-.637.5-.284 1.352-.284 1.103 0 1.943.551.842.551 1.313 1.563.472 1.01.472 2.386 0 1.386-.472 2.403-.471 1.012-1.307 1.569-.836.55-1.926.551-.84 0-1.347-.279-.505-.283-.778-.642a8 8 0 0 1-.42-.602h-.114v4.614zm1.318-7.637q0 .989.29 1.745.29.75.847 1.176.556.42 1.363.42.841 0 1.404-.443.567-.449.852-1.204.29-.762.29-1.694 0-.92-.284-1.659-.279-.744-.847-1.176-.563-.438-1.415-.437-.818 0-1.375.414-.556.41-.841 1.148-.284.733-.284 1.71m8.432 4.364v-8.727h1.295v1.318h.091q.239-.648.864-1.051a2.54 2.54 0 0 1 1.409-.404q.149 0 .369.006.222.006.336.017v1.364a4 4 0 0 0-.313-.051 3 3 0 0 0-.506-.04q-.636 0-1.136.267a2 2 0 0 0-.784.727 1.96 1.96 0 0 0-.284 1.051V224zm9.233.182q-1.182 0-2.074-.563-.887-.562-1.386-1.574-.495-1.011-.495-2.363 0-1.364.495-2.381.5-1.017 1.386-1.579.892-.563 2.074-.563t2.068.563q.892.562 1.387 1.579.5 1.017.5 2.381 0 1.352-.5 2.363-.495 1.012-1.387 1.574-.886.563-2.068.563m0-1.205q.898 0 1.477-.46t.858-1.21.279-1.625q0-.876-.279-1.631a2.73 2.73 0 0 0-.858-1.221q-.58-.466-1.477-.466t-1.477.466q-.58.465-.858 1.221a4.7 4.7 0 0 0-.279 1.631q0 .875.279 1.625.277.75.858 1.21.579.46 1.477.46m9.888-7.704v1.136h-4.705v-1.136zM516.771 224v-9.932q0-.75.353-1.25a2.2 2.2 0 0 1 .914-.75q.563-.25 1.188-.25.493 0 .807.08.312.08.466.147l-.387 1.16a6 6 0 0 0-.284-.086 1.7 1.7 0 0 0-.466-.051q-.664 0-.96.335-.29.336-.29.983V224zm5.175 0v-8.727h1.341V224zm.682-10.182a.95.95 0 0 1-.676-.267.86.86 0 0 1-.279-.642q0-.375.279-.642a.95.95 0 0 1 .676-.267q.392 0 .67.267.285.267.284.642 0 .375-.284.642a.93.93 0 0 1-.67.267m4.456-1.454V224h-1.341v-11.636zm6.115 11.818q-1.261 0-2.176-.557a3.74 3.74 0 0 1-1.404-1.568q-.488-1.012-.488-2.352 0-1.341.488-2.364.495-1.029 1.375-1.602.887-.58 2.068-.58.683 0 1.347.227.665.228 1.21.739.546.505.87 1.341.324.835.323 2.057v.568h-6.727v-1.159h5.364q0-.74-.296-1.318a2.2 2.2 0 0 0-.829-.915q-.534-.336-1.262-.335-.801 0-1.386.397a2.6 2.6 0 0 0-.892 1.023 3 3 0 0 0-.312 1.352v.773q0 .989.34 1.676.348.682.961 1.04.613.352 1.426.352.528 0 .954-.147.432-.154.745-.455.312-.307.483-.761l1.295.363a2.86 2.86 0 0 1-.687 1.159 3.35 3.35 0 0 1-1.194.773 4.4 4.4 0 0 1-1.596.273m10.653-5.796v1.25h-5.091v-1.25zm5.882 9.069q-.97 0-1.67-.25a3.6 3.6 0 0 1-1.165-.648 3.5 3.5 0 0 1-.733-.852l1.068-.75q.182.238.461.545.278.312.761.54.489.233 1.278.233 1.057 0 1.745-.512.687-.511.687-1.602v-1.773h-.113a7 7 0 0 1-.421.591q-.267.347-.773.62-.5.267-1.352.267a3.65 3.65 0 0 1-1.898-.5q-.835-.501-1.323-1.455-.483-.954-.483-2.318 0-1.34.471-2.335.472-1 1.313-1.546.84-.55 1.943-.551.852 0 1.352.284.506.279.773.637.273.352.42.579h.137v-1.386h1.295v8.977q0 1.125-.511 1.83a2.9 2.9 0 0 1-1.364 1.039 5.1 5.1 0 0 1-1.898.336m-.045-4.796q.807 0 1.364-.369.557-.37.846-1.063.29-.693.29-1.659 0-.944-.284-1.665-.285-.722-.841-1.13-.557-.41-1.375-.409-.852 0-1.421.431a2.63 2.63 0 0 0-.846 1.16 4.5 4.5 0 0 0-.279 1.613q0 .909.285 1.608.29.693.852 1.091.568.392 1.409.392m8.841 1.546a3.55 3.55 0 0 1-1.506-.313 2.6 2.6 0 0 1-1.074-.915q-.397-.602-.397-1.454 0-.75.295-1.216.295-.472.79-.739.494-.266 1.091-.398.602-.135 1.21-.215.795-.103 1.29-.154.5-.057.727-.187.233-.13.233-.455v-.045q0-.842-.46-1.307-.455-.466-1.381-.466-.96 0-1.506.42-.545.421-.767.898l-1.272-.454q.34-.796.909-1.239a3.4 3.4 0 0 1 1.25-.625 5.2 5.2 0 0 1 1.341-.182q.42 0 .965.102.552.097 1.063.404.518.306.858.926t.341 1.659V224h-1.341v-1.182h-.068a2.4 2.4 0 0 1-.455.608q-.318.324-.846.551-.53.228-1.29.228m.204-1.205q.797 0 1.341-.312.552-.314.83-.807.284-.494.284-1.04v-1.227q-.086.102-.375.187a6 6 0 0 1-.659.142q-.37.057-.722.102-.346.04-.562.069a5 5 0 0 0-.978.221 1.7 1.7 0 0 0-.727.449q-.273.296-.273.807 0 .699.518 1.057.522.352 1.323.352m10.039-7.727v1.136h-4.523v-1.136zm-3.205-2.091h1.341v8.318q0 .569.165.852a.85.85 0 0 0 .432.375q.267.091.562.091.222 0 .364-.023l.227-.045.273 1.205a3 3 0 0 1-.381.102 2.8 2.8 0 0 1-.619.057 2.7 2.7 0 0 1-1.114-.245 2.2 2.2 0 0 1-.898-.744q-.351-.5-.352-1.261zm8.787 11q-1.261 0-2.176-.557a3.74 3.74 0 0 1-1.403-1.568q-.489-1.012-.489-2.352 0-1.341.489-2.364.493-1.029 1.375-1.602.885-.58 2.068-.58.681 0 1.346.227.665.228 1.211.739.545.505.869 1.341.324.835.324 2.057v.568h-6.728v-1.159h5.364q0-.74-.295-1.318a2.23 2.23 0 0 0-.83-.915q-.534-.336-1.261-.335-.8 0-1.387.397a2.63 2.63 0 0 0-.892 1.023 3 3 0 0 0-.312 1.352v.773q0 .989.341 1.676.347.682.96 1.04.613.352 1.426.352.529 0 .955-.147.432-.154.744-.455.312-.307.483-.761l1.295.363a2.86 2.86 0 0 1-.687 1.159q-.483.495-1.193.773a4.4 4.4 0 0 1-1.597.273m8.949 0q-1.09 0-1.926-.551-.836-.557-1.307-1.569-.471-1.017-.472-2.403 0-1.375.472-2.386.471-1.012 1.313-1.563.84-.55 1.943-.551.852 0 1.346.284.5.279.762.637.267.352.414.579h.114v-4.295h1.341V224h-1.295v-1.341h-.16q-.147.239-.42.602-.273.359-.778.642-.506.279-1.347.279m.182-1.205q.807 0 1.363-.42.558-.426.847-1.176.29-.756.29-1.745 0-.977-.284-1.71-.285-.738-.841-1.148-.557-.414-1.375-.414-.852 0-1.421.437-.562.432-.846 1.176a4.7 4.7 0 0 0-.279 1.659q0 .933.284 1.694.29.755.853 1.204.567.444 1.409.443m11.142-10.613h1.682l3.954 9.659h.137l3.954-9.659h1.682V224h-1.318v-8.841h-.114L600.969 224h-1.273l-3.636-8.841h-.114V224h-1.318zM618.226 216h-1.409a2.93 2.93 0 0 0-1.188-1.841 3.2 3.2 0 0 0-.971-.477 3.9 3.9 0 0 0-1.114-.159 3.55 3.55 0 0 0-1.915.534q-.852.534-1.358 1.574-.5 1.04-.5 2.551t.5 2.551q.506 1.04 1.358 1.574a3.55 3.55 0 0 0 1.915.534q.58 0 1.114-.159t.971-.472a2.97 2.97 0 0 0 1.188-1.846h1.409a4.7 4.7 0 0 1-.58 1.596q-.42.705-1.045 1.199a4.6 4.6 0 0 1-1.404.744 5.2 5.2 0 0 1-1.653.256q-1.488 0-2.648-.727-1.158-.727-1.824-2.068-.664-1.341-.664-3.182t.664-3.182q.666-1.34 1.824-2.068 1.16-.727 2.648-.727.88 0 1.653.255.779.256 1.404.75.625.49 1.045 1.193.421.7.58 1.597m2.277 8v-11.636h3.932q1.37 0 2.238.494.875.489 1.296 1.324.42.835.42 1.863t-.42 1.87a3.14 3.14 0 0 1-1.284 1.341q-.87.494-2.228.494h-2.818v-1.25h2.773q.938 0 1.506-.324t.823-.875a2.9 2.9 0 0 0 .262-1.256q0-.698-.262-1.25a1.86 1.86 0 0 0-.829-.863q-.574-.318-1.523-.318h-2.477V224zm18.27-8.727v1.136h-4.523v-1.136zm-3.205-2.091h1.341v8.318q0 .569.165.852a.85.85 0 0 0 .432.375q.267.091.562.091.222 0 .364-.023l.227-.045.273 1.205a3 3 0 0 1-.381.102 2.8 2.8 0 0 1-.619.057 2.7 2.7 0 0 1-1.114-.245 2.2 2.2 0 0 1-.898-.744q-.351-.5-.352-1.261zm8.673 11q-1.181 0-2.073-.563-.886-.562-1.387-1.574-.494-1.011-.494-2.363 0-1.364.494-2.381.5-1.017 1.387-1.579.892-.563 2.073-.563t2.069.563q.891.562 1.386 1.579.5 1.017.5 2.381 0 1.352-.5 2.363a3.77 3.77 0 0 1-1.386 1.574q-.887.563-2.069.563m0-1.205q.898 0 1.478-.46a2.7 2.7 0 0 0 .858-1.21q.278-.75.278-1.625 0-.876-.278-1.631a2.75 2.75 0 0 0-.858-1.221q-.58-.466-1.478-.466-.897 0-1.477.466-.579.465-.858 1.221a4.7 4.7 0 0 0-.278 1.631q0 .875.278 1.625.279.75.858 1.21.58.46 1.477.46m9.547 1.205q-1.182 0-2.074-.563-.886-.562-1.386-1.574-.494-1.011-.494-2.363 0-1.364.494-2.381.5-1.017 1.386-1.579.892-.563 2.074-.563t2.069.563q.891.562 1.386 1.579.5 1.017.5 2.381 0 1.352-.5 2.363a3.77 3.77 0 0 1-1.386 1.574q-.887.563-2.069.563m0-1.205q.898 0 1.478-.46a2.7 2.7 0 0 0 .858-1.21q.278-.75.278-1.625 0-.876-.278-1.631a2.75 2.75 0 0 0-.858-1.221q-.58-.466-1.478-.466t-1.477.466q-.579.465-.858 1.221a4.7 4.7 0 0 0-.278 1.631q0 .875.278 1.625.279.75.858 1.21.58.46 1.477.46m7.343-10.613V224h-1.341v-11.636zm8.637 4.863-1.204.341a2.3 2.3 0 0 0-.335-.585 1.6 1.6 0 0 0-.591-.477q-.375-.188-.96-.188-.802 0-1.336.37-.528.363-.528.926 0 .5.364.789.363.291 1.136.483l1.295.319q1.171.284 1.745.869.573.579.574 1.494 0 .75-.432 1.341-.426.591-1.193.932-.768.34-1.785.341-1.334 0-2.21-.58-.874-.579-1.108-1.693l1.273-.318q.181.705.688 1.057.51.352 1.335.352.937 0 1.488-.398.557-.403.557-.966 0-.454-.318-.761-.318-.312-.977-.466l-1.455-.341q-1.199-.284-1.761-.88-.557-.603-.557-1.506 0-.739.415-1.307a2.8 2.8 0 0 1 1.142-.892q.727-.324 1.648-.324 1.295 0 2.034.568.744.569 1.056 1.5m10.564-1.954v1.136h-4.704v-1.136zM677.037 224v-9.932q0-.75.352-1.25a2.2 2.2 0 0 1 .915-.75q.563-.25 1.187-.25.495 0 .807.08t.466.147l-.386 1.16a6 6 0 0 0-.284-.086 1.7 1.7 0 0 0-.466-.051q-.664 0-.96.335-.29.336-.29.983V224zm8.361.182q-1.182 0-2.074-.563-.887-.562-1.386-1.574-.495-1.011-.495-2.363 0-1.364.495-2.381.5-1.017 1.386-1.579.892-.563 2.074-.563t2.068.563q.893.562 1.386 1.579.5 1.017.5 2.381 0 1.352-.5 2.363a3.76 3.76 0 0 1-1.386 1.574q-.886.563-2.068.563m0-1.205q.897 0 1.477-.46a2.7 2.7 0 0 0 .858-1.21q.279-.75.278-1.625 0-.876-.278-1.631a2.75 2.75 0 0 0-.858-1.221q-.58-.466-1.477-.466t-1.478.466q-.579.465-.858 1.221a4.7 4.7 0 0 0-.278 1.631q0 .875.278 1.625.279.75.858 1.21.58.46 1.478.46m6.001 1.023v-8.727h1.296v1.318h.091q.238-.648.863-1.051a2.54 2.54 0 0 1 1.409-.404q.148 0 .37.006.22.006.335.017v1.364a4 4 0 0 0-.313-.051 3 3 0 0 0-.505-.04q-.637 0-1.137.267a2 2 0 0 0-.784.727 1.96 1.96 0 0 0-.284 1.051V224zm10.453 0v-8.727h1.296v1.363h.113q.273-.698.881-1.085.608-.392 1.46-.392.864 0 1.438.392.579.387.903 1.085h.091q.336-.675 1.006-1.074.67-.402 1.608-.403 1.17 0 1.914.733.745.728.745 2.267V224h-1.341v-5.841q0-.966-.528-1.381a1.96 1.96 0 0 0-1.245-.414q-.92 0-1.426.556-.506.552-.506 1.398V224h-1.363v-5.977q0-.744-.483-1.199-.483-.46-1.245-.46-.522 0-.977.278a2.1 2.1 0 0 0-.727.773 2.3 2.3 0 0 0-.273 1.13V224zm16.475.205a3.55 3.55 0 0 1-1.506-.313 2.6 2.6 0 0 1-1.074-.915q-.398-.602-.398-1.454 0-.75.296-1.216.295-.472.79-.739.494-.266 1.091-.398.601-.135 1.21-.215.795-.103 1.29-.154.5-.057.727-.187.233-.13.233-.455v-.045q0-.842-.46-1.307-.455-.466-1.381-.466-.96 0-1.506.42-.545.421-.767.898l-1.273-.454q.342-.796.91-1.239a3.4 3.4 0 0 1 1.25-.625 5.2 5.2 0 0 1 1.34-.182q.421 0 .966.102.552.097 1.063.404.518.306.858.926t.341 1.659V224h-1.341v-1.182h-.068a2.4 2.4 0 0 1-.455.608q-.318.324-.847.551t-1.289.228m.204-1.205q.796 0 1.341-.312.552-.314.83-.807.284-.494.284-1.04v-1.227q-.086.102-.375.187-.285.08-.659.142-.37.057-.722.102-.346.04-.562.069a5 5 0 0 0-.978.221 1.7 1.7 0 0 0-.727.449q-.273.296-.273.807 0 .699.517 1.057.523.352 1.324.352m7.584-4.25V224h-1.341v-8.727h1.296v1.363h.113q.307-.665.932-1.068.625-.41 1.614-.409.886 0 1.551.364.665.357 1.034 1.091.369.726.369 1.841V224h-1.341v-5.455q0-1.028-.534-1.602-.534-.579-1.466-.579-.642 0-1.147.278a2 2 0 0 0-.79.813q-.29.534-.29 1.295m10.587 5.455a3.55 3.55 0 0 1-1.506-.313 2.6 2.6 0 0 1-1.074-.915q-.398-.602-.398-1.454 0-.75.296-1.216.295-.472.79-.739.494-.266 1.091-.398.601-.135 1.21-.215.795-.103 1.29-.154.5-.057.727-.187.233-.13.233-.455v-.045q0-.842-.46-1.307-.455-.466-1.381-.466-.96 0-1.506.42-.545.421-.767.898l-1.273-.454q.342-.796.91-1.239a3.4 3.4 0 0 1 1.25-.625 5.2 5.2 0 0 1 1.34-.182q.421 0 .966.102.552.097 1.063.404.518.306.858.926t.341 1.659V224h-1.341v-1.182h-.068a2.4 2.4 0 0 1-.455.608q-.318.324-.847.551t-1.289.228m.204-1.205q.796 0 1.341-.312.552-.314.83-.807.284-.494.284-1.04v-1.227q-.086.102-.375.187-.285.08-.659.142-.37.057-.722.102-.346.04-.562.069a5 5 0 0 0-.978.221 1.7 1.7 0 0 0-.727.449q-.273.296-.273.807 0 .699.517 1.057.523.352 1.324.352m9.766 4.455q-.972 0-1.671-.25a3.6 3.6 0 0 1-1.164-.648 3.5 3.5 0 0 1-.733-.852l1.068-.75q.181.238.46.545.278.312.761.54.489.233 1.279.233 1.056 0 1.744-.512.688-.511.688-1.602v-1.773h-.114a7 7 0 0 1-.42.591q-.267.347-.773.62-.5.267-1.352.267-1.058 0-1.898-.5-.835-.501-1.324-1.455-.483-.954-.483-2.318 0-1.34.472-2.335.471-1 1.312-1.546.841-.55 1.943-.551.853 0 1.353.284.505.279.772.637.273.352.421.579h.136v-1.386h1.296v8.977q0 1.125-.512 1.83-.505.71-1.363 1.039a5.1 5.1 0 0 1-1.898.336m-.046-4.796q.807 0 1.364-.369.556-.37.847-1.063t.289-1.659q0-.944-.284-1.665-.283-.722-.841-1.13-.556-.41-1.375-.409-.852 0-1.42.431a2.64 2.64 0 0 0-.847 1.16 4.5 4.5 0 0 0-.278 1.613q0 .909.284 1.608.29.693.852 1.091.569.392 1.409.392m6.273 1.341v-8.727h1.341V224zm.682-10.182a.95.95 0 0 1-.676-.267.86.86 0 0 1-.279-.642q0-.375.279-.642a.95.95 0 0 1 .676-.267q.392 0 .67.267.285.267.285.642t-.285.642a.93.93 0 0 1-.67.267m4.456 4.932V224h-1.341v-8.727h1.295v1.363h.114q.307-.665.932-1.068.625-.41 1.614-.409.886 0 1.551.364.665.357 1.034 1.091.369.726.369 1.841V224h-1.341v-5.455q0-1.028-.534-1.602-.534-.579-1.466-.579-.642 0-1.148.278a2 2 0 0 0-.789.813q-.29.534-.29 1.295m11.541 8.705q-.971 0-1.67-.25a3.6 3.6 0 0 1-1.165-.648 3.5 3.5 0 0 1-.733-.852l1.068-.75q.182.238.46.545.279.312.762.54.488.233 1.278.233 1.057 0 1.744-.512.688-.511.688-1.602v-1.773h-.114a7 7 0 0 1-.42.591q-.267.347-.773.62-.5.267-1.352.267a3.65 3.65 0 0 1-1.898-.5q-.835-.501-1.324-1.455-.483-.954-.483-2.318 0-1.34.472-2.335.471-1 1.312-1.546.841-.55 1.944-.551.852 0 1.352.284.506.279.773.637.272.352.42.579h.136v-1.386h1.296v8.977q0 1.125-.512 1.83-.505.71-1.363 1.039a5.1 5.1 0 0 1-1.898.336m-.045-4.796q.807 0 1.363-.369.558-.37.847-1.063.29-.693.29-1.659 0-.944-.284-1.665-.285-.722-.841-1.13-.558-.41-1.375-.409-.853 0-1.421.431a2.63 2.63 0 0 0-.846 1.16 4.5 4.5 0 0 0-.279 1.613q0 .909.284 1.608.29.693.853 1.091.567.392 1.409.392m10.954-10.295h1.682l3.955 9.659h.136l3.954-9.659h1.682V224h-1.318v-8.841h-.114L786.828 224h-1.273l-3.636-8.841h-.114V224h-1.318zM804.085 216h-1.409a2.93 2.93 0 0 0-1.187-1.841 3.2 3.2 0 0 0-.972-.477 3.9 3.9 0 0 0-1.114-.159q-1.056 0-1.914.534-.853.534-1.358 1.574-.5 1.04-.5 2.551t.5 2.551q.505 1.04 1.358 1.574.858.534 1.914.534.58 0 1.114-.159a3.3 3.3 0 0 0 .972-.472q.442-.318.75-.778a3 3 0 0 0 .437-1.068h1.409a4.7 4.7 0 0 1-.579 1.596 4.4 4.4 0 0 1-1.046 1.199 4.6 4.6 0 0 1-1.403.744 5.2 5.2 0 0 1-1.654.256q-1.488 0-2.647-.727-1.16-.727-1.824-2.068t-.665-3.182q0-1.84.665-3.182.665-1.34 1.824-2.068 1.158-.727 2.647-.727.882 0 1.654.255.779.256 1.403.75.625.49 1.046 1.193.42.7.579 1.597m2.277 8v-11.636h3.932q1.37 0 2.239.494.875.489 1.295 1.324a4.1 4.1 0 0 1 .421 1.863q0 1.029-.421 1.87-.414.84-1.284 1.341-.87.494-2.227.494h-2.818v-1.25h2.772q.938 0 1.506-.324a1.93 1.93 0 0 0 .824-.875q.261-.557.261-1.256a2.9 2.9 0 0 0-.261-1.25 1.87 1.87 0 0 0-.83-.863q-.573-.318-1.522-.318h-2.478V224zm10.156 0v-11.636h1.41v5.181h6.204v-5.181h1.409V224h-1.409v-5.205h-6.204V224zm17.162-3.568v-5.159h1.341V224h-1.341v-1.477h-.091q-.306.665-.954 1.13-.648.46-1.636.461-.819 0-1.455-.358-.636-.364-1-1.091-.363-.733-.364-1.847v-5.545h1.341v5.454q0 .955.534 1.523.54.568 1.375.568.501 0 1.017-.256.524-.255.875-.784.358-.528.358-1.346m3.979 3.568v-11.636H839v4.295h.114q.147-.227.409-.579.267-.358.761-.637.5-.284 1.352-.284 1.102 0 1.944.551.84.551 1.312 1.563.471 1.01.472 2.386 0 1.386-.472 2.403-.471 1.012-1.307 1.569-.836.55-1.926.551-.84 0-1.347-.279-.505-.283-.778-.642a8 8 0 0 1-.42-.602h-.159V224zm1.318-4.364q0 .989.29 1.745.29.75.847 1.176.556.42 1.363.42.842 0 1.404-.443.568-.449.852-1.204.29-.762.29-1.694 0-.92-.284-1.659-.279-.744-.847-1.176-.563-.438-1.415-.437-.818 0-1.375.414-.556.41-.841 1.148-.284.733-.284 1.71"/><g stroke="#e2e8f0" stroke-width="6" filter="url(#c)"><path d="M550 352h69"/><path stroke-linejoin="round" d="M597.872 336 619 352l-21.128 16"/></g><path fill="#e2e8f0" d="M169.771 369h-10.227l11.523-34.909h12.954L195.544 369h-10.227l-7.637-25.295h-.272zm-1.909-13.773h19.227v7.091h-19.227zm52.074-9.613a4.7 4.7 0 0 0-.699-1.586 4.4 4.4 0 0 0-1.193-1.176 4.9 4.9 0 0 0-1.636-.733 7.6 7.6 0 0 0-2.029-.255q-2.387 0-4.074 1.142-1.67 1.142-2.556 3.289-.87 2.149-.87 5.182 0 3.069.835 5.25.836 2.182 2.489 3.341t4.108 1.159q2.165 0 3.597-.63 1.449-.631 2.164-1.79.717-1.16.716-2.727l1.637.17h-7.978v-6.75h15.478v4.841q0 4.772-2.029 8.165-2.011 3.375-5.557 5.182-3.528 1.79-8.096 1.789-5.097 0-8.949-2.165t-6.017-6.17q-2.148-4.006-2.148-9.528 0-4.33 1.313-7.671 1.329-3.34 3.682-5.642a15.6 15.6 0 0 1 5.437-3.494q3.085-1.193 6.614-1.193 3.102 0 5.761.886 2.676.87 4.722 2.489a12.9 12.9 0 0 1 3.324 3.801q1.26 2.199 1.534 4.824zM234.344 369v-34.909h25.159v7.636h-15.682v6h14.386v7.637h-14.386v6h15.614V369zm60.064-34.909V369h-7.909l-12.614-18.341h-.205V369h-9.477v-34.909h8.046l12.409 18.273h.272v-18.273zm3.528 7.636v-7.636h30.341v7.636h-10.5V369h-9.341v-27.273zM350.662 345q-.137-1.705-1.278-2.659-1.125-.954-3.427-.955-1.466 0-2.403.358-.92.341-1.364.938a2.3 2.3 0 0 0-.46 1.363q-.034.632.222 1.143.273.493.852.903.58.392 1.483.716t2.148.579l2.863.614q2.898.614 4.961 1.619 2.063 1.007 3.375 2.37a8.44 8.44 0 0 1 1.926 3.034q.63 1.687.647 3.682-.017 3.443-1.721 5.829t-4.875 3.631q-3.154 1.244-7.585 1.244-4.552 0-7.944-1.347-3.375-1.346-5.25-4.142-1.857-2.812-1.875-7.193h9q.085 1.602.802 2.693.715 1.092 2.011 1.654 1.313.562 3.119.562 1.517 0 2.54-.375t1.551-1.039q.528-.666.546-1.517-.018-.802-.529-1.398-.494-.614-1.636-1.091-1.143-.494-3.085-.921l-3.478-.75q-4.636-1.005-7.312-3.357-2.66-2.37-2.642-6.461-.018-3.324 1.772-5.812 1.808-2.506 4.995-3.904 3.204-1.397 7.346-1.397 4.228 0 7.313 1.414 3.085 1.416 4.756 3.989 1.687 2.557 1.704 5.983zm27.963 13.466q-1.977 0-3.392-1.381-1.398-1.398-1.381-3.392-.017-1.942 1.381-3.324 1.415-1.38 3.392-1.38 1.875 0 3.307 1.38 1.448 1.381 1.466 3.324a4.6 4.6 0 0 1-.699 2.421 5.14 5.14 0 0 1-1.739 1.721 4.5 4.5 0 0 1-2.335.631m51.903-11.284h-9.613a6.5 6.5 0 0 0-.546-2.165 4.9 4.9 0 0 0-1.193-1.67 5 5 0 0 0-1.824-1.091q-1.074-.393-2.437-.392-2.387 0-4.04 1.159-1.636 1.158-2.489 3.324-.834 2.165-.835 5.198 0 3.206.852 5.37.87 2.148 2.506 3.238 1.637 1.074 3.938 1.074 1.313 0 2.352-.324a5.5 5.5 0 0 0 1.807-.971 5 5 0 0 0 1.244-1.517q.495-.904.665-2.029l9.613.069q-.17 2.215-1.244 4.517-1.074 2.283-3.051 4.227-1.96 1.926-4.858 3.102t-6.733 1.176q-4.807 0-8.625-2.062-3.801-2.063-6.017-6.068-2.199-4.006-2.199-9.802 0-5.83 2.25-9.818 2.25-4.005 6.068-6.051 3.819-2.062 8.523-2.062 3.307 0 6.085.903 2.78.903 4.875 2.642 2.097 1.722 3.375 4.244 1.28 2.523 1.551 5.779m13.777-13.091V369h-9.477v-34.909z"/><path fill="#e5e7eb" d="M721 307h30v7.5h-22.5V337H721zM803.5 314.5H781V307h30v30h-7.5zM803.5 367h7.5v30h-30v-7.5h22.5zM721 367h7.5v22.5H751v7.5h-30z"/><path fill="#bf4e0d" d="M773.5 340.75h-15a3.75 3.75 0 0 0-3.75 3.75v15a3.75 3.75 0 0 0 3.75 3.75h15a3.75 3.75 0 0 0 3.75-3.75v-15a3.75 3.75 0 0 0-3.75-3.75"/><path fill="#e2e8f0" d="M843.188 328.955h15.727l10.818 26.363h.545l10.819-26.363h15.727V375.5H884.46v-26.909h-.363l-10.364 26.545h-7.455l-10.363-26.727h-.364V375.5h-12.363zm103.079 17.454h-12.818q-.136-1.591-.727-2.886a6.5 6.5 0 0 0-1.591-2.228q-1-.954-2.432-1.454-1.432-.523-3.25-.523-3.182 0-5.387 1.546-2.181 1.545-3.318 4.431-1.113 2.887-1.113 6.932 0 4.273 1.136 7.159 1.159 2.864 3.341 4.319 2.183 1.431 5.25 1.431 1.75 0 3.136-.431 1.387-.454 2.409-1.296a6.7 6.7 0 0 0 1.659-2.023q.66-1.204.887-2.704l12.818.091q-.226 2.954-1.659 6.022-1.433 3.047-4.068 5.637-2.614 2.568-6.478 4.136t-8.977 1.568q-6.41 0-11.5-2.75-5.068-2.75-8.023-8.091-2.931-5.34-2.931-13.068 0-7.773 3-13.091 3-5.34 8.091-8.068 5.09-2.75 11.363-2.75 4.41 0 8.114 1.205 3.704 1.204 6.5 3.522 2.796 2.296 4.5 5.66 1.704 3.363 2.068 7.704M952 375.5v-46.545h20.091q5.181 0 9.068 2.045t6.046 5.75 2.159 8.659q0 5-2.228 8.659-2.204 3.66-6.204 5.637-3.977 1.977-9.296 1.977h-12v-9.818h9.455q2.228 0 3.795-.773 1.592-.795 2.432-2.25.864-1.455.864-3.432 0-2-.864-3.409-.84-1.432-2.432-2.182-1.567-.773-3.795-.773h-4.455V375.5zm42 0v-46.545h12.64v18.181h16.72v-18.181H1036V375.5h-12.64v-18.182h-16.72V375.5zm70.82-15.273v-19.636h12.54V375.5h-11.91v-6.636h-.36c-.76 2.227-2.08 3.969-3.98 5.227q-2.835 1.864-6.75 1.864c-2.44 0-4.57-.561-6.41-1.682-1.81-1.121-3.23-2.667-4.25-4.637-1-1.969-1.5-4.227-1.52-6.772v-22.273h12.55v19.636q.015 2.592 1.32 4.068c.87.985 2.1 1.478 3.68 1.478q1.56 0 2.7-.659a4.46 4.46 0 0 0 1.77-1.909c.43-.834.63-1.826.62-2.978m18.74 15.273v-46.545h12.55v17.727h.18a10.4 10.4 0 0 1 2-3.25q1.32-1.5 3.27-2.387c1.31-.606 2.82-.909 4.55-.909q3.45 0 6.57 1.841c2.09 1.228 3.78 3.159 5.09 5.796 1.32 2.636 1.97 6.06 1.97 10.272 0 4.031-.62 7.372-1.88 10.023-1.24 2.652-2.91 4.629-5 5.932q-3.12 1.955-6.84 1.955c-1.64 0-3.1-.266-4.39-.796q-1.905-.818-3.27-2.204-1.35-1.41-2.07-3.182h-.27v5.727zm12.28-17.455c0 1.697.21 3.167.65 4.41.46 1.227 1.1 2.181 1.91 2.863.84.667 1.83 1 2.98 1s2.13-.326 2.93-.977c.82-.667 1.44-1.614 1.87-2.841q.66-1.863.66-4.455 0-2.59-.66-4.431c-.43-1.243-1.05-2.19-1.87-2.841-.8-.667-1.78-1-2.93-1s-2.14.333-2.98 1c-.81.651-1.45 1.598-1.91 2.841-.44 1.227-.65 2.704-.65 4.431"/></g><defs><linearGradient id="b" x1="0" x2="1214.09" y1="0" y2="644.212" gradientUnits="userSpaceOnUse"><stop stop-color="#0b1220"/><stop offset="1" stop-color="#111827"/></linearGradient><clipPath id="a"><path fill="#fff" d="M0 0h1280v520H0z"/></clipPath><filter id="c" width="80" height="44.783" x="546" y="333.608" color-interpolation-filters="sRGB" filterUnits="userSpaceOnUse"><feFlood flood-opacity="0" result="BackgroundImageFix"/><feColorMatrix in="SourceAlpha" result="hardAlpha" values="0 0 0 0 0 0 0 0 0 0 0 0 0 0 0 0 0 0 127 0"/><feOffset dy="4"/><feGaussianBlur stdDeviation="2"/><feComposite in2="hardAlpha" operator="out"/><feColorMatrix values="0 0 0 0 0 0 0 0 0 0 0 0 0 0 0 0 0 0 0.25 0"/><feBlend in2="BackgroundImageFix" result="effect1_dropShadow_1_271"/><feBlend in="SourceGraphic" in2="effect1_dropShadow_1_271" result="shape"/></filter></defs></svg>